<?xml version="1.0" standalone="no"?>
<!DOCTYPE svg PUBLIC "-//W3C//DTD SVG 1.1//EN" "http://www.w3.org/Graphics/SVG/1.1/DTD/svg11.dtd">
<svg xmlns="http://www.w3.org/2000/svg"><metadata>This SVG WebFont was generated by YouWorkForThem.
Copyright 2014 Adobe Systems Incorporated. All rights reserved.</metadata><defs><font horiz-adv-x="907" id="ywftsvg"><font-face ascent="1536" bbox="-1081 -3846 10500 3721" cap-height="1296" descent="-512" font-family="" font-stretch="normal" font-weight="400" panose-1="0 0 0 0 0 0 0 0 0 0" underline-position="0" underline-thickness="0" unicode-range="U+0020-007A" units-per-em="2048" x-height="778"/><missing-glyph horiz-adv-x="1880"/><glyph glyph-name=".notdef" horiz-adv-x="1880"/><glyph glyph-name="glyph1" horiz-adv-x="0"/><glyph glyph-name="glyph2" horiz-adv-x="681"/><glyph glyph-name="space" horiz-adv-x="1880" unicode=" "/><glyph d="M43 1252q-1 266 197 266q98 0 179 -53.5t81 -149.5q0 -127 -125 -299t-203 -172q-68 0 -98.5 139t-30.5 269zM866 670q0 -252 -260 -252q-125 0 -296 97.5t-171 152.5q0 37 75 97t188.5 109.5t215.5 49.5t175 -63.5t73 -190.5zM239 -174q-198 0 -198 276q0 142 29.5 270 t99.5 128q49 0 128 -78t139.5 -191.5t60.5 -205.5t-81 -145.5t-178 -53.5z" glyph-name="zero" unicode="0"/><glyph d="M735 926q25 0 36 114t11 210q0 186 -112 186q-70 0 -125.5 -32t-55.5 -89q0 -90 94.5 -239.5t151.5 -149.5zM666 1518q198 0 198 -266q0 -130 -30.5 -269t-98.5 -139q-78 0 -202.5 172t-124.5 299q0 96 80 149.5t178 53.5zM676 668q0 39 -139.5 106.5t-226.5 67.5 t-137 -43t-50 -131q0 -168 176 -168q94 0 235.5 67.5t141.5 100.5zM301 418q-260 0 -260 252q0 127 72.5 190.5t174.5 63.5t216 -49.5t189 -109.5t75 -97q0 -55 -171 -152.5t-296 -97.5zM737 418q-57 0 -151 -149.5t-94 -239.5q0 -57 55 -89t117 -32q120 0 120 168 q0 115 -11 228.5t-36 113.5zM737 500q70 0 99.5 -128t29.5 -270q0 -276 -194 -276q-100 0 -181 53t-81 145t60 206t139 192t128 78z" glyph-name="one" unicode="1"/><glyph d="M666 1518q198 0 198 -266q0 -130 -30.5 -269t-98.5 -139q-78 0 -202.5 172t-124.5 299q0 96 80 149.5t178 53.5zM301 418q-260 0 -260 252q0 127 72.5 190.5t174.5 63.5t216 -49.5t189 -109.5t75 -97q0 -55 -171 -152.5t-296 -97.5zM737 500q70 0 99.5 -128t29.5 -270 q0 -276 -194 -276q-100 0 -181 53t-81 145t60 206t139 192t128 78z" glyph-name="two" unicode="2"/><glyph d="M172 926q57 0 151.5 149.5t94.5 239.5q0 57 -55.5 89t-116.5 32q-121 0 -121 -168q0 -115 11 -228.5t36 -113.5zM43 1252q-1 266 197 266q98 0 179 -53.5t81 -149.5q0 -127 -125 -299t-203 -172q-68 0 -98.5 139t-30.5 269zM231 668q0 -33 141.5 -100.5t235.5 -67.5 q176 0 176 168q0 88 -50 131t-137 43t-226.5 -67.5t-139.5 -106.5zM866 670q0 -252 -260 -252q-125 0 -296 97.5t-171 152.5q0 37 75 97t188.5 109.5t215.5 49.5t175 -63.5t73 -190.5zM170 418q-25 0 -36 -114t-11 -210q0 -186 113 -186q70 0 125 31.5t55 89.5 q0 90 -94.5 239.5t-151.5 149.5zM239 -174q-198 0 -198 276q0 142 29.5 270t99.5 128q49 0 128 -78t139.5 -191.5t60.5 -205.5t-81 -145.5t-178 -53.5z" glyph-name="three" unicode="3"/><glyph d="M2435 -721q-520 0 -961.5 168t-759 473t-495.5 757.5t-178 999.5q0 61 82 70q1047 -8 1221 -8t972 45l267 14q65 6 57 -76q-104 -1165 -104 -1556t-21 -696l-6 -123q0 -68 -74 -68z" glyph-name="four" horiz-adv-x="2682" unicode="4"/><glyph d="M41 362.5q0 83.5 88 83.5q47 0 100.5 -28.5t86 -47t49 -28.5t48 -30.5t38.5 -24.5q18 260 153 508.5t325.5 421t403.5 276.5t387 104q74 0 74 -59t-81 -178t-81 -146q0 -16 249 -36t249 -101q0 -100 -202 -158.5t-351.5 -96.5t-299 -89t-273 -114.5t-201.5 -161 t-78 -217.5q205 41 262 41q184 0 184 -97q0 -59 -141 -173.5t-316 -206t-264 -91.5t-188.5 130t-160 283t-60.5 236.5z" glyph-name="five" horiz-adv-x="2170" unicode="5"/><glyph d="M2439 66q0 -45 -65 -46h-176q-91 0 -145 86.5t-109 172.5t-152 86q-37 0 -37 -23q0 -55 81 -141t81 -133t-68 -48h-176q-63 0 -121.5 55.5t-97.5 121t-100.5 121t-130.5 55.5h-613q-70 0 -69 -62q0 -53 29.5 -158.5t29.5 -158.5t-73 -53t-187.5 98t-206.5 238.5 t-92 244.5t93 245.5t207.5 237t186.5 95.5t72 -58t-29.5 -162t-29.5 -155q0 -61 69 -61h613q70 0 131 55t99 120.5t93.5 121t116.5 55.5h186q68 0 68 -43t-81 -138.5t-81 -140.5q0 -22 47 -22t91 35.5t74 86t80.5 136.5t150.5 86h176q66 0 65 -45q0 -68 -120.5 -223.5 t-120.5 -225.5t60 -155.5t120.5 -166.5t60.5 -134z" glyph-name="six" horiz-adv-x="2480" unicode="6"/><glyph d="M859 82q-17 0 -33.5 -18.5t-30 -42t-44 -42t-71.5 -18.5q-168 0 -320.5 165t-235.5 388t-83 434t120 364.5t308 153.5q100 0 160.5 -50t100.5 -118.5t69 -87.5q12 225 118.5 350.5t264.5 125.5q47 0 47 -41t-47 -41q-125 0 -209 -104.5t-92 -295.5q35 12 69.5 57.5 t62 89.5t87 79.5t137.5 35.5q188 0 308 -153.5t120 -380.5q0 -176 -83 -399.5t-236.5 -397.5t-319.5 -174q-41 0 -68.5 18.5t-39 42t-27 42t-32.5 18.5z" glyph-name="seven" horiz-adv-x="1755" unicode="7"/><glyph d="M5849 0q0 160 -103 375t-445 409.5t-749 194.5t-744 -167.5t-605 -373t-532.5 -407.5t-637 -373.5t-849.5 -171.5q-309 0 -570.5 138t-417 388t-155.5 562t102.5 549t318.5 375t525 138q182 0 344 -81.5t268.5 -209.5t168 -284t61.5 -305q0 -25 -13.5 -40.5t-29.5 -15.5 q-39 0 -39 56q0 137 -55.5 277.5t-151.5 257t-241.5 190t-311.5 73.5q-422 0 -643 -269t-221 -718q0 -283 144.5 -513t386.5 -358t504 -128t483 51t405 137t361.5 199t340 236.5t432 326.5t615 373t764.5 170q420 0 784 -207.5t476 -444.5t112 -409q0 -59 -47 -59 q-35 0 -35 59z" glyph-name="eight" horiz-adv-x="5971" unicode="8"/><glyph d="M123 0q0 -59 -35 -59q-47 0 -47 59q0 172 112 409t476 444.5t784 207.5t765 -170t614.5 -373t534.5 -404.5t633 -373.5t828 -172q287 0 529.5 128t387 358.5t144.5 512.5q0 449 -221 718t-643 269q-166 0 -311.5 -73.5t-241.5 -190t-151.5 -257t-55.5 -277.5 q0 -55 -39 -56q-16 0 -29.5 15.5t-13.5 40.5q0 150 61.5 305.5t168 283.5t268.5 209.5t344 81.5q309 0 627.5 -203.5t318.5 -865.5q0 -305 -155.5 -555t-417 -388t-570.5 -138q-477 0 -849.5 171.5t-637 373.5t-532.5 407.5t-605 373t-744 167.5t-749 -194.5t-445 -409.5 t-103 -375z" glyph-name="nine" horiz-adv-x="5971" unicode="9"/><glyph d="M543 1159v6q4 113 86 203t217 90t213 -93t78 -218q0 -31 -11 -68q94 -39 94 -97t-182 -71q-55 -68 -129 -135q55 -35 363 -217t411 -266q127 -100 127 -166q0 -104 -189 -138t-627 -34t-627 18.5t-257.5 55.5t-68.5 110t117 171.5t321 240.5q203 142 316 235 q-41 45 -41 86q0 84 227 101q25 31 41 63l-82 15q-37 8 -37 36q0 47 49 40t99 -21q4 29 4 41q0 90 -57.5 159.5t-151.5 69.5t-155.5 -65.5t-65.5 -145.5v-6q0 -41 -41 -41t-41 41zM842 827q55 51 80 78q-102 -10 -103 -43q0 -12 23 -35zM1149 995q0 12 -43 23q-2 -6 -23 -41 q66 6 66 18z" glyph-name="A" horiz-adv-x="1851" unicode="A"/><glyph d="M3201 -825q0 -16 -12.5 -28.5t-30.5 -12.5t-43 28t-82 88t-233.5 237t-350.5 341t-413.5 368.5t-450.5 358.5h-22q-14 0 -21 2l-121 -59q-193 -129 -518 -459t-555 -596l-229 -264q-20 -25 -39 -25q-39 0 -39 37q1 20 21 45t112.5 137t399.5 446.5t556 549.5 q-226 -86 -472 -86t-393.5 102t-147.5 296t116.5 302.5t393.5 108.5q334 0 915 -410q23 6 36 6t34 -4q743 391 985 391t372 -114.5t130 -305.5q0 -233 -135.5 -340.5t-391.5 -107.5t-678 211q285 -229 607.5 -532.5t441.5 -426.5t189 -195t69 -89z" glyph-name="B" horiz-adv-x="3241" unicode="B"/><glyph d="M899 291q0 -23 45 -65t90 -94t45 -90t-14 -60.5t-47 -35t-68 -22.5t-58 -10h-136q-150 -100 -150 -281q0 -106 93 -213.5t612 -107.5q518 0 721.5 -184t203.5 -494q0 -269 131.5 -463t208 -309t131 -261.5t54.5 -306.5t-30 -291.5t-64.5 -209.5t-64.5 -231.5t-30 -358.5 q0 -49 -41 -49t-41 49q0 197 30 353.5t94.5 317.5t64.5 432t-131 458.5t-208 299t-131.5 259t-54.5 311.5q0 283 -192.5 439.5t-648.5 156.5t-586.5 82t-166.5 152.5t-36 168.5q0 164 113 285q-127 10 -127 96q0 47 63.5 146.5t63.5 111.5q0 72 -61.5 147t-148.5 151.5 t-175 166.5t-149.5 229.5t-61.5 293.5t41 281.5t123 234t223.5 169t315.5 62.5t307 -66.5t250.5 -230t117.5 -410.5q0 -164 -53 -308t-130 -241.5t-153.5 -179.5t-130 -152.5t-53.5 -127.5z" glyph-name="C" horiz-adv-x="2801" unicode="C"/><glyph d="M926 1389q31 0 69.5 -71t69.5 -214.5t31 -327.5t-55.5 -348t-196.5 -317.5t-375 -145.5q-66 6 -70 6q-47 -231 -47 -428q0 -23 -11 -36t-28 -13q-43 0 -43 49q0 217 52 451q-135 49 -208 175.5t-73 286.5t59.5 296.5t202 285.5t354.5 250t269 101z" glyph-name="D" horiz-adv-x="1136" unicode="D"/><glyph d="M1542 90q0 511 -266 914q-134 -90 -330 -90t-364 66.5t-285 168.5t-186.5 226t-69.5 239q0 152 201 151q59 0 137 -22q-33 152 -33 227q0 199 168 199q109 0 270 -101q14 190 136 191q84 0 182 -65.5t182 -172t140.5 -260t56.5 -311.5q0 -262 -146 -401 q129 -193 209 -434.5t80 -489.5q0 -61 -4 -168q179 545 299.5 760t205.5 303t161 88q176 0 176 -240q0 -143 -109.5 -385.5t-245 -463t-336 -505.5t-376.5 -509q-78 -172 -173.5 -316.5t-152.5 -204.5l-55 -57q-10 -20 -32 -20t-34 11.5t-12 27.5t22 38t61.5 65.5t141 196 t178 327.5t140 460t63.5 557z" glyph-name="E" horiz-adv-x="2502" unicode="E"/><glyph d="M3678 1321q-168 55 -168 293q0 115 71 224.5t164 172t170 98t101 35.5t50 -40t46.5 -123t20.5 -181q0 -233 -113.5 -364t-259.5 -127q-23 -104 -26 -176q215 199 391 204q72 131 266 131q123 0 232.5 -70.5t172 -163.5t98.5 -170.5t36 -101.5t-40 -49.5t-123 -46 t-182 -20.5q-236 0 -365.5 113.5t-125.5 261.5q0 23 2 32q-256 -39 -612 -536q106 -47 227 -125q73 82 185 82t203 -59.5t172 -203.5t81 -360q0 -61 -8 -82q-10 -33 -126 -33t-250 56.5t-229.5 167t-95.5 243.5q0 63 25 119q-115 76 -234 125q-180 -264 -377.5 -639 t-274.5 -545t-128 -288q-49 -180 -117.5 -346t-164 -333t-166.5 -249l-33 -37l-57 57q36 36 106 139t125 204.5t204.5 469t149.5 1074.5q0 262 -61 542l-2 -2q-50 50 -150 120.5t-193 120.5t-231.5 96t-273.5 56q6 -102 29 -217q145 2 258.5 -128t113.5 -363 q0 -98 -20.5 -181t-46.5 -123t-50 -40t-101 35.5t-170 98t-163.5 172.5t-70.5 223t43 189t125 103q-23 123 -29 236q-129 -4 -254 -31v-2q2 -2 2 -4q4 -147 -126 -261t-365 -114q-98 0 -181.5 20.5t-123 46t-39.5 50.5t35.5 101.5t98 169.5t172 164t232.5 71q219 0 279 -162 q147 33 284 33t280.5 -36t309 -120.5t295.5 -188.5q-117 418 -348 792t-516 632q-106 -45 -215 -117q25 -63 24 -119q0 -133 -95 -243.5t-229 -167t-250 -56.5t-126 33q-8 20 -8 102t27.5 187.5t81 201t144.5 155t201 59.5t187 -82q102 68 188 108q-387 322 -712 322 q-43 0 -87 -6l3 -15q4 -147 -126 -260.5t-366 -113.5q-98 0 -181 20t-123 46.5t-40 50.5t36 100.5t98.5 170t172 164t232.5 70.5q211 0 276 -153q70 8 140 8t198 -39q6 119 27 219q-168 55 -168 293q0 115 70.5 224.5t163.5 172t170 98t101 35.5t50 -40t46.5 -123t20.5 -181 q0 -233 -113.5 -364t-258.5 -127q-27 -123 -29 -236q264 -104 536.5 -355t491.5 -595q29 258 144.5 441t246.5 194q72 131 266 131q123 0 232.5 -71t172 -164t98.5 -170t36 -101t-40 -50t-123 -46.5t-181 -20.5q-236 0 -366 114t-126 261q0 18 2 29q-111 -39 -197.5 -232.5 t-88.5 -439.5q406 -705 405 -1421q0 -319 -49 -615q481 1047 916 1510q0 133 28 272z" glyph-name="F" horiz-adv-x="4970" unicode="F"/><glyph d="M549 1567q436 0 500 -527q39 166 143 268.5t274 102.5t283 -120t113 -308q0 -133 -41 -272.5t-95.5 -246t-151.5 -241.5t-161.5 -212t-120.5 -140t-102.5 -118.5t-67 -75t-63.5 -45t-84 -25.5q-80 0 -154 74q-152 150 -268.5 281.5t-314 400.5t-197.5 585t133 467.5 t375 151.5z" glyph-name="G" horiz-adv-x="1902" unicode="G"/><glyph d="M400 1636q157 0 255.5 -101t135.5 -267q59 524 460 524q213 0 330 -141.5t117 -423.5q0 -190 -114 -465t-299 -490t-357 -215q-133 0 -294 122t-289 297t-216 377.5t-88 372.5t101 290t258 120z" glyph-name="H" horiz-adv-x="1738" unicode="H"/><glyph d="M223 1296q51 0 117 -136t66 -226t-51.5 -138t-125.5 -48t-131 48t-57 136t65.5 226t116.5 138zM555 584q51 0 106.5 -108.5t55.5 -188.5t-49.5 -125t-119.5 -45t-112.5 44t-42.5 127t55.5 189.5t106.5 106.5z" glyph-name="I" horiz-adv-x="757" unicode="I"/><glyph d="M41 836q0 109 85 173t187 78q0 147 81.5 284.5t311.5 137.5q120 0 216 -68.5t137 -164.5q131 190 348 190q178 0 289.5 -128t111.5 -291q426 -156 426 -488q0 -170 -121.5 -293t-263.5 -123q0 -171 -70.5 -276t-156.5 -145.5t-199 -40.5q-162 0 -285.5 101t-144.5 265 q-268 -301 -540 -301q-166 0 -289 100.5t-123 285.5t85 292.5t107 128.5l23 20q-215 118 -215 263z" glyph-name="J" horiz-adv-x="2275" unicode="J"/><glyph d="M41 920q0 61 157.5 81.5t526.5 20.5q174 0 244.5 96t114.5 152.5t124 96.5t200 40t222.5 -53.5t181 -129t161.5 -151.5t210 -129t309 -53t372 48t329 115.5t341 184.5t316 117q128 0 127 -121q0 -66 -71.5 -182.5t-194.5 -253.5t-300 -279.5t-372.5 -258.5t-430 -189.5 t-422.5 -73.5t-308.5 45t-197 119t-141 161t-120 175t-151.5 206.5t-305 118.5q-612 0 -767 13.5t-155 83.5z" glyph-name="K" horiz-adv-x="4018" unicode="K"/><glyph d="M3863 1356q114 0 114 -132q0 -60 -71.5 -178t-194.5 -255.5t-300 -278.5t-372.5 -255t-430 -186.5t-422.5 -72.5t-308.5 45t-198 119t-141 161t-119 175t-151.5 206.5t-305 118.5q-612 0 -767 13.5t-155 83.5q0 61 157.5 81.5t526.5 20.5q174 0 244.5 96t114.5 152.5 t124 96.5t188 40t199 -39t140 -79t133 -120q4 329 76.5 515t175 261.5t230.5 75.5t217 -68.5t89 -167.5t-104 -179q45 -39 67 -88q153 120 301 120t253.5 -87t105.5 -212q0 -90 -44 -144t-159 -67q14 -43 14 -82t-10 -65q119 50 383 212.5t400 162.5z" glyph-name="L" horiz-adv-x="4018" unicode="L"/><glyph d="M74 760q-33 0 -33 39q0 57 98.5 123.5t201.5 66.5t265 -83t246 -83t192.5 33t149.5 41q309 410 309 499t52.5 270t52.5 310q0 248 -191 248q-61 0 -104 -28.5t-77 -91t-60 -62.5q-35 0 -35 39q0 63 83 144t193 81q272 0 273 -330q0 -119 -52.5 -298.5t-52.5 -283.5 t381 -493q63 25 113 25q111 106 253 274t148 242v4q0 90 -60.5 265t-60.5 276q0 180 115 279t283 99q37 0 36.5 -40.5t-36.5 -40.5h-4q-131 -2 -221.5 -80t-90.5 -217q0 -84 59.5 -260.5t61.5 -282.5q0 -57 99.5 -209t195.5 -274q20 2 143 28.5t201 26.5t238.5 -65.5 t234.5 -65.5q123 0 192.5 54t90.5 54q35 0 35 -37q0 -47 -96 -100t-196 -53t-262.5 65.5t-238.5 65.5t-208 -28.5t-198 -31.5q-119 -76 -313 -76t-315 38q-39 8 -91 8t-114 -31q-131 -59 -379 -59q-178 0 -303 73q-68 -4 -204 -45t-224 -41t-254 83t-238 83t-122 -23.5 t-74.5 -50t-48 -50t-39.5 -23.5zM1391 14q0 174 138 174q71 0 275.5 -14t301.5 -14t285.5 31.5t242.5 31.5q96 0 110.5 -58t14.5 -116q0 -188 -191 -188q-94 0 -180 -72t-86 -213q0 -149 -94 -155.5t-144 -6.5q-93 0 -166 21.5t-73 124.5q0 158 -61.5 219t-219.5 61 q-72 0 -112.5 47t-40.5 127z" glyph-name="M" horiz-adv-x="4032" unicode="M"/><glyph d="M1757 -391q66 0 109 44t43 96t-33 99q-14 23 -14 33q0 37 41 37q23 0 41 -22q51 -68 51 -151t-66.5 -150.5t-171.5 -67.5q-139 0 -256 170l-436 635q-184 -139 -326 -393q-12 -23 -77 -23q-168 0 -293 -86t-232 -221q-16 -20 -30.5 -20.5t-18.5 22.5q-47 229 -47 457 q0 340 117.5 626.5t345.5 456.5l-119 172q-10 17 -10 31t12.5 25.5t30.5 11.5t35 -21l118 -174q248 154 567 154t586 -112.5t412 -205.5q16 -10 13 -29.5t-19 -25.5q-219 -84 -300 -138t-183 -255q-18 -39 -54 -45q-90 -18 -227 -63.5t-231 -100.5l434 -631 q92 -135 188 -135z" glyph-name="N" horiz-adv-x="2191" unicode="N"/><glyph d="M1645 698q0 260 120.5 482.5t334.5 354.5t470 132q391 0 649.5 -266t258.5 -662q0 -260 -121 -481t-336 -353t-471 -132q-391 0 -648 265t-257 660zM2607 1849q-16 0 -28.5 12.5t-12.5 34.5q12 133 33.5 402.5t34.5 404.5q12 33 41 33q35 0 41 -39q-12 -133 -34 -403.5 t-34 -403.5q-6 -41 -41 -41zM2086 -291q20 0 31 -11.5t11 -25.5t-6 -26q-115 -201 -327 -569.5t-271 -471.5q-20 -16 -36 -16t-27 11.5t-11 23.5t4 24q90 158 292 507.5t306 533.5q14 20 34 20zM1562 203q14 0 27 -11.5t13 -29.5t-17 -33q-109 -84 -342 -243.5t-348 -250.5 q-9 -4 -23 -4t-26 11.5t-12 28.5t10 30q106 82 340.5 243t349.5 251q14 8 28 8zM1292 782q0 -37 -43 -41l-1173 11q-35 8 -35 40.5t35 41.5l1173 -11q43 -4 43 -41zM1634 1351q0 -17 -12 -28.5t-28 -11.5t-29 8q-100 76 -306 209t-301 203q-10 12 -10 30q0 39 39 39 q15 0 23 -4l606 -412q18 -16 18 -33zM2156 1819q-20 0 -32 18q-29 53 -196 364.5t-257 475.5q-4 12 -4 20q0 39 39 39q20 0 35 -14q116 -211 452 -840q16 -31 -0.5 -47t-36.5 -16zM2587 -426q16 0 28.5 -12.5t12.5 -34.5q-12 -133 -34 -402.5t-34 -404.5q-12 -33 -41 -33 q-35 0 -41 39q12 135 34 403.5t34 403.5q6 41 41 41zM3066 1751q0 14 6 27q324 567 598 1040q20 16 36 16t27 -11t11 -23t-4 -25q-90 -158 -292 -507t-306 -533q-14 -21 -34 -21t-31 11.5t-11 25.5zM3632 1221q-14 0 -27 11.5t-13 29.5t17 32q109 84 342 244t348 250 q8 4 22 4t26.5 -11.5t12.5 -28.5t-10 -30q-106 -82 -340.5 -242.5t-349.5 -250.5q-14 -8 -28 -8zM3901 641q0 14 11.5 26.5t31.5 14.5l1174 -10q35 -10 35 -41t-35 -41l-1174 10q-43 2 -43 41zM3599 113q15 0 30 -9q100 -76 306 -209t300 -202q10 -12 11 -31q0 -39 -39 -39 q-14 0 -23 4q-100 76 -306 208t-300 204q-18 15 -18 33t12 29.5t27 11.5zM2994 -432q0 14 12 25.5t32 11.5t32 -19q29 -53 195.5 -364.5t257.5 -474.5q4 -12 4 -21q0 -39 -39 -39q-20 0 -35 15q-459 835 -459 866z" glyph-name="O" horiz-adv-x="5193" unicode="O"/><glyph d="M41 1346q0 109 97.5 169.5t230.5 84t270 28t272 4.5q136 0 313 -35.5t315 -113t138 -181.5t-63 -329q184 123 291 123q129 0 129 -125q0 -102 -94.5 -257t-282 -359t-338.5 -339q-10 -68 -10 -112q0 -121 -144.5 -187.5t-320.5 -66.5t-292 22.5t-203 84t-87 157.5 q0 190 -110.5 761t-110.5 668v3zM1952 971q0 43 -47 43q-115 0 -328 -168q-16 -53 -104.5 -311.5t-120.5 -376.5q600 575 600 813zM705 1935q0 -18 -13.5 -29.5t-29.5 -11.5q-39 0 -39 35q0 47 -74 74t-107.5 71t-33.5 99t23.5 92t58 63.5t92 71.5t57.5 114t-94 95.5 t-137 78.5t-43 138q0 41 40.5 45t40.5 -45t28 -81.5t68 -48t80 -32t67.5 -54.5t27.5 -100t-36 -112.5t-115 -98.5t-79 -106q0 -59 34 -89.5t75 -42t75 -42.5t34 -84zM1077 3046q0 -18 -20 -33q-135 -92 -135 -189q0 -47 34.5 -80.5t77.5 -53t78 -60.5t35 -106t-71.5 -145.5 t-71.5 -133.5q-6 -41 -41 -41q-16 0 -28.5 12t-12.5 35q0 70 71.5 148.5t71.5 123.5t-36 76t-80 51.5t-79.5 63t-35.5 110.5t56 150.5t128 109.5q23 12 41 -4t18 -34z" glyph-name="P" horiz-adv-x="2074" unicode="P"/><glyph d="M41 1530q0 110 118 198.5t605 88.5q203 0 397 -82q156 303 316 628q23 31 52.5 17.5t22.5 -49.5q-98 -201 -317 -633q156 -88 156 -205q0 -188 -102.5 -804.5t-102.5 -784.5q0 -121 -144.5 -187.5t-320.5 -66.5t-292 22.5t-203 84t-87 157.5q0 190 -49 796.5t-49 819.5z " glyph-name="Q" horiz-adv-x="1595" unicode="Q"/><glyph d="M1890 -819q-102 0 -102 135q0 367 196.5 592t538.5 227q90 82 215 148q-158 6 -420 26.5t-370 24.5q-227 8 -416 -236q-4 -172 -101.5 -355t-219 -292.5t-205.5 -109.5q-111 0 -111 135q0 311 161 490t414 188q119 137 244 200q-541 55 -651 60q-23 -94 -122 -155.5 t-243 -61.5t-304.5 59t-256.5 138t-96 137t102.5 117t240.5 93.5t249 34.5q221 0 322.5 -70.5t111.5 -209.5q171 -7 430.5 -34.5t305.5 -31.5t158 -14t175 -15q-84 51 -160 119q-342 2 -538.5 227.5t-196.5 591.5q0 135 102 136q92 0 208 -73t218.5 -189.5t174 -284.5 t77.5 -340q217 -201 445 -209q725 -27 758 -27q-117 59 -234 162q-154 4 -312.5 90t-271 208t-184.5 256t-72 237q0 133 111 133q63 0 190 -84t257.5 -207t230.5 -284t106 -292q248 -217 465 -219q264 -2 742 23q-143 70 -275 184q-137 12 -324.5 170t-322.5 367t-135 352 q0 100 90 100q362 0 555 -259t197 -675q256 -229 475 -227q178 3 430 24t319 25q-113 53 -215 148q-154 6 -294 103t-234 244.5t-150.5 317.5t-56.5 324q0 113 117 113t276.5 -161t277.5 -410t122 -474q208 -190 424 -186t726.5 39.5t796.5 35.5q58 0 58 -41t-58 -40 q-250 0 -1011 -46q-221 -4 -431 -186q-4 -223 -121.5 -472t-276.5 -408.5t-275 -159.5t-117 112q0 154 56.5 325t150.5 317.5t235.5 244.5t294.5 103q66 53 152 106l-404 -27q-248 -16 -378 -57t-300 -186q-4 -416 -197.5 -674t-553.5 -258q-90 0 -90 100q0 143 135 352 t322.5 366t324.5 169q82 78 209 152q-416 -29 -654 -34t-483 -222q-6 -131 -106.5 -291t-230.5 -284t-257 -208t-190 -84q-111 0 -111 133q0 100 72 234.5t184.5 255.5t270 208t311.5 91q109 94 217 153q-115 -4 -147 -4l-639 4q-223 0 -445 -208q-6 -170 -77.5 -338 t-174 -285t-218.5 -189.5t-208 -72.5z" glyph-name="R" horiz-adv-x="7149" unicode="R"/><glyph d="M4393 1573q0 -190 80 -391t227.5 -348.5t319.5 -165.5q-12 199 -115.5 422t-241 368.5t-241.5 145.5q-29 0 -29 -31zM4930 -741q104 0 241 145t240.5 368.5t116.5 422.5q-172 -18 -319.5 -166t-227.5 -348.5t-80 -391.5q0 -30 29 -30zM3277 1446q0 -125 114.5 -307.5 t276.5 -325.5t287 -168q-10 393 -185.5 607t-484.5 214q-8 0 -8 -20zM3875 -735q309 0 484 214t186 607q-125 -25 -287 -168t-276.5 -325.5t-114.5 -307.5q0 -20 8 -20zM987 463q0 231 -336 231q-172 0 -350 -52t-178 -110q0 -72 191.5 -162.5t394.5 -90.5q119 0 198.5 53 t79.5 131zM1323 1339q0 -324 163 -523.5t453 -213.5q-8 152 -71.5 302.5t-151.5 255t-185 169t-173 64.5q-35 -1 -35 -54zM1905 -737q76 0 173 64.5t185 169t151.5 254t71.5 300.5q-291 -14 -453.5 -212.5t-162.5 -522.5q0 -53 35 -53zM2232 1305q0 -121 100.5 -280 t274.5 -286t354 -141q-14 117 -106 257t-205 247.5t-223.5 180.5t-165.5 73q-29 0 -29 -51zM2855 -719q55 0 165.5 73t223.5 180.5t205 247.5t106 257q-180 -16 -354 -143t-274.5 -285t-100.5 -279q0 -51 29 -51zM1006 -578q53 0 125.5 56.5t140 144.5t118 209t58.5 238 q-215 -14 -343 -166t-128 -428q0 -54 29 -54zM7109 489q0 -41 -58 -40q-250 0 -1011 -46q-221 -4 -431 -186q-4 -223 -121.5 -472t-276.5 -408.5t-275 -159.5t-117 112q0 154 56.5 325t150.5 317.5t235.5 244.5t294.5 103q66 53 152 106l-404 -27q-256 -16 -338 -39 q-147 -41 -340 -204q-4 -416 -197.5 -674t-553.5 -258q-90 0 -90 100q0 143 135 352t322.5 366t324.5 169q82 78 209 152q-416 -29 -654 -34t-483 -222q-6 -131 -106.5 -291t-230.5 -284t-257 -208t-190 -84q-111 0 -111 133q0 100 72 234.5t184.5 255.5t270 208t311.5 91 q109 94 217 153q-147 -4 -360 -4t-426 4q-129 -2 -246 -67.5t-199 -140.5q-6 -170 -77.5 -338t-174 -285t-218.5 -189.5t-208 -72.5q-102 0 -102 135q0 367 196.5 592t538.5 227q90 82 215 148q-317 12 -790 51q-137 -2 -244 -77t-172 -159q-4 -172 -101.5 -355t-219 -292.5 t-205.5 -109.5q-111 0 -111 135q0 311 161 490t414 188q119 137 244 200q-541 55 -651 60q-23 -94 -122 -155.5t-243 -61.5t-304.5 59t-256.5 138t-96 137t102.5 117t240.5 93.5t249 34.5q221 0 322.5 -70.5t111.5 -209.5q171 -7 430.5 -34.5t305.5 -31.5t158 -14t175 -15 q-84 51 -160 119q-342 2 -538.5 227.5t-196.5 591.5q0 135 102 136q92 0 208 -73t218.5 -189.5t174 -284.5t77.5 -340q223 -205 445 -207v-2q446 -25 758 -27q-117 59 -234 162q-154 4 -312.5 90t-271 208t-184.5 256t-72 237q0 133 111 133q63 0 190 -84t257.5 -207 t230.5 -284t106 -292q242 -213 465 -219q362 2 742 23q-143 70 -275 184q-137 12 -324.5 170t-322.5 367t-135 352q0 100 90 100q362 0 555 -259t197 -675q246 -221 475 -227q211 12 749 49q-113 53 -215 148q-154 6 -294 103t-234 244.5t-150.5 317.5t-56.5 324 q0 113 117 113t276.5 -161t277.5 -410t122 -474q199 -182 411 -186q1182 76 1536 75q58 0 58 -41z" glyph-name="S" horiz-adv-x="7149" unicode="S"/><glyph d="M41 301q0 41 37 41q751 0 1448.5 86t1218 186.5t1147 272.5t1243 396t1311.5 550t1363 717q16 4 23 2q32 -6 32 -32t-16 -42q-229 -137 -401 -231q0 -170 -13.5 -508t-13.5 -514q-6 -41 -39 -41q-14 0 -31 10q-123 100 -364.5 314t-366.5 315q-225 -109 -557 -250 q-12 -174 -47 -519t-47 -517q-6 -41 -41 -41q-12 0 -29 10q-117 129 -344 372.5t-332 360.5q-258 -94 -544 -190q-23 -162 -87.5 -517.5t-88.5 -531.5q-6 -39 -41 -39q-20 0 -37 19q-102 135 -322.5 397t-322.5 397q-274 -74 -531 -135q-221 -727 -328 -1038 q-14 -27 -35 -27t-40 20q-103 166 -325 510t-222 347q-381 -66 -631 -97l-448 -958q-16 -27 -37 -26.5t-39 20.5q-117 244 -408 886l-657 -16q-16 -2 -26.5 11.5t-10.5 29.5z" glyph-name="T" horiz-adv-x="7905" unicode="T"/><glyph d="M41 936q0 24 15.5 34.5t33.5 2.5l1667 -791q17 -6 17 -28t-12.5 -36.5t-28.5 -8.5l-1661 788q-31 15 -31 39zM2225 162q-24 0 -36 33l-673 1964q-8 20 2 39.5t38 19.5t35 -27l678 -1978q6 -20 -7 -35.5t-37 -15.5zM2609 268q0 12 4 25l752 1612q10 20 36.5 20t36 -19.5 t-0.5 -37.5l-748 -1608q-11 -24 -33 -24t-34.5 10t-12.5 22zM2867 152q0 22 23 32l1497 615q29 10 45 -0.5t16 -34.5t-30 -35l-1506 -620q-18 -6 -31.5 7.5t-13.5 35.5z" glyph-name="U" horiz-adv-x="4489" unicode="U"/><glyph d="M1446 696q0 88 33.5 130t124.5 42h43q82 0 114.5 -32.5t32.5 -137.5q0 -430 -180 -696q112 -37 182 -47t105.5 -44t35.5 -104v-104q0 -74 -37.5 -97.5t-70.5 -19.5q-205 12 -436 111q-111 -139 -284 -215t-353 -76q-315 0 -515 193.5t-200 490.5q0 205 82 349.5 t233 258.5q-147 296 -147 524t150.5 403t414.5 175t407.5 -142.5t143.5 -362.5t-149 -379t-373 -295q211 -279 500 -465q143 242 143 540zM1243 1286q0 193 -123 312.5t-348 119.5t-353 -151t-128 -353t135 -463.5t345 -489.5t490.5 -397t544.5 -198q25 -5 37 18t12 54v31 q0 86 -73 102q-250 55 -495 207.5t-420 344t-283.5 405.5t-108.5 391q0 125 78 220t216 95t214 -69.5t76 -178.5q0 -147 -112.5 -251.5t-270.5 -209.5l-2 -2q33 -59 84 -135q485 290 485 598zM123 90q0 -262 177 -432t456 -170q154 0 306 64.5t253 183.5q-86 41 -164 92 q-154 -156 -395 -156q-197 0 -323 119t-126 299q0 129 47.5 213t139.5 168q-66 94 -97 152q-274 -215 -274 -533zM389 90q0 -145 102.5 -240.5t280.5 -95.5t307 123q-301 209 -538 529q-78 -74 -115 -141.5t-37 -174.5zM557 1219q0 -143 80 -320q261 171 300.5 250t39.5 145 t-55.5 112t-154.5 46t-154.5 -70.5t-55.5 -162.5zM1634 786h-28q-49 0 -64.5 -25.5t-17.5 -94.5q-19 -330 -148 -555q70 -39 164 -82q68 96 107 227t48 217t15 213q0 59 -11 79.5t-65 20.5z" glyph-name="V" horiz-adv-x="1978" unicode="V"/><glyph d="M3369 220q0 -16 -48 -50.5t-118 -78.5t-94 -62q76 -231 78 -293q0 -12 -10.5 -21.5t-24.5 -9.5t-27.5 23.5t-27 63.5t-22.5 77t-12 49l-24 96l-131 52q62 -200 62 -230t-9.5 -39.5t-24 -9.5t-34 30.5t-82.5 282.5l-131 52q63 -201 64 -254q0 -27 -31 -31q-43 0 -78 152.5 t-39 164.5q-31 12 -146.5 57.5t-183.5 71.5q-119 -184 -399 -503q-2 -2 -48 -57.5t-66.5 -75t-63.5 -45t-84 -25.5q-80 0 -154 74q-115 115 -208 214t-202.5 237t-184 261t-128 267.5t-57.5 273.5q-10 4 -551 215q4 -51 47 -164t43 -145t-31 -33q-37 0 -92 170t-55 240 q0 47 166 146t201 99t34 -28q0 -16 -54 -51t-128 -79t-104 -75q35 -14 524 -207q14 272 146 408.5t362 136.5q436 0 500 -527q39 166 143 268.5t274 102.5t283 -120t113 -308q0 -287 -185 -600l324 -127q211 164 260 164q12 0 23.5 -10.5t11.5 -22.5t-12.5 -26.5t-40 -34 t-48 -32.5t-59.5 -38t-53 -33l131 -51q25 16 121 91t135 75q18 0 30.5 -10.5t12.5 -21.5t-13.5 -26.5t-40 -34t-50 -34.5t-59.5 -37.5t-54 -34.5l131 -51q36 24 133 96t133 72q12 0 24.5 -10t12.5 -26zM1253 770q0 -29 -20.5 -37t-38.5 2l-430 166q24 -289 207.5 -531.5 t284 -356t235.5 -251.5q74 -74 123 -73q28 0 52 19.5t44 36.5t57 62t106 123q165 187 355.5 473t190.5 580q0 152 -89 249t-225 97q-178 0 -267 -138t-89 -339q0 -86 -14.5 -118t-44.5 -32q-70 0 -70 140q0 643 -432 643q-199 0 -309.5 -123t-116.5 -371q217 -88 450 -176 q41 -16 41 -45z" glyph-name="W" horiz-adv-x="3409" unicode="W"/><glyph d="M859 82q-17 0 -33.5 -18.5t-30 -42t-44 -42t-71.5 -18.5q-168 0 -320.5 165t-235.5 388t-83 434t120 364.5t308 153.5q100 0 160.5 -50t100.5 -118.5t69 -87.5q12 225 118.5 350.5t264.5 125.5q47 0 47 -41t-47 -41q-125 0 -209 -104.5t-92 -295.5q35 12 69.5 57.5 t62 89.5t87 79.5t137.5 35.5q188 0 308 -153.5t120 -380.5q0 -176 -83 -399.5t-236.5 -397.5t-319.5 -174q-41 0 -68.5 18.5t-39 42t-27 42t-32.5 18.5zM860 164q53 0 94 -60.5t90 -60.5q131 0 260.5 158.5t204 365.5t74.5 383t-96 305t-250 129q-106 0 -156.5 -67.5 t-99 -134t-135.5 -66.5q-57 0 -102.5 42t-71 92t-78.5 92t-125 42q-154 0 -250 -130t-96 -314t74.5 -390t203.5 -356.5t261 -150.5q47 0 96 60.5t102 60.5z" glyph-name="X" horiz-adv-x="1705" unicode="X"/><glyph d="M2124 668q27 0 37 -15.5t10 -52.5q0 -147 -67.5 -271t-161.5 -161q684 -379 1689 -379q57 0 57 -41t-57 -41q-762 0 -1372 232q-20 -123 -181 -202t-413 -79q-66 0 -66 41q0 74 140.5 184.5t288.5 153.5q-307 147 -568 362q-10 -100 -109.5 -170.5t-238.5 -70.5 t-217 26.5t-78 63.5q0 104 155.5 205.5t305.5 115.5q-264 266 -457 617q-51 -82 -161 -82t-217 48t-169.5 99.5t-62.5 73.5q0 37 113.5 97.5t207.5 60.5t156 -23q-137 324 -207 703q-37 -29 -125 -29t-201.5 80t-113.5 153q0 49 79 78t171 29t153 -43q-16 164 -16 295 q-59 25 -90 93.5t-29 144.5t42 191.5t95 121.5q51 0 108.5 -101.5t63.5 -257.5q0 -154 -108 -196q6 -393 96 -760q51 88 142.5 163t162.5 75q53 0 54 -86q0 -195 -86 -301.5t-168 -106.5q-23 0 -31 2q127 -391 344 -711q27 141 157 256t257 115q41 0 41 -45 q0 -170 -103.5 -324.5t-212.5 -189.5q246 -299 611 -545q0 158 100 281t250 123zM1380 415q0 75 -63 74q-82 0 -182.5 -44t-165 -96t-64.5 -81q70 -28 196 -28t202.5 50t76.5 125zM636 1186q130 0 130 93q0 44 -59.5 83t-149.5 39q-143 0 -238 -78q48 -48 149.5 -92.5 t167.5 -44.5zM1102 942q0 -57 28 -57q63 0 165 140t102 253q-86 0 -190.5 -113.5t-104.5 -222.5zM2140 -27q-119 0 -241.5 -77.5t-202.5 -165.5q203 12 342 81.5t139 141.5q0 20 -37 20zM893 2126q-51 0 -144 -101t-93 -169t53 -68t118.5 78.5t65.5 259.5zM543 2936 q0 58 -30 150t-60 111q-72 -129 -72 -227q-2 -55 21.5 -110.5t74.5 -55.5q66 8 66 132zM1855 283q0 -45 25 -45q61 0 137 116.5t76 225.5q-96 0 -167 -93t-71 -204zM449 2281q0 49 -46.5 80t-124.5 31t-151 -37q18 -51 92 -95t152 -44t78 65z" glyph-name="Y" horiz-adv-x="3729" unicode="Y"/><glyph d="M1264 846q-43 0 -43 49q0 195 140 327t364 132t407 -135q164 158 383 157q274 0 459.5 -182t185.5 -467t-142.5 -450.5t-294 -230t-321.5 -64.5t-337 58t-318.5 141t-304 166t-327.5 141.5t-337 58.5q-299 0 -477 -202t-178 -515q0 -215 136 -357.5t341 -142.5 q57 0 119 21q-137 195 -137 448q0 133 63 229.5t177 96.5t186.5 -84.5t72.5 -230.5t-62.5 -279t-174.5 -209q61 -72 169.5 -168t190.5 -175t211 -244.5t129 -510.5q0 -274 -175 -474.5t-429 -200.5q-135 0 -238.5 43t-188.5 147t-85 292t88 314.5t268 126.5 q121 0 224.5 -104.5t103.5 -243.5q0 -51 -41 -51t-41 51q0 106 -78 186t-168 80q-139 0 -206.5 -104.5t-67.5 -262t105.5 -275.5t324.5 -118t370.5 176.5t151.5 417.5q0 323 -126 480t-207.5 234t-188 173t-168.5 170q-82 -33 -172 -33q-238 0 -398.5 167t-160.5 415 q0 348 200.5 573.5t536.5 225.5q176 0 355.5 -58.5t329 -141.5t397.5 -224.5t524 -141.5q168 0 304 57.5t263 205t127 398.5t-161.5 410.5t-401.5 159.5q-178 0 -322 -129q139 -139 140 -307q0 -106 -46.5 -158.5t-144.5 -52.5t-137 66.5t-39 144.5q0 160 111 299 q-153 115 -347 115t-312 -109.5t-118 -267.5q1 -49 -36 -49zM664 -201q0 -231 131 -413q98 63 151 178.5t53 233.5t-50 181.5t-126 63.5t-117.5 -73t-41.5 -171zM2138 729q113 0 113 132t-113 245q-90 -119 -90 -248q0 -47 20.5 -88t69.5 -41z" glyph-name="Z" horiz-adv-x="3201" unicode="Z"/><glyph d="M543 1159v6q4 113 86 203t217 90t213 -93t78 -218q0 -31 -11 -68q94 -39 94 -97t-182 -71q-55 -68 -129 -135q55 -35 363 -217t411 -266q127 -100 127 -166q0 -104 -189 -138t-627 -34t-627 18.5t-257.5 55.5t-68.5 110t117 171.5t321 240.5q203 142 316 235 q-41 45 -41 86q0 84 227 101q25 31 41 63l-82 15q-37 8 -37 36q0 47 49 40t99 -21q4 29 4 41q0 90 -57.5 159.5t-151.5 69.5t-155.5 -65.5t-65.5 -145.5v-6q0 -41 -41 -41t-41 41zM123 131q1 -94 803 -94t803 90q0 27 -32 57.5t-55.5 50t-61.5 45t-94 62.5t-312 189 t-318 200q-135 -113 -297 -225q-218 -150 -327 -235.5t-109 -139.5zM842 827q55 51 80 78q-102 -10 -103 -43q0 -12 23 -35zM1149 995q0 12 -43 23q-2 -6 -23 -41q66 6 66 18z" glyph-name="a" horiz-adv-x="1851" unicode="a"/><glyph d="M3201 -825q0 -16 -12.5 -28.5t-30.5 -12.5t-43 28t-82 88t-233.5 237t-350.5 341t-413.5 368.5t-450.5 358.5h-22q-14 0 -21 2l-121 -59q-193 -129 -518 -459t-555 -596l-229 -264q-20 -25 -39 -25q-39 0 -39 37q1 20 21 45t112.5 137t399.5 446.5t556 549.5 q-226 -86 -472 -86t-393.5 102t-147.5 296t116.5 302.5t393.5 108.5q334 0 915 -410q23 6 36 6t34 -4q743 391 985 391t372 -114.5t130 -305.5q0 -233 -135.5 -340.5t-391.5 -107.5t-678 211q285 -229 607.5 -532.5t441.5 -426.5t189 -195t69 -89zM2599 993 q-98 0 -272.5 -63.5t-311.5 -131t-336 -171.5q4 -11 4 -15v-8l-2 -4q557 -311 881 -311q225 0 340 87t115 279q0 152 -108.5 245t-309.5 93zM627 1010q-233 0 -330.5 -87t-97.5 -241t125.5 -235.5t331.5 -81.5t368 49.5t379 160.5q35 23 84 46v4q-553 385 -860 385z" glyph-name="b" horiz-adv-x="3241" unicode="b"/><glyph d="M899 291q0 -23 45 -65t90 -94t45 -90t-14 -60.5t-47 -35t-68 -22.5t-58 -10h-136q-150 -100 -150 -281q0 -106 93 -213.5t612 -107.5q518 0 721.5 -184t203.5 -494q0 -269 131.5 -463t208 -309t131 -261.5t54.5 -306.5t-30 -291.5t-64.5 -209.5t-64.5 -231.5t-30 -358.5 q0 -49 -41 -49t-41 49q0 197 30 353.5t94.5 317.5t64.5 432t-131 458.5t-208 299t-131.5 259t-54.5 311.5q0 283 -192.5 439.5t-648.5 156.5t-586.5 82t-166.5 152.5t-36 168.5q0 164 113 285q-127 10 -127 96q0 47 63.5 146.5t63.5 111.5q0 72 -61.5 147t-148.5 151.5 t-175 166.5t-149.5 229.5t-61.5 293.5t41 281.5t123 234t223.5 169t315.5 62.5t307 -66.5t250.5 -230t117.5 -410.5q0 -164 -53 -308t-130 -241.5t-153.5 -179.5t-130 -152.5t-53.5 -127.5zM817 305q0 49 39 115.5t96.5 125t125 137.5t125 160t96 201t38.5 240t-35.5 227 t-103.5 201t-184 153.5t-270 59.5t-279 -55t-233.5 -198t-108.5 -402q0 -214 104 -362.5t213 -247.5t194 -187.5t85 -200.5q0 -43 -63.5 -129t-63.5 -129q0 -18 203 -18t202 37q0 54 -90 122.5t-90 149.5z" glyph-name="c" horiz-adv-x="2801" unicode="c"/><glyph d="M926 1389q31 0 69.5 -71t69.5 -214.5t31 -327.5t-55.5 -348t-196.5 -317.5t-375 -145.5q-66 6 -70 6q-47 -231 -47 -428q0 -23 -11 -36t-28 -13q-43 0 -43 49q0 217 52 451q-135 49 -208 175.5t-73 286.5t59.5 296.5t202 285.5t354.5 250t269 101zM1014 770 q0 332 -80 483q-99 -152 -219.5 -400.5t-192.5 -451.5q93 70 126 95l138 108q12 10 27 10q33 0 33 -32t-35 -58q-213 -160 -332 -254q-43 -139 -61 -219q33 -4 51 -4q213 -4 379 193.5t166 529.5zM123 468q0 -142 55 -247.5t162 -148.5q61 250 164 501l-49 369q-4 20 7 37.5 t34 17.5q37 0 41 -39l30 -233q137 307 289 559q-151 -41 -293.5 -139t-230.5 -187.5t-148.5 -218.5t-60.5 -271z" glyph-name="d" horiz-adv-x="1136" unicode="d"/><glyph d="M1542 90q0 511 -266 914q-134 -90 -330 -90t-364 66.5t-285 168.5t-186.5 226t-69.5 239q0 152 201 151q59 0 137 -22q-33 152 -33 227q0 199 168 199q109 0 270 -101q14 190 136 191q84 0 182 -65.5t182 -172t140.5 -260t56.5 -311.5q0 -262 -146 -401 q129 -193 209 -434.5t80 -489.5q0 -61 -4 -168q123 387 227 626t214.5 382t224.5 143q176 0 176 -240q0 -143 -109.5 -385.5t-245 -463t-336 -505.5t-376.5 -509q-78 -172 -173.5 -316.5t-152.5 -204.5l-55 -57q-20 -20 -36 -20t-29 10.5t-13 28.5t22 40t61.5 64.5t141 195 t178 327.5t140 460t63.5 557zM956 1452q0 -47 -28 -47q-8 0 -29 10l-25 15q-25 14 -65.5 38.5t-131 71.5t-211 95t-232.5 48q-111 0 -111 -69q0 -100 63.5 -210t169 -201t258 -149.5t318.5 -58.5t316.5 90.5t150.5 390.5q0 162 -81 335.5t-191.5 269.5t-206.5 96 q-54 -1 -54 -139t45 -356t45 -230zM2380 878q0 148 -96 148t-205 -162t-201 -407.5t-168 -486t-137.5 -452.5t-79.5 -253q274 361 484 692.5t306.5 552t96.5 368.5zM514 2087q-86 0 -86 -117q0 -90 43 -258q201 -72 401 -201q-78 272 -90 457q-162 119 -268 119z" glyph-name="e" horiz-adv-x="2502" unicode="e"/><glyph d="M3678 711q-168 55 -168 293q0 114 71 223.5t164 172t170 98.5t101 36t50 -40t46.5 -123t20.5 -181q0 -233 -113.5 -364.5t-259.5 -127.5q-23 -104 -26 -176q215 199 391 205q72 131 266 131q123 0 232.5 -70.5t172 -164t98.5 -170.5t36 -101t-40 -50t-123 -46t-182 -20 q-236 0 -365.5 113.5t-125.5 260.5q0 23 2 33q-256 -39 -612 -537q106 -47 227 -124q73 82 185 82t203 -59.5t172 -204t81 -359.5q0 -61 -8 -82q-10 -33 -126 -33t-250 56.5t-229.5 167t-95.5 243.5q0 68 25 119q-115 76 -234 125q-180 -264 -377.5 -639t-274.5 -544 t-128 -290q-49 -180 -117.5 -346t-165 -334.5t-165.5 -246.5l-33 -37q-17 -20 -35 -20t-30.5 11t-12.5 27q1 16 17 34t37.5 43.5t82 114.5t115.5 190.5t204.5 468t149.5 1074.5q0 264 -61 543l-2 -2q-46 46 -148 118t-195 122.5t-231.5 96.5t-273.5 56q6 -102 29 -217 q145 2 258.5 -128t113.5 -363q0 -98 -20.5 -181.5t-46.5 -123t-50 -39.5t-101 35.5t-170 98t-163.5 172t-70.5 223.5t43 189.5t125 102.5q-23 123 -29 235q-129 -4 -254 -30v-2q2 -2 2 -5q4 -147 -126 -260.5t-365 -113.5q-98 0 -181.5 20.5t-123 46t-39.5 49.5t35.5 101.5 t98 170.5t172 163.5t232.5 70.5q219 0 279 -162q147 33 284 33t280.5 -35.5t306 -118t298.5 -190.5q-117 418 -348 791.5t-516 631.5q-106 -45 -215 -116q25 -63 24 -119q0 -133 -95 -243.5t-229 -167t-250 -56.5t-126 33q-8 20 -8 102t27.5 187.5t81 201t144.5 154.5 t201 59t187 -82q102 68 188 109q-387 322 -712 321q-43 0 -87 -6q0 -182 -141 -285.5t-348 -103.5q-98 0 -181 20.5t-123 46t-40 50.5t36 101.5t98.5 169.5t172 164t232.5 71q211 0 276 -154q70 8 140 8t198 -39q6 119 27 220q-168 54 -168 292q0 114 70.5 224t163.5 172.5 t170 98.5t101 36t50 -40t46.5 -123t20.5 -181q0 -233 -113.5 -364.5t-258.5 -127.5q-27 -123 -29 -235q264 -104 536.5 -355t491.5 -595q29 258 144.5 441t246.5 193q72 131 266 131q123 0 232.5 -70.5t172 -163.5t98.5 -170t36 -101t-40 -50t-123 -46.5t-181 -20.5 q-236 0 -366 113.5t-126 261.5q0 18 2 28q-111 -39 -197.5 -232.5t-88.5 -438.5q406 -705 405 -1422q0 -319 -49 -614q481 1047 916 1509q0 133 28 273zM4585 317q137 0 234 21q-209 166 -416 250l76 -101q14 -16 14 -34q0 -37 -39 -37q-27 0 -41 22l-118 187 q-51 14 -115 20q-4 -25 -4 -39q-4 -113 104 -201t305 -88zM3154 1315q111 0 227 24q-205 164 -409 246l75 -100q14 -16 15 -35q0 -37 -39 -37q-27 0 -41 23l-119 186q-51 14 -115 20q-4 -25 -4 -38q-4 -113 104.5 -201t305.5 -88zM1135 2572q0 -156 104 -202q35 137 88 278 l-29 176q-4 27 8.5 42.5t32.5 15.5q37 0 41 -37l4 -58q61 141 107 219q-114 -48 -198.5 -123t-121 -151t-36.5 -160zM3592 995q0 -156 105 -202q35 137 88 278l-29 176q-4 27 8.5 42.5t32.5 15.5q37 0 41 -37l4 -58q61 141 107 220q-112 -47 -197.5 -123t-122.5 -152 t-37 -160zM1651 -37q0 -84 36.5 -159.5t122.5 -153t197 -121.5q-45 78 -106 219l-5 -57q-4 -37 -41 -37q-20 0 -32 15t-8 42l28 176q-53 139 -88 277q-104 -43 -104 -201zM1300 1593q-176 0 -277 -162.5t-101 -355.5q72 88 159 178q-55 -16 -66 -16t-23.5 12.5t-12.5 30.5 q0 35 41 43l172 39q111 100 223 184q-47 47 -115 47zM3895 -20q-72 0 -116 -46q119 -86 225 -186l172 -39q41 -8 41 -43q0 -18 -12.5 -30.5t-21.5 -12.5t-71 19q72 -74 162 -179q-2 193 -103.5 355t-275.5 162zM385 1712q197 0 305.5 89t104.5 206q-147 -31 -301 -104 l-76 -146q-12 -23 -41 -22q-39 0 -39 37q0 12 39 73q-100 -53 -199 -121q90 -12 207 -12zM1159 610q-84 0 -159.5 -36.5t-150.5 -118.5t-124 -199q94 51 209 104l-47 5q-37 4 -37 41q0 20 15 32t42 8l164 -28q160 63 287 94q-43 98 -199 98zM580 2171q-88 0 -167 -40 t-154 -127.5t-122 -205.5q186 125 395 211l-63 6q-37 4 -37 41q0 20 15 32.5t42 8.5l195 -35q51 14 88 23q-49 86 -192 86zM965 152q193 0 300 85t109 195l-90 -24l-117 -187q-14 -23 -41 -22q-39 0 -39 37q0 14 15 34l76 101q-223 -80 -441 -203q87 -16 228 -16zM3723 -205 q0 -141 161 -268t343 -139q-176 207 -326 342q33 -127 33 -136t-11 -21.5t-27 -12.5t-29 11t-15 28l-39 206q-72 55 -77 60q-13 -31 -13 -70zM1473 1409q0 37 -13 70l-78 -62l-39 -205q-8 -39 -45 -38q-14 0 -25 12t-11 26.5t30 128.5q-182 -164 -323 -342q184 14 344 141.5 t160 268.5zM1593 2746q0 168 -18 246q-115 -211 -193 -430l93 68q20 14 34 14q37 0 37 -39q0 -27 -22 -41l-176 -110l-27 -97q109 4 190.5 112.5t81.5 276.5zM4051 1170q0 168 -18 245q-115 -211 -193 -430l92 68q20 14 35 14q37 0 37 -39q0 -27 -23 -41l-176 -110l-26 -97 q109 4 190.5 113t81.5 277zM2109 -212q0 166 -81.5 275t-190.5 115l27 -96l176 -111q23 -14 22 -41q0 -39 -37 -39q-14 0 -34 15l-93 67q78 -219 193 -430q18 79 18 245zM4391 776q-111 0 -170 -53q119 -16 254 -78l141 14q27 4 42.5 -8t15.5 -33q0 -41 -37 -40h-27 q121 -70 205 -134q-59 127 -166.5 229.5t-257.5 102.5zM2959 1774q-111 0 -170 -54q119 -16 254 -78l142 15q57 6 57 -41q0 -41 -37 -41h-27q121 -70 205 -133q-59 127 -166.5 229.5t-257.5 102.5z" glyph-name="f" horiz-adv-x="4970" unicode="f"/><glyph d="M549 1567q436 0 500 -527q39 166 143 268.5t274 102.5t283 -120t113 -308q0 -133 -41 -272.5t-95.5 -246t-151.5 -241.5t-161.5 -212t-120.5 -140t-102.5 -118.5t-67 -75t-63.5 -45t-84 -25.5q-80 0 -154 74q-152 150 -268.5 281.5t-314 400.5t-197.5 585t133 467.5 t375 151.5zM1051 702q-70 0 -70 140q0 643 -432 643q-203 0 -314.5 -131t-111.5 -393q0 -305 189.5 -560.5t293 -373t246.5 -265.5q74 -74 123 -73q28 0 52 19.5t44 36.5t57.5 62t105.5 123q165 187 355.5 473t190.5 580q0 152 -89 249t-225 97q-178 0 -267 -138t-89 -339 q0 -86 -14 -118t-45 -32z" glyph-name="g" horiz-adv-x="1902" unicode="g"/><glyph d="M400 1636q157 0 255.5 -101t135.5 -267q59 524 460 524q213 0 330 -141.5t117 -423.5q0 -190 -114 -465t-299 -490t-357 -215q-133 0 -294 122t-289 297t-216 377.5t-88 372.5t101 290t258 120zM791 928q-31 0 -45.5 31.5t-14.5 117.5q0 201 -84 339t-252 138 q-117 0 -194.5 -97t-77.5 -265t135 -423t327.5 -442.5t340.5 -187.5t313.5 203t271 460t105.5 425q0 242 -95.5 362.5t-269.5 120.5q-391 0 -391 -643q1 -139 -69 -139z" glyph-name="h" horiz-adv-x="1738" unicode="h"/><glyph d="M223 1296q51 0 117 -136t66 -226t-51.5 -138t-125.5 -48t-131 48t-57 136t65.5 226t116.5 138zM223 1214q-8 0 -33.5 -52t-49 -120.5t-23.5 -113.5t33.5 -77t74.5 -32t74 32t33 78t-23.5 114.5t-50.5 119.5t-35 51zM555 584q51 0 106.5 -108.5t55.5 -188.5t-49.5 -125 t-119.5 -45t-112.5 44t-42.5 127t55.5 189.5t106.5 106.5zM555 510q-20 0 -56 -82t-36 -145q0 -98 94 -99q35 0 61.5 26t26.5 80t-32.5 137t-57.5 83z" glyph-name="i" horiz-adv-x="757" unicode="i"/><glyph d="M385 1057q0 -41 -41 -41q-76 0 -148.5 -48t-72.5 -132q0 -111 203 -209q36 -18 36 -40t-16 -36q-223 -190 -223 -418q0 -145 99.5 -225t230.5 -80q256 0 508 305q27 31 53 31q49 0 49 -31q0 -160 104.5 -265.5t264.5 -105.5t246.5 116t86.5 276q0 23 2 36t17.5 26 t46.5 13q129 0 225 97.5t96 234.5t-58 200.5t-92 93.5t-102.5 63t-108.5 47t-52.5 23t-12.5 32q0 150 -89 257t-225 107t-217 -75.5t-110 -132.5l-12 -25q-12 -27 -35 -27q-37 0 -37 41q0 98 -83.5 180t-234.5 82t-224.5 -104t-73.5 -266zM41 836q0 109 85 173t187 78 q0 147 81.5 284.5t311.5 137.5q120 0 216 -68.5t137 -164.5q131 190 348 190q178 0 289.5 -128t111.5 -291q426 -156 426 -488q0 -170 -121.5 -293t-263.5 -123q0 -171 -70.5 -276t-156.5 -145.5t-199 -40.5q-162 0 -285.5 101t-144.5 265q-268 -301 -540 -301 q-166 0 -289 100.5t-123 285.5t85 292.5t107 128.5l23 20q-215 118 -215 263z" glyph-name="j" horiz-adv-x="2275" unicode="j"/><glyph d="M41 920q0 61 157.5 81.5t526.5 20.5q174 0 244.5 96t114.5 152.5t124 96.5t200 40t222.5 -53.5t181 -129t161.5 -151.5t210 -129t309 -53t372 48t329 115.5t341 184.5t316 117q128 0 127 -121q0 -66 -71.5 -182.5t-194.5 -253.5t-300 -279.5t-372.5 -258.5t-430 -189.5 t-422.5 -73.5t-308.5 45t-197 119t-141 161t-120 175t-151.5 206.5t-305 118.5q-612 0 -767 13.5t-155 83.5zM109 921q0 -11 336.5 -19.5t488.5 -8.5t249 -45t160.5 -117t120 -158t115.5 -173t130 -158.5t184.5 -116.5t258.5 -45q254 0 526.5 101.5t484.5 250t385 312 t267.5 297t94.5 192.5q0 51 -58 51t-157 -49t-219.5 -118.5t-265 -139.5t-340.5 -119t-382 -49t-320 53t-220 129t-218.5 205t-324.5 129q-94 0 -158.5 -27.5t-95.5 -69.5t-67.5 -91.5t-74.5 -91t-122.5 -69.5t-194.5 -28t-346.5 -8t-236.5 -19zM1724 688q0 41 41 41t41 -41 v-4q0 -137 94 -231.5t282 -94.5t339.5 49.5t250.5 120t175 142t109 121.5l34 49q16 22 40 22t34 -24.5t-3 -43.5t-38.5 -54t-116 -125.5t-191.5 -158t-266 -124t-321 -56.5q-291 0 -397.5 126t-106.5 286zM1194 1104q0 37 30.5 61.5t76.5 24.5t77 -24.5t31 -61.5 t-30.5 -60.5t-76.5 -23.5t-77 23.5t-31 60.5zM1249 1102q0 -14 15.5 -25.5t37.5 -11.5t36 10t14 26.5t-16.5 28t-39.5 11.5q-47 0 -47 -39z" glyph-name="k" horiz-adv-x="4018" unicode="k"/><glyph d="M3863 1356q114 0 114 -132q0 -60 -71.5 -178t-194.5 -255.5t-300 -278.5t-372.5 -255t-430 -186.5t-422.5 -72.5t-308.5 45t-198 119t-141 161t-119 175t-151.5 206.5t-305 118.5q-612 0 -767 13.5t-155 83.5q0 61 157.5 81.5t526.5 20.5q174 0 244.5 96t114.5 152.5 t124 96.5t188 40t199 -39t140 -79t133 -120q4 329 76.5 515t175 261.5t230.5 75.5t217 -68.5t89 -167.5t-104 -179q45 -39 67 -88q153 120 301 120t253.5 -87t105.5 -212q0 -90 -44 -144t-159 -67q14 -43 14 -82t-10 -65q119 50 383 212.5t400 162.5zM2932 1556 q-98 0 -177.5 -37.5t-151.5 -108.5t-145 -160.5t-187 -303t-145 -287.5q-18 -33 -41 -32q-41 0 -41 36t90 211q-100 45 -199.5 128t-164 151t-161 120t-197.5 52t-165.5 -27.5t-95.5 -69.5t-67.5 -91.5t-74.5 -91t-122.5 -69.5t-194.5 -28t-346.5 -8t-236.5 -19t336.5 -19.5 t488.5 -8.5t249 -45t160.5 -117t120 -158t115.5 -173t130 -158.5t184.5 -116.5t291.5 -45t403.5 71.5t414 184.5t359.5 248t289.5 264t188.5 232.5t70 153.5t-45 50q-76 0 -205 -64.5t-249 -143.5t-266.5 -146.5t-250.5 -71.5q-18 -4 -60 -8q35 -59 35 -139t-60.5 -132.5 t-153.5 -52.5t-176 34t-85 71q0 43 35 43q10 0 77.5 -33t135.5 -33t106.5 30t38.5 81t-19.5 88t-38.5 56.5t-19 31.5t47 19.5t102 12.5t102.5 33.5t47.5 81.5t-26 90t-26 46q0 27 82 30.5t120 35.5t38 95q0 90 -83.5 153.5t-181.5 63.5zM2419 1597q0 30 51 56t74.5 57 t23.5 81t-59.5 99t-128.5 49q-442 1 -432 -843q115 -100 225 -150q184 334 379 514q0 37 -66.5 81t-66.5 56zM1194 1104q0 37 30.5 61.5t76.5 24.5t77 -24.5t31 -61.5t-30.5 -60.5t-76.5 -23.5t-77 23.5t-31 60.5zM1249 1102q0 -14 15.5 -25.5t37.5 -11.5t36 10t14 26.5 t-16.5 28t-39.5 11.5q-47 0 -47 -39z" glyph-name="l" horiz-adv-x="4018" unicode="l"/><glyph d="M74 760q-33 0 -33 39q0 57 98.5 123.5t201.5 66.5t265 -83t240 -83t204 35t144 39q309 410 309 499t52.5 270t52.5 310q0 248 -191 248q-61 0 -104 -28.5t-77 -91t-60 -62.5q-35 0 -35 39q0 63 83 144t193 81q272 0 273 -330q0 -119 -52.5 -298.5t-52.5 -283.5t381 -493 q63 25 113 25q59 59 138 142t170 203t93 171q4 96 -58.5 272t-62.5 273q0 180 115 279t283 99q37 0 36.5 -40.5t-40.5 -40.5q-131 0 -221.5 -78t-90.5 -219q0 -84 60.5 -259.5t60.5 -283.5q0 -57 99.5 -209t195.5 -274q20 2 143 28.5t201 26.5t238.5 -65.5t234.5 -65.5 q123 0 192.5 54t90.5 54q35 0 35 -37q0 -47 -96 -100t-196 -53t-262.5 65.5t-238.5 65.5t-208 -28.5t-198 -31.5q-119 -76 -313 -76t-315 38q-39 8 -91 8t-114 -31q-131 -59 -379 -59q-178 0 -303 73q-68 -4 -204 -45t-224 -41t-254 83t-238 83t-122 -23.5t-74.5 -50 t-48 -50t-39.5 -23.5zM1391 14q0 174 138 174q71 0 275.5 -14t301.5 -14t285.5 31.5t242.5 31.5q96 0 110.5 -58t14.5 -116q0 -188 -191 -188q-94 0 -180 -72t-86 -213q0 -149 -94 -155.5t-144 -6.5q-93 0 -166 21.5t-73 124.5q0 158 -61.5 219t-219.5 61q-72 0 -112.5 47 t-40.5 127zM2677 128q0 13 -43 13q-33 0 -224.5 -31.5t-295.5 -31.5t-299 14t-277 14q-66 0 -65 -83q-4 -101 73 -101q203 0 282 -86t79 -276q0 -29 27.5 -44.5t56.5 -17.5t91 -2t100 14.5t38 65.5q0 188 97.5 275.5t262.5 87.5q45 0 71 28.5t26 79.5v81zM2472 880 q180 0 291 70q-174 231 -244 377q-90 -156 -336 -414q109 -33 289 -33zM1546 1282q-74 -145 -243 -377q104 -69 284 -69t293 34q-246 258 -334 412z" glyph-name="m" horiz-adv-x="4032" unicode="m"/><glyph d="M1757 -391q66 0 109 44t43 96t-33 99q-14 23 -14 33q0 37 41 37q23 0 41 -22q51 -68 51 -151t-66.5 -150.5t-171.5 -67.5q-139 0 -256 170l-436 635q-184 -139 -326 -393q-12 -23 -77 -23q-168 0 -293 -86t-232 -221q-16 -20 -30.5 -20.5t-18.5 22.5q-47 229 -47 457 q0 340 117.5 626.5t345.5 456.5l-119 172q-10 17 -10 31t12.5 25.5t30.5 11.5t35 -21l118 -174q248 154 567 154t586 -112.5t412 -205.5q16 -10 13 -29.5t-19 -25.5q-219 -84 -300 -138t-183 -255q-18 -39 -54 -45q-90 -18 -227 -63.5t-231 -100.5l434 -631 q92 -135 188 -135zM700 1124q-135 0 -183 -71.5t-48 -248.5t61.5 -386t167.5 -381q152 244 351 383q139 96 481 190q-162 213 -407.5 363.5t-422.5 150.5zM1172 1268q-242 0 -441 -78q203 -16 452 -166t410 -362q99 179 197 247q61 46 192 92l43 15q-139 86 -375 169 t-478 83zM397 793q0 100 19 172q-291 -326 -291 -902q0 -211 22 -333q54 82 172 164t308 104q-106 176 -168 391t-62 404z" glyph-name="n" horiz-adv-x="2191" unicode="n"/><glyph d="M1647 698q0 260 120.5 482.5t334.5 354.5t470 132q391 0 649.5 -266t258.5 -662q0 -260 -121 -481t-336 -353t-471 -132q-391 0 -648 265t-257 660zM1729 698q0 -362 231.5 -602.5t589.5 -240.5t603 261t245 623.5t-233.5 604t-592.5 241.5q-233 0 -428.5 -121 t-305 -324.5t-109.5 -441.5zM2718 2697l-68 -807q-6 -43 -44 -40t-38 46q12 133 33.5 402.5t34.5 404.5q8 23 26.5 31t35 -2t20.5 -35zM2054 -311q27 35 58.5 14.5t11.5 -57.5q-115 -201 -327 -569.5t-271 -471.5q-27 -27 -54.5 -9t-15.5 52q90 158 292 507.5t306 533.5z M1536 195q37 23 60.5 -7t-9.5 -59q-109 -84 -342 -243.5t-348 -250.5q-33 -14 -53.5 10.5t2.5 55.5q106 82 340.5 243t349.5 251zM1294 782q0 -37 -43 -41l-1173 11q-35 10 -35 40.5t35 41.5l1173 -11q43 -4 43 -41zM1618 1384q33 -29 9.5 -58.5t-60.5 -6.5 q-100 76 -306 209t-300 203q-23 31 -2.5 55t53.5 10q100 -76 306 -208t300 -204zM2195 1882q20 -37 -11.5 -57.5t-57.5 12.5q-29 53 -196 364.5t-257 475.5q-12 37 14.5 54t55.5 -9q116 -211 452 -840zM2480 -1274l68 807q6 43 44 40t38 -46q-12 -133 -34 -402.5t-34 -404.5 q-8 -23 -26.5 -31t-35 2.5t-20.5 34.5zM3144 1735q-27 -35 -58.5 -14.5t-11.5 57.5q324 567 598 1040q27 27 54.5 9.5t15.5 -52.5q-90 -158 -292 -507t-306 -533zM3662 1229q-37 -23 -60.5 7t9.5 58q109 84 342 244t348 250q33 14 53.5 -10.5t-2.5 -55.5 q-106 -82 -340.5 -242.5t-349.5 -250.5zM3903 641q0 39 43 41l1174 -10q35 -8 35 -41t-35 -41l-1174 10q-43 2 -43 41zM3580 39q-33 29 -9.5 58.5t60.5 6.5q100 -76 306 -209t300 -202q23 -31 2.5 -55.5t-53.5 -10.5q-100 76 -306 208t-300 204zM3002 -459q-20 37 11.5 57.5 t58.5 -12.5q29 -53 195.5 -364.5t257.5 -474.5q12 -37 -14.5 -54.5t-55.5 9.5q-169 308 -453 839z" glyph-name="o" horiz-adv-x="5197" unicode="o"/><glyph d="M41 1286q0 86 21.5 134t58.5 80t88 56.5t110.5 38t125 23.5t130 11t128 3t112.5 1t70 -1q160 0 337 -35.5t315 -113t138 -181.5t-63 -329q184 123 291 123q129 0 129 -125q0 -102 -94.5 -257t-286 -362.5t-334.5 -335.5q-10 -68 -10 -112q0 -121 -144.5 -187.5 t-320.5 -66.5t-292 22.5t-203 84t-87 157.5q0 182 -109.5 734t-109.5 638zM1225 -96q0 152 160.5 623.5t191.5 629.5q-117 -70 -329 -101.5t-396 -31.5q-502 0 -709 143q20 -129 109.5 -581.5t89.5 -671.5q0 -96 136 -139t320 -43t305.5 44t121.5 128zM931 1550h-81 q-360 0 -447.5 -19.5t-183.5 -53t-96 -138.5q0 -74 79 -124t254.5 -79.5t359.5 -29.5q183 0 335 14.5t297 62.5t145 126q0 55 -72.5 102t-182 77t-229.5 46t-178 16zM1950 971q0 43 -47 43q-115 0 -328 -168q-16 -53 -104.5 -311.5t-120.5 -376.5q600 575 600 813zM702 1935 q0 -18 -13 -29.5t-30 -11.5q-39 0 -38 35q0 47 -74 74t-107.5 71t-33.5 99t23.5 92t58 63.5t92 71.5t57.5 114t-94 95.5t-137.5 78.5t-43.5 138q0 41 41 45t41 -45t28 -81.5t68 -48t79.5 -32t67.5 -54.5t28 -100t-36 -112.5t-115 -98.5t-79 -106q0 -59 34 -89.5t75 -42 t74.5 -42.5t33.5 -84zM1075 3046q0 -18 -20 -33q-135 -92 -135 -189q0 -47 34.5 -80.5t77.5 -53t78 -60.5t35 -106t-72 -145.5t-72 -133.5q-6 -41 -40 -41q-16 0 -28.5 12t-12.5 35q0 70 71.5 148.5t71.5 123.5t-36 76t-80 51.5t-80 63t-36 110.5t56.5 150.5t128.5 109.5 q23 12 41 -4t18 -34z" glyph-name="p" horiz-adv-x="2072" unicode="p"/><glyph d="M41 1530q0 110 118 198.5t605 88.5q217 0 416 -91l297 637q12 25 34.5 26t37 -17.5t3.5 -40.5q-154 -319 -299 -643q137 -86 138 -195q0 -188 -102.5 -804.5t-102.5 -784.5q0 -121 -144.5 -187.5t-320.5 -66.5t-292 22.5t-203 84t-87 157.5q0 190 -49 796.5t-49 819.5z M221 -86q0 -96 136.5 -139t320.5 -43t305 44t121 128q0 168 89 707.5t105 721.5q-86 -59 -245 -94q-224 -493 -588 -1325q-10 -23 -33.5 -25t-38 15.5t-4.5 42.5q229 553 559 1276q-115 -14 -217 -15q-432 0 -604 146q8 -178 51 -707.5t43 -732.5zM123 1516q0 -60 65.5 -111 t214 -83t306.5 -32q157 0 278 19l160 348q-178 78 -383 78q-296 0 -379.5 -19.5t-143 -41t-89 -60t-29.5 -98.5zM1309 1493q0 66 -86 125q-92 -203 -131 -291q217 53 217 166z" glyph-name="q" horiz-adv-x="1597" unicode="q"/><glyph d="M41 301q0 41 37 41q751 0 1448.5 86t1218 186.5t1147 272.5t1243 396t1311.5 550t1363 717q16 4 23 2q32 -6 32 -32t-16 -42q-229 -137 -401 -231q0 -170 -13.5 -508t-13.5 -514q-6 -41 -39 -41q-14 0 -31 10q-123 100 -364.5 314t-366.5 315q-225 -109 -557 -250 q-12 -174 -47 -519t-47 -517q-6 -41 -41 -41q-12 0 -29 10q-117 129 -344 372.5t-332 360.5q-258 -94 -544 -190q-23 -162 -87.5 -517.5t-88.5 -531.5q-6 -39 -41 -39q-20 0 -37 19q-102 135 -322.5 397t-322.5 397q-274 -74 -531 -135q-221 -727 -328 -1038 q-14 -27 -35 -27t-40 20q-103 166 -325 510t-222 347q-381 -66 -631 -97l-448 -958q-16 -27 -37 -26.5t-39 20.5q-117 244 -408 886l-657 -16q-16 -2 -26.5 11.5t-10.5 29.5zM2386 465q430 -674 483 -756q242 760 295 912q-309 -72 -778 -156zM4592 1018 q-369 -121 -727 -219q399 -494 571 -701q97 510 156 920zM1571 344q-438 -49 -754 -63q72 -145 192.5 -410.5t168.5 -366.5zM5978 1536q-487 -199 -674 -266q127 -139 590 -637q61 602 84 903zM7367 2202q-319 -174 -666 -340q109 -88 319.5 -276.5t319.5 -276.5 q2 66 13.5 391.5t13.5 501.5z" glyph-name="r" horiz-adv-x="7905" unicode="r"/><glyph d="M41 301q0 41 37 41q751 0 1448.5 86t1218 186.5t1147 272.5t1243 396t1311.5 550t1363 717q16 4 23 2q32 -6 32 -32t-16 -42q-229 -137 -401 -231q0 -170 -13.5 -508t-13.5 -514q-6 -41 -39 -41q-14 0 -31 10q-123 100 -364.5 314t-366.5 315q-225 -109 -557 -250 q-12 -174 -47 -519t-47 -517q-6 -41 -41 -41q-12 0 -29 10q-117 129 -344 372.5t-332 360.5q-258 -94 -544 -190q-23 -162 -87.5 -517.5t-88.5 -531.5q-6 -39 -41 -39q-20 0 -37 19q-98 131 -318.5 391t-326.5 403q-274 -74 -531 -135q-221 -727 -328 -1038q-14 -27 -35 -27 t-40 20q-103 166 -325 510t-222 347q-381 -66 -631 -97l-448 -958q-16 -27 -37 -26.5t-39 20.5q-117 244 -408 886l-657 -16q-16 -2 -26.5 11.5t-10.5 29.5zM2456 463q0 10 2 14l-72 -12q0 -2 2 -6q4 2 10 2q29 0 29 -31q0 -12 -6 -18l18 -31q10 18 27 18q28 1 28 -29 t-28 -30q55 -88 63 -100q18 -8 19 -29l28 -47q6 12 23 12q29 0 29 -31q0 -23 -21 -28l105 -164q8 4 16 4q29 0 29 -31q0 -14 -13 -22l60 -94q2 2 10 2q29 0 29 -31q0 -10 -9 -19l29 -43l12 13q6 14 15 47q-10 6 -11 22q0 31 29 31l10 37q-20 4 -20 27q0 31 29 30q6 0 10 -2 l88 281v10q0 14 10 25l17 49q-8 7 -8 27t24 24l14 41q-26 0 -26 30t28 29q10 0 17 -6q8 29 14 43q-4 -2 -12 -2q-29 0 -29 30t29 30q16 0 24 -17l37 103q-12 -4 -16 -5q4 -8 4 -14q0 -29 -28.5 -29t-28.5 29v2q-33 -8 -50 -10q14 -10 15 -27q0 -29 -29 -28.5t-29 28.5 q0 8 4 17q-59 -14 -309 -62q-4 -20 -23 -20t-26 10q-33 -4 -45 -8q2 -2 2 -6q0 -29 -27 -29t-30 25q-16 -4 -45 -9q10 -10 10 -22q0 -29 -28.5 -29t-28.5 29zM5951 1478q0 24 25 27q0 20 2 31q-481 -197 -641 -256q16 -6 16 -24t-14 -27l35 -39q10 18 27 18q29 0 28 -30 q0 -18 -18 -27l28 -31q0 29 29 29t29 -30t-29 -29l209 -226q25 -4 29 -30l43 -48q10 18 26 19q29 0 29 -31q0 -20 -16 -26l41 -46v7q0 31 28.5 31t28.5 -30t-29 -30h-8l45 -47q18 176 51 528q-6 -6 -18 -6q-29 0 -29 30t29 29q10 0 22 -12l5 53q-4 -2 -13 -2q-29 0 -29 30 t29 30q6 0 19 -8q0 14 4 43h-4q-29 0 -29 30t29 29q4 0 8 -2l2 41q-19 8 -19 32zM4592 1018l-74 -25l-143 -823l61 -72q97 510 156 920zM1571 344l-84 -10l-348 -746l39 -84zM7367 2202l-74 -41l-19 -799q61 -51 66 -53q2 66 13.5 391.5t13.5 501.5zM1055 -233l47 -101 l311 660q-33 -2 -98 -11zM4252 319l67 -81l129 733q-64 -21 -88 -27zM7129 1487l82 -70l18 711l-84 -45zM4129 471l67 -84l95 535l-91 -27zM977 -57l43 -97l221 463q-35 -4 -96 -8zM6988 1614l78 -70l12 504l-84 -43zM4004 625l69 -86l58 335l-86 -26zM6840 1743 q12 -10 29.5 -26t54.5 -46l4 301l-82 -41zM895 117l47 -97l129 275l-94 -6zM3865 799q27 -35 84 -105l24 135zM817 281l43 -88l43 92q-57 -4 -86 -4zM6701 1862l74 -62l4 98zM5886 1413q-29 0 -29 30t29 30t29 -30t-29 -30zM2828.5 -74q-28.5 0 -28.5 30t28.5 30t28.5 -30 t-28.5 -30zM5623.5 962q-28.5 0 -28.5 30t28.5 30t28.5 -30t-28.5 -30zM2746.5 -9q-28.5 0 -28.5 30t28.5 30t28.5 -30t-28.5 -30zM5716 997q-29 0 -29 30t29 30t29 -30t-29 -30zM2959.5 153q-28.5 0 -28.5 30t28.5 30t28.5 -30t-28.5 -30zM5777.5 833q-28.5 0 -28.5 30 t28.5 30t28.5 -30t-28.5 -30zM5869.5 868q-28.5 0 -28.5 30t28.5 30t28.5 -30t-28.5 -30zM2558 374q-29 0 -29 30t29 30t29 -30t-29 -30zM2767 90q-29 0 -29 30t29 30t29 -30t-29 -30zM5796 927q-29 0 -29 30t29 30t29 -30t-29 -30zM2652 407q-29 0 -29 30t29 30t29 -30 t-29 -30zM2744.5 442q-28.5 0 -28.5 30t28.5 30t28.5 -30t-28.5 -30zM2992 346q-29 0 -29 30t29 30t29 -30t-29 -30zM5875.5 774q-28.5 0 -28.5 30t28.5 30t28.5 -30t-28.5 -30zM2844.5 470.5q-28.5 0.5 -28.5 30.5t28.5 29.5t28.5 -30.5t-28.5 -29.5zM2937 506 q-29 0 -29 30t29 30t29 -30t-29 -30zM2805.5 278q-28.5 0 -28.5 30t28.5 30t28.5 -30t-28.5 -30zM2537.5 276q-28.5 0 -28.5 30t28.5 30t28.5 -30t-28.5 -30zM2631.5 309q-28.5 0 -28.5 30t28.5 30t28.5 -30t-28.5 -30zM2613.5 214.5q-28.5 0.5 -28.5 30.5t28.5 29.5 t28.5 -30.5t-28.5 -29.5zM2724 344q-29 0 -29 30t29 30t29 -30t-29 -30zM2705.5 250q-28.5 0 -28.5 30t28.5 30t28.5 -30t-28.5 -30zM2824.5 372q-28.5 0 -28.5 30t28.5 30t28.5 -30t-28.5 -30zM5562.5 1122q-28.5 0 -28.5 30t28.5 30t28.5 -30t-28.5 -30zM5865.5 1314 q-28.5 0 -28.5 30t28.5 30t28.5 -30t-28.5 -30zM2916.5 407q-28.5 0 -28.5 30t28.5 30t28.5 -30t-28.5 -30zM2898 313q-29 0 -29 30t29 30t29 -30t-29 -30zM3010.5 440q-28.5 0 -28.5 30t28.5 30t28.5 -30t-28.5 -30zM2693 149q-29 0 -29 30t29 30t29 -30t-29 -30z M2674.5 55q-28.5 0 -28.5 30t28.5 30t28.5 -30t-28.5 -30zM2785.5 184q-28.5 0 -28.5 30t28.5 30t28.5 -30t-28.5 -30zM5816.5 1026q-28.5 0 -28.5 30t28.5 30t28.5 -30t-28.5 -30zM2885.5 212.5q-28.5 0.5 -28.5 30.5t28.5 29.5t28.5 -30.5t-28.5 -29.5zM2867.5 118 q-28.5 0 -28.5 30t28.5 30t28.5 -30t-28.5 -30zM2977.5 247q-28.5 0 -28.5 30t28.5 30t28.5 -30t-28.5 -30zM5734.5 1091q-28.5 0 -28.5 30t28.5 30t28.5 -30t-28.5 -30zM5642.5 1056q-28.5 0 -28.5 30t28.5 30t28.5 -30t-28.5 -30zM5847 1220q-29 0 -29 30t29 30t29 -30 t-29 -30zM5755 1185q-29 0 -29 30t29 30t29 -30t-29 -30zM5695.5 898.5q-28.5 0.5 -28.5 30.5t28.5 29.5t28.5 -30.5t-28.5 -29.5zM5888 962q-29 0 -29 30t29 30t29 -30t-29 -30zM5486.5 1183q-28.5 0 -28.5 30t28.5 30t28.5 -30t-28.5 -30zM5548 1024q-29 0 -29 30t29 30 t29 -30t-29 -30zM5415 1247q-29 0 -29 30t29 30t29 -30t-29 -30zM2846.5 20q-28.5 0 -28.5 30t28.5 30t28.5 -30t-28.5 -30zM2939 55q-29 0 -29 30t29 30t29 -30t-29 -30zM2920.5 -39.5q-28.5 0.5 -28.5 30.5t28.5 29.5t28.5 -30.5t-28.5 -29.5zM2826.5 -162 q-28.5 0 -28.5 30t28.5 30t28.5 -30t-28.5 -30zM5601.5 1314q-28.5 0 -28.5 30t28.5 30t28.5 -30t-28.5 -30zM5693.5 1349q-28.5 0 -28.5 30t28.5 30t28.5 -30t-28.5 -30zM5673 1251q-29 0 -29 30t29 30t29 -30t-29 -30zM5834.5 1120q-28.5 0 -28.5 30t28.5 30t28.5 -30 t-28.5 -30zM5654.5 1157q-28.5 0 -28.5 30t28.5 30t28.5 -30t-28.5 -30zM5773.5 1280q-28.5 0 -28.5 30t28.5 30t28.5 -30t-28.5 -30zM5908.5 1060.5q-28.5 0.5 -28.5 30.5t28.5 29.5t28.5 -30.5t-28.5 -29.5zM5507 1282q-29 0 -29 30t29 30t29 -30t-29 -30zM5580.5 1216 q-28.5 0 -28.5 30t28.5 30t28.5 -30t-28.5 -30zM5793.5 1378q-28.5 0 -28.5 30t28.5 30t28.5 -30t-28.5 -30z" glyph-name="s" horiz-adv-x="7905" unicode="s"/><glyph d="M2064 728q0 -13 -14 -25.5t-35 -12.5t-28 23q-485 1272 -486 1278q0 18 12.5 29.5t34.5 11.5t33 -27q483 -1264 483 -1277zM3461 1989q0 -4 -483 -1270q-10 -25 -32 -25q-48 0 -48 39q0 6 485 1278q9 21 31 21t34.5 -12.5t12.5 -30.5zM2480 782q-16 0 -29.5 13.5 t-11.5 33.5l129 1227q2 33 41 33q16 0 29.5 -10.5t11.5 -28.5l-129 -1227q-4 -41 -41 -41zM1262 70q-10 0 -1166 434q-24 8 -24 30t11 35t23 13t1160 -432q28 -12 28 -34t-11 -34t-21 -12zM4852 580q14 0 26.5 -11t12.5 -33t-31 -34l-1143 -430h-6q-43 0 -43 37q-1 30 22 38 l1143 431q5 2 19 2zM4239 1266q0 -20 -10 -31l-745 -838q-14 -14 -32 -14t-30 12.5t-12 28.5t12 29l746 839q12 12 32 13q39 0 39 -39zM1554 419q0 -13 -14 -26.5t-30 -13.5t-27 12l-750 844q-12 13 -12 29t22 36t52 -10l749 -844q10 -14 10 -27zM3852 -147q0 18 13.5 29.5 t35.5 8.5q147 -20 479.5 -61t510.5 -66q29 -12 28 -38q0 -37 -43 -41q-166 25 -495.5 64.5t-493.5 62.5q-35 8 -35 41zM1080 -106q11 0 21.5 -13.5t10.5 -30.5q0 -35 -31 -36q-991 -127 -997 -127q-43 0 -43 41q0 33 37 39q991 127 1002 127z" glyph-name="t" horiz-adv-x="4960" unicode="t"/><glyph d="M854 934q0 -41 -57 -41q-305 0 -530.5 224t-225.5 591q0 229 88 428t251 348.5t411.5 235.5t552.5 86t681 -100.5t794 -280.5t799 -364.5t862 -417t814 -373.5q872 731 1229.5 857t538.5 126q291 0 501.5 -202.5t210.5 -496.5t-171 -465t-354 -239t-413 -68 q-573 0 -1530 400q-184 -154 -539.5 -464t-523.5 -452q373 -195 684.5 -475t521.5 -600.5t325.5 -673.5t115.5 -711t-160.5 -672.5t-449.5 -500.5t-643 -186q-549 0 -874.5 288.5t-325.5 813.5q0 426 274 707.5t684 281.5q57 0 57 -41t-57 -41q-375 0 -626 -258t-251 -649 q0 -485 303.5 -752.5t815.5 -267.5q332 0 602 175t419.5 471t149.5 650q0 455 -195.5 908.5t-568.5 843.5t-864 636q-264 -221 -477 -380t-560.5 -374t-686.5 -215t-528 168t-189 471q0 230 97 371t203.5 216t278.5 122t389 47q780 0 1463 -336q168 141 522 450.5t537 460.5 q-328 141 -806.5 373t-851 411t-1012 452.5t-1213.5 273.5q-285 0 -518.5 -80t-386 -217t-235.5 -321.5t-83 -397.5q0 -330 200.5 -531.5t473.5 -201.5q57 0 57 -41zM7062 2171q-348 0 -772.5 -261t-919.5 -673q909 -373 1466 -373q482 0 669 238t187 452q0 262 -186 439.5 t-444 177.5zM2443 -674q336 0 749 254t912 668q-653 309 -1397 309q-199 0 -418.5 -59t-343.5 -234.5t-124 -380.5q0 -264 166.5 -410.5t455.5 -146.5z" glyph-name="u" horiz-adv-x="7815" unicode="u"/><glyph d="M2570 639q0 -217 -111.5 -344t-250.5 -127q-58 0 -63 21.5t-5 46.5q0 178 113 333q-391 -188 -842 -481q61 -31 61 -126t-119.5 -223t-217.5 -128q-53 0 -53 93t26 177q-383 -279 -688 -561q12 -33 12 -82q0 -88 -121 -213t-217 -125q-53 0 -53 86q0 195 86 301.5 t168 106.5q41 0 70 -12q131 125 292 256q-92 4 -163.5 31.5t-71.5 74.5q0 74 112.5 153.5t213.5 79.5q158 0 163 -139q348 266 748 502q-106 14 -198.5 68.5t-92.5 87.5q0 23 62.5 74t170 99t202.5 48t148.5 -49.5t53.5 -130.5q426 223 881 397q-141 39 -258 128t-117 179 q0 37 78.5 63.5t221.5 26.5t244 -77.5t101 -184.5q0 -14 -4 -39q496 168 1010 256q-152 35 -304.5 151.5t-152.5 194.5q0 41 65 41q270 0 434 -90t164 -223q0 -23 -16 -45q393 57 795 65q-82 55 -135.5 164t-53.5 209q0 43 17.5 60.5t64.5 17.5q125 0 224.5 -123t99.5 -285 q0 -23 -11 -43q426 -6 840 -65q-14 20 -14 45q0 133 163.5 223t434.5 90q66 0 65 -55q0 -70 -153.5 -183.5t-302.5 -148.5q510 -88 1007 -256q-2 12 -2 39q0 106 101.5 184t244.5 78t221 -26.5t78 -63.5q0 -90 -117.5 -179t-258.5 -128q455 -172 882 -397q0 82 54.5 131 t148.5 49t201.5 -48t170 -99.5t62.5 -73.5q0 -33 -92 -87.5t-199 -68.5q393 -233 748 -502q2 139 164 139q100 0 212.5 -79.5t112.5 -153.5q0 -47 -72.5 -74.5t-162.5 -31.5q162 -133 284 -250q31 12 72 12q82 0 168 -106.5t86 -301.5q0 -86 -53 -86q-96 0 -217 125 t-121 213q0 53 10 82q-301 279 -680 555q27 -84 27 -177t-53 -93q-98 0 -218 128t-120 223t61 126q-395 256 -842 481q113 -162 113 -333q0 -25 -5 -46.5t-63 -21.5q-139 0 -250.5 127t-111.5 344q0 47 14 74q-494 215 -979 348q80 -80 135.5 -195.5t55.5 -234.5 q0 -45 -41 -45q-139 0 -278.5 135t-139.5 287q0 74 35 112q-436 102 -868 148q133 -143 133 -363q0 -37 -10.5 -52t-36.5 -15q-150 0 -250.5 121.5t-100.5 275.5q0 35 9 53q-184 12 -379 12t-385 -12q10 -25 10 -53q0 -154 -100.5 -275.5t-249.5 -121.5q-27 0 -37 15t-10 52 q0 106 36.5 202.5t96.5 160.5q-434 -43 -871 -148q37 -41 37 -112q0 -152 -139 -287t-279 -135q-41 0 -41 45q0 121 54.5 235.5t136.5 194.5q-485 -133 -979 -348q14 -33 14 -74zM7473 1074q0 -75 64 -75q82 0 182 44t164.5 96.5t64.5 81.5q-70 29 -196 29t-202.5 -50.5 t-76.5 -125.5zM3011 999q63 0 63 75t-77 125t-191 50t-185 -20l-22 -8q0 -29 64.5 -81.5t165 -96.5t182.5 -44zM8624 547q0 -61 67.5 -94t141.5 -33q143 0 238 78q-48 48 -149.5 92.5t-167.5 44.5t-98 -24.5t-32 -63.5zM1923 547q0 39 -31.5 63.5t-97.5 24.5t-148.5 -35 t-125.5 -68l-43 -34q94 -78 237 -78q70 0 139.5 32t69.5 95zM8329 246q0 150 -104.5 290t-173.5 140q0 -174 78.5 -302t199.5 -128zM2218 246q121 0 200 128t79 302q-70 0 -174.5 -140t-104.5 -290zM3721 1012q0 57 -28 57q-63 0 -165 -140.5t-102 -252.5q86 0 190.5 113.5 t104.5 222.5zM6826 1012q0 -109 104.5 -222.5t190.5 -113.5q0 113 -101.5 253t-164.5 140q-29 0 -29 -57zM4246 1358q37 0 36 20q0 72 -139 141.5t-342 82.5q80 -88 203 -166t242 -78zM6302 1358q119 0 241.5 77.5t202.5 166.5q-203 -12 -342 -82t-139 -142q0 -20 37 -20z M1335 23q-92 0 -137 -105.5t-45 -232.5q53 0 145 102t92 169t-55 67zM9157 -43q0 -66 92 -169t145 -103q0 88 -42.5 213t-139.5 125q-55 0 -55 -66zM10246 -682q-55 0 -55 -68t93 -169t144 -101q0 240 -79.5 289t-102.5 49zM113 -1026q51 0 144 101t93 169t-53 68 t-118.5 -79.5t-65.5 -258.5zM5728 1223q0 -111 71 -204t167 -93q0 109 -76 225.5t-137 116.5q-25 0 -25 -45zM4819 1223q0 45 -25 45q-61 0 -137 -117t-76 -225q96 0 167 93t71 204zM5267 1423q14 0 15 15q0 117 -79 217t-163 100q0 -104 72.5 -218t154.5 -114zM829 -170 q1 66 -77 66t-152 -44.5t-92 -95.5q74 -37 152 -37t123.5 31t45.5 80zM9718 -170q0 -49 46 -80t124 -31t151 37q-18 51 -91.5 95.5t-151.5 44.5t-78 -66z" glyph-name="v" horiz-adv-x="10541" unicode="v"/><glyph d="M100 313q-60 0 -59 41q0 41 48 41t92 38t81 91.5t81 106.5t115.5 91t153.5 38t147.5 -39t118 -95.5t139.5 -150.5t222 -94q80 0 166 58.5t149.5 127t145.5 127t158 58.5t146.5 -34t127.5 -83t160 -132t284 -83q180 0 247 83t106 132t103.5 83t152.5 34t152.5 -34 t102.5 -81t99 -128t196 -81q134 0 240.5 87t169 139.5t139 88t158.5 35.5t146.5 -40t106.5 -96t111 -151.5t179 -95.5q49 0 49 -41t-49 -41q-140 0 -212.5 95.5t-187.5 257t-297 9t-289.5 -240.5t-266.5 -88t-224 81t-127 162t-191 81t-207 -96t-148 -166t-260 -70t-304 83 t-215 166t-201 83q-68 0 -146.5 -58.5t-140 -127t-151.5 -127t-173 -58.5t-157.5 39t-132 94t-147 150.5t-176.5 95.5q-86 0 -147.5 -38t-101.5 -91t-78 -106.5t-91 -91.5t-113 -38z" glyph-name="w" horiz-adv-x="5074" unicode="w"/><glyph d="M616 1262q63 0 64 -45q0 -37 -45 -37q-231 0 -371.5 -157t-140.5 -397t217.5 -402.5t569.5 -162.5t672.5 67t592.5 173.5t546.5 235.5t551 259t557 236.5t615.5 173t623 66.5t466 -55.5t277.5 -136.5t161.5 -189.5t80.5 -196.5t18.5 -207t-55 -245.5t-184 -212.5 t-329 -86t-325 138t-125 329q0 43 43 43q18 0 28.5 -14.5t10.5 -28.5q0 -158 102.5 -271.5t282.5 -113.5q229 0 349 145t120 348q0 78 -17 156t-73.5 175t-146.5 169t-254 122t-377 50q-342 0 -674 -66.5t-608 -173t-549.5 -236.5t-546 -259t-546 -235.5t-600 -173 t-662.5 -66.5q-418 0 -656.5 185t-238.5 474q0 260 159.5 441.5t415.5 181.5z" glyph-name="x" horiz-adv-x="6113" unicode="x"/><glyph d="M2359 211q0 -37 -35 -37t-200 250l-1977 -2q20 -45 107.5 -145.5t87.5 -124.5q0 -35 -34 -35t-150.5 149.5t-116.5 203.5t114.5 198.5t150.5 144.5t36 -33q0 -12 -86.5 -115.5t-112.5 -160.5l1979 2q59 88 84.5 128t57 82t58.5 42q37 0 37 -33q0 -18 -27.5 -56t-43 -59.5 t-41 -55.5t-35.5 -48h141q18 27 64 97t78 112.5t59 42.5q37 0 37 -33q0 -17 -28 -55.5t-52.5 -74t-67.5 -89.5h142q18 27 61.5 94.5t77.5 112.5t61 45q37 0 37 -31t-81 -136.5t-95 -125.5q176 -223 176 -257t-35 -34t-200 250h-140q143 -190 144 -213q0 -37 -35 -37 t-201 250h-139q143 -190 143 -213z" glyph-name="y" horiz-adv-x="2863" unicode="y"/><glyph d="M2435 -721q-520 0 -961.5 168t-759 473t-495.5 757.5t-178 999.5q0 61 82 70q1047 -8 1221 -8t972 45l267 14q65 6 57 -76q-104 -1165 -104 -1556t-21 -696l-6 -123q0 -68 -74 -68zM1238 1657q-318 0 -933 8q12 -644 281.5 -1044t517.5 -603.5t591 -327.5t738 -134 q10 430 9 666t28 624.5t57 628.5l29 239q-1000 -57 -1318 -57zM123 1667q0 -506 165 -932t464 -726t729 -470t946 -176q0 16 4 111q-352 8 -663.5 100t-548 246.5t-426 361.5t-374 573.5t-196.5 909.5zM1526 1528q0 -43 -58.5 -88t-110.5 -45t-82 22.5t-30 64.5t38 69.5 t91 27.5t102.5 -16.5t49.5 -34.5zM2181 698q12 0 31.5 -53t19.5 -97t-27.5 -86t-68.5 -42t-65.5 30t-24.5 82t49 109t86 57zM1702 1024q62 0 61 -18q0 -59 -40 -127t-103 -68q-37 0 -66.5 21.5t-29.5 70.5t58 85t120 36z" glyph-name="z" horiz-adv-x="2682" unicode="z"/><glyph d="M2595 1436q0 -14 -5 -26.5t-57 -12.5l-600 -13l-1536 21q-166 0 -166 -55q0 -43 81 -129.5t168 -170.5q87 -85 132 -133.5t90.5 -113t45.5 -106.5t-46.5 -105.5t-91 -105.5t-118.5 -110q-137 -126 -199 -188.5t-62 -101.5q0 -55 166 -55l1536 20l600 -12q23 0 39.5 -12.5 t16.5 -29.5t-18.5 -28.5t-37.5 -11.5l-600 12l-1536 -20q-135 0 -191 41t-56 90t45 110.5t92 106.5t124 115t103.5 95t71.5 70.5t62.5 73t17.5 57t-76.5 113.5t-169.5 175q-92 91 -135 135.5t-89 110t-46 114.5t56 90t191 41l1536 -21l600 13q62 0 62 -43z" glyph-name="glyph66" horiz-adv-x="2490"/><glyph d="M2167 1442q0 -45 -62 -45l-600 6l-936 -19l-573 13q-20 0 -38.5 12t-18.5 37q0 33 57 33l573 -13l936 19l600 -6q62 0 62 -37zM-66 0q0 39 64 39l600 12l936 -20l600 8q61 0 61 -41t-61 -41l-600 -8l-936 20l-600 -12q-27 0 -45.5 12.5t-18.5 30.5z" glyph-name="glyph67" horiz-adv-x="2103"/><glyph d="M-72 1436q0 43 62 43l600 -13l1536 21q135 0 191.5 -41t56.5 -90t-46.5 -114.5t-90 -109.5t-119.5 -120t-108 -109t-74 -79t-60 -75.5t-18 -60.5t71.5 -103t165.5 -158q94 -85 141.5 -130t92.5 -106.5t45 -110.5t-56.5 -90t-191.5 -41l-1536 20l-600 -12q-18 0 -37 11.5 t-19 28.5t16.5 29.5t39.5 12.5l600 12l1536 -20q166 0 166 55q0 35 -62 101.5t-168 161.5t-150 137t-90 105.5t-46 105.5t45 106.5t90 113t124 125.5q96 93 176.5 179t80.5 129q0 55 -166 55l-1536 -21l-600 13q-39 0 -50.5 9.5t-11.5 29.5z" glyph-name="glyph68" horiz-adv-x="2516"/><glyph d="M33 928q0 94 110 94q74 0 402 -39l98 -12q10 27 66.5 196.5t86.5 252.5t78 83q33 0 53.5 -26.5t39.5 -87.5l127 -410q366 68 486 68t120 -70q0 -59 -54 -105q-125 -107 -315 -245l-65 -49q4 -10 105.5 -246.5t101.5 -332.5q0 -97 -60 -97q-45 0 -177 117.5t-243 234.5 l-110 119q-292 -340 -371.5 -400.5t-108.5 -60.5q-72 0 -71 106q0 59 45 196.5t90 244.5l47 108q-145 74 -397 242q-84 58 -84 119zM165 940q-46 0 -46 -15t45 -51q80 -57 217 -140t185 -102t34 -67q-8 -27 -104.5 -254t-96.5 -293q0 -25 15 -24q50 0 233.5 221t196.5 236 q35 39 72 8t235.5 -250t253.5 -219q14 0 -99.5 271t-123.5 298q-18 51 22 78q59 39 395 295q18 12 19 24q0 8 -31 9q-135 0 -493 -72q-50 -10 -66 31t-127 444q-14 53 -26.5 53t-28.5 -59l-131 -442q-10 -37 -60 -33q-8 0 -226 26.5t-264 26.5z" glyph-name="glyph69" horiz-adv-x="1691"/><glyph d="M33 928q0 94 110 94q74 0 402 -39l98 -12q10 27 66.5 196.5t86.5 252.5t78 83q33 0 53.5 -26.5t39.5 -87.5l127 -410q366 68 486 68t120 -70q0 -59 -54 -105q-125 -107 -315 -245l-65 -49q4 -10 105.5 -246.5t101.5 -332.5q0 -97 -60 -97q-45 0 -177 117.5t-243 234.5 l-110 119q-292 -340 -371.5 -400.5t-108.5 -60.5q-72 0 -71 106q0 59 45 196.5t90 244.5l47 108q-145 74 -397 242q-84 58 -84 119z" glyph-name="glyph70" horiz-adv-x="1636"/><glyph d="M150 80q0 49 45 110.5t92 106.5t124 115t103.5 95t71.5 70.5t62.5 73t17.5 57t-76.5 113.5t-169.5 175q-92 91 -135 135.5t-89 110t-46 114.5t56 90t191 41l1536 -21l600 13q80 0 88.5 -87t8.5 -100l-11 -225l-18 -528l4 -387q0 -96 -22.5 -145.5t-53.5 -49.5l-596 12 l-1536 -20q-135 0 -191 41t-56 90z" glyph-name="glyph71" horiz-adv-x="2527"/><glyph d="M-90 1404q0 23 21 45.5t35 26t30 3.5l573 -13l936 19l600 -6q86 0 97.5 -34t11.5 -39l-6 -138l-4 -516q-25 -398 -25 -476t5.5 -143.5t2 -120.5t-52.5 -55l-600 -8l-936 20l-600 -12q-59 0 -79.5 53t-20.5 176l6 586l6 483v149z" glyph-name="glyph72" horiz-adv-x="2103"/><glyph d="M2384 1356q0 -49 -46 -114.5t-89 -109.5t-119 -120t-108.5 -109t-74.5 -79t-60.5 -75.5t-18.5 -60t76.5 -107.5t165.5 -158t136.5 -126t92.5 -106.5t45 -110.5t-56.5 -90t-191.5 -41l-1536 20l-596 -12q-31 0 -53.5 49t-22.5 146l4 387l-18 528l-5 167q-5 167 23.5 206 t67.5 39l600 -13l1536 21q135 0 191.5 -41t56.5 -90z" glyph-name="glyph73" horiz-adv-x="2465"/><glyph d="M461 1518h79l480 -2l526 6q35 0 51.5 -10.5t29.5 -33.5t60.5 -136t61.5 -141t109 -216q31 -61 -11 -113q-23 -27 -176 -184.5t-243 -265.5t-217.5 -322.5t-150.5 -243.5t-59 -28.5t-69 33.5q-104 211 -404.5 540t-353.5 395t-12 136q80 188 107 243t75 230l14 59 q23 53 103 54zM1284 870q-82 0 -271.5 7.5t-283.5 5.5q106 -259 168 -441t115 -438zM238 852q31 -39 313.5 -369.5t378.5 -459.5q-66 269 -118 421t-179 437q-162 -6 -395 -29zM764 965q82 0 262 -7.5t268 -5.5l-284 467q-21 -75 -246 -454zM1143 166q121 188 256 352 t348 377q-156 -14 -377 -23zM926 1438q-217 -2 -443 -2l197 -443q27 51 118 200t128 245zM1544 1448q-112 0 -448 -8l264 -434q51 162 92 240t92 202zM418 1382q-70 -210 -91 -256t-81 -192q203 20 358 27zM1772 979q-64 133 -93 189t-84 190q-41 -100 -73 -160t-95 -242 q195 10 345 23z" glyph-name="glyph74" horiz-adv-x="2123"/><glyph d="M461 1518h79l480 -2l526 6q35 0 51.5 -10.5t29.5 -33.5t60.5 -136t61.5 -141t109 -216q31 -61 -11 -113q-23 -27 -176 -184.5t-243 -265.5t-217.5 -322.5t-150.5 -243.5t-59 -28.5t-69 33.5q-104 211 -404.5 540t-353.5 395t-12 136q80 188 107 243t75 230l14 59 q23 53 103 54z" glyph-name="glyph75" horiz-adv-x="2025"/><glyph d="M348 -201q-29 0 -29 31t23 115t70 237.5t58 189.5t-17 74q-109 147 -299 398q-27 35 -32 56.5t3 88.5l117 490q6 27 27 45t44 16l301 -18q84 -6 100.5 -37t-3.5 -76l-107 -397q-18 -72 12.5 -123t129 -204t128.5 -202t-20 -106l-467 -549q-25 -29 -39 -29zM788 441.5 q0 19.5 -22 56.5l-211 342q-35 57 -41 81.5t4 67.5l117 453l-316 20q-10 -45 -49 -205.5t-58 -245.5t21 -139l312 -413q27 -35 10 -86q-94 -301 -135 -410q7 11 157.5 196t180.5 224t30 58.5z" glyph-name="glyph76" horiz-adv-x="1042"/><glyph d="M348 -201q-29 0 -29 31t23 115t70 237.5t58 189.5t-17 74q-109 147 -299 398q-27 35 -32 56.5t3 88.5l117 490q6 27 27 45t44 16l301 -18q84 -6 100.5 -37t-3.5 -76l-107 -397q-18 -72 12.5 -123t129 -204t128.5 -202t-20 -106l-467 -549q-25 -29 -39 -29z" glyph-name="glyph77" horiz-adv-x="1054"/><glyph d="M4061 1278q-240 0 -510 -100.5t-594 -284.5q10 -90 13 -176q-12 -512 -271 -946q242 -221 418 -340q123 174 267.5 271t262.5 97q193 0 294.5 -100.5t101.5 -236.5t-95.5 -230t-265.5 -94q-248 0 -544 186q-201 -328 -232 -747q145 -160 268 -272.5t348.5 -269.5 t542.5 -157t553 228.5t238 521.5q-232 -33 -388.5 10t-270 138t-113.5 247q0 111 80 190.5t186 75.5q219 -6 381 -173t199 -384q266 84 421.5 324t155.5 500t-116.5 460.5t-331.5 323.5q-49 -291 -251 -470t-481 -179q-178 0 -310 108.5t-132 278.5q0 211 138.5 354 t404.5 143q311 0 561 -108l2 37q0 297 -165 468t-345 238.5t-420 67.5zM944 1217q453 0 823.5 166.5t724.5 469.5q-270 352 -671.5 558t-855.5 206q-348 0 -595 -214t-247 -521t228 -486t593 -179zM1016 119q383 0 909 266q-262 225 -498.5 350t-463.5 125t-350.5 -101.5 t-123.5 -279.5t143.5 -269t383.5 -91zM1300 -1014q212 0 432 77t418 220q-219 207 -431 320.5t-429 113.5t-331.5 -103t-114.5 -265t122 -262.5t334 -100.5zM4327 -227q254 0 436.5 169t219.5 439q-244 113 -555 113q-225 0 -343 -119t-118 -297q0 -133 106.5 -219 t253.5 -86zM2888 717q0 68 -6 131q-37 -23 -346.5 -207t-471.5 -272q118 -107 580 -545q242 406 244 893zM3072 -635q-188 129 -414 338q-164 -250 -387 -430q127 -127 321.5 -346t239.5 -268q45 395 240 706zM3647 -283q-104 0 -230 -86t-234 -241q272 -170 499 -170 q133 0 206 69t73 171t-80 179.5t-234 77.5zM4731 -1305q41 0 119 17q-27 197 -169.5 346t-334.5 149q-74 0 -127 -52t-53 -132q0 -141 147.5 -234.5t417.5 -93.5zM6613 -1864q51 0 51 -41t-51 -41q-102 0 -155.5 74t-53.5 203q0 184 102.5 380.5t282.5 333t389 136.5 t357.5 -185.5t148.5 -463.5t-83 -557t-235.5 -521.5t-375.5 -446.5t-492.5 -349.5t-598 -226.5t-683.5 -81q-670 0 -1218.5 268.5t-864 743.5t-315.5 1059q0 90 4 135q-72 78 -259.5 293.5t-352.5 376.5q-434 -322 -907 -322q-254 0 -397.5 123t-143.5 321t137 324.5 t382 126.5t472 -122.5t461 -346.5q229 182 389 426q-53 49 -273.5 258t-338.5 316q-561 -293 -975 -293q-279 0 -443.5 111.5t-164.5 328.5t144 341t402 124t512 -136t537 -382q215 115 492.5 282.5t377.5 225.5q-55 463 -331 854q-362 -309 -744.5 -480t-853.5 -171 q-399 0 -651 200.5t-252 543.5t271.5 581.5t652.5 238.5q477 0 890.5 -215t694.5 -583q185 163 469 446t522.5 501t604 408.5t816.5 190.5q244 0 546.5 -96t532.5 -414.5t230 -702.5q0 -528 -274.5 -816t-720.5 -288q-156 0 -304.5 67t-253 169t-168 225t-63.5 234 q0 51 45 51q37 0 37 -81t57.5 -184.5t150.5 -192.5t226 -147.5t273 -58.5q410 0 661.5 266.5t251.5 755.5q0 357 -214 653t-498.5 387t-525.5 91t-480.5 -70.5t-421.5 -177t-388 -275.5t-533.5 -499t-530.5 -508q276 -395 350 -862q328 184 599 285.5t523 101.5t448.5 -75 t376 -264.5t179.5 -516.5q0 -51 -2 -76q248 -131 383 -356.5t135 -503.5q0 -199 -71.5 -385.5t-223 -333.5t-356.5 -203v-16q0 -213 -119 -405.5t-319.5 -310.5t-426.5 -118q-327 0 -553.5 149.5t-351.5 260.5t-268 264v-49q0 -422 179 -791.5t486.5 -632t736.5 -414 t914 -151.5q352 0 678 83t585 228.5t472 345t432 560t219 899.5q0 227 -125 389t-301 162t-336.5 -121t-257 -300t-96.5 -347q0 -195 127 -195z" glyph-name="glyph78" horiz-adv-x="6662"/><glyph d="M2519 -977q0 -152 -113.5 -247t-268 -138t-390.5 -10q2 -293 237.5 -521.5t553.5 -228.5t542.5 157t347.5 269.5t269 272.5q-31 420 -232 747q-297 -186 -545 -186q-170 0 -265 94t-95 229t101.5 236.5t293.5 101.5q119 0 263.5 -97t267.5 -271q176 119 417 340 q-258 434 -270 946q2 86 12 176q-324 184 -593.5 284.5t-509.5 100.5t-420 -67.5t-345 -238t-165 -468.5q0 -6 1 -18.5t1 -18.5q250 109 538 109t427 -143.5t139 -354.5q0 -170 -132 -278.5t-311 -108.5q-279 0 -480.5 179t-250.5 470q-215 -123 -331.5 -323.5 t-116.5 -460.5t155.5 -500t421.5 -324q37 217 199 384t381 173q106 4 186 -75.5t80 -190.5zM5659 1217q365 0 593 179t228 486t-247 521t-595 214q-455 0 -856 -205.5t-672 -558.5q354 -303 725 -469.5t824 -166.5zM5587 119q240 0 383 91t143 269t-122.5 279.5 t-350.5 101.5t-464 -125t-498 -350q526 -266 909 -266zM5303 -1014q212 0 334 100.5t122 262.5t-114.5 265t-331.5 103t-429.5 -113.5t-431.5 -320.5q199 -143 419 -220t432 -77zM2275 -227q147 0 254 86t107 219q0 178 -118 297t-343 119q-311 0 -555 -113 q37 -270 219 -439t436 -169zM3715 717q2 -487 244 -893q423 402 579 545q-162 88 -471 272t-346 207q-6 -63 -6 -131zM3531 -635q195 -311 239 -706q45 49 235.5 263.5t326.5 350.5q-223 180 -388 430q-225 -209 -413 -338zM2955 -283q-154 0 -233.5 -77.5t-79.5 -179.5 t72.5 -171t205.5 -69q227 0 500 170q-109 156 -235 241.5t-230 85.5zM1872 -1305q270 0 417.5 93.5t147.5 234.5q0 80 -53 132t-127 52q-193 0 -335 -149.5t-169 -345.5q78 -17 119 -17zM-10 -1946q-51 0 -51 41t51 41q127 0 127 195q0 168 -96.5 347t-257 300t-336.5 121 t-301 -162.5t-125 -408.5t76.5 -508.5t219 -497t355.5 -434t472 -345t584.5 -228.5t677.5 -83q485 0 914.5 151.5t736.5 414t486.5 632t179.5 791.5v49q-143 -152 -268 -263.5t-351.5 -261t-554.5 -149.5q-225 0 -425.5 118t-319.5 310.5t-119 405.5v16 q-205 55 -356.5 202.5t-223 334t-71.5 385.5q0 279 135 504t383 356q-2 25 -2 76q0 327 179 516.5t375.5 264.5t448.5 75t523.5 -101.5t599.5 -285.5q74 467 350 862q-194 169 -526 503.5t-538 503.5t-388 275.5t-422 177t-480 70.5t-525 -91t-499 -387t-214 -653 q0 -489 252 -755.5t661 -266.5q139 0 272.5 58.5t226.5 147.5t150.5 192.5t57.5 184.5t37 81q45 0 45 -51q0 -111 -63.5 -234t-168 -225t-253 -169t-304.5 -67q-446 0 -720.5 288t-274.5 816q0 386 230.5 703.5t532.5 413.5t535 96t442 -49.5t391.5 -144.5t385.5 -236.5 t621.5 -557t582.5 -558.5q281 369 694.5 583.5t890.5 214.5q381 0 652.5 -238.5t271.5 -581.5t-252 -543.5t-651 -200.5q-471 0 -853 171t-745 480q-276 -391 -332 -854q100 -57 376 -224t495 -284q283 246 536.5 382t511.5 136t402.5 -124t144.5 -341t-165 -328.5 t-443 -111.5q-414 0 -975 293q-119 -106 -339 -315.5t-273 -258.5q160 -244 389 -426q233 223 460.5 346t472.5 123t382 -126.5t137 -324.5t-143.5 -321t-397.5 -123q-473 0 -907 322q-161 -158 -351 -375t-261 -295q4 -45 4 -135q0 -584 -315.5 -1059t-864.5 -743.5 t-1219 -268.5q-354 0 -682.5 81t-598 226.5t-492.5 349.5t-458.5 578.5t-235.5 962.5q0 262 148.5 447.5t357.5 185.5t389 -136.5t282.5 -333t102.5 -380.5q0 -129 -53.5 -203t-155.5 -74z" glyph-name="glyph79" horiz-adv-x="6606"/><glyph d="M1350 86q0 -31 -54 -31q-124 0 -244.5 125t-197 231.5t-86.5 118.5q-214 -171 -364 -304.5t-158 -140.5t-25 -7q-33 0 -33 35q0 18 25 39q199 195 487 430q-408 158 -630 381q-27 27 -27 49q0 35 35 35q20 0 41 -21t64.5 -59.5t207.5 -138t361 -175.5q9 207 32 415 t23 212q0 66 41 66t41 -48q-47 -428 -55 -641q383 145 571 248l61 35q30 18 48 18q40 0 40 -42q0 -22 -28 -37q-223 -135 -688 -306q12 -16 62 -84.5t155 -210t252 -141.5q16 0 29.5 -10t13.5 -41z" glyph-name="glyph80" horiz-adv-x="1562"/><glyph d="M926 1481q92 0 196.5 -38t161.5 -77l57 -39q17 73 74.5 192t115.5 199t156.5 144.5t201.5 64.5t192.5 -46t177 -146t133.5 -207l18 -45q156 129 267 182q176 88 367 88t366.5 -74t267.5 -131l35 -24q229 174 499 174t419 -120t178 -284q193 104 359 104t285.5 -108 t119.5 -286q0 -88 -32 -164t-96.5 -142t-148.5 -104l-33 -12q55 -29 122 -148.5t67 -325.5t-144.5 -361t-349.5 -155q-303 0 -504 277q-18 -164 -67 -271.5t-100.5 -167t-136.5 -99.5t-184 -40t-181 35t-156.5 111.5t-110.5 161.5l-14 34q-162 -180 -391 -180q-63 0 -127 31 t-140.5 101t-113.5 132l-20 31q-324 -324 -725 -323q-98 0 -192.5 41.5t-190 134t-150.5 190.5l-24 43q-225 -254 -533 -254q-98 0 -170 38t-127 128t-55 223l8 105q-96 33 -174 90t-125 115.5t-83 157t-36 212.5q0 211 121 339t293 142q12 154 114.5 252.5t262.5 98.5z M888 -340q87 0 163.5 26.5t125 55.5t109 86t78.5 77.5t59 69.5q12 12 27 13q16 0 25 -25q32 -116 122.5 -232t186.5 -171.5t203 -55.5q365 0 708 344q43 43 65 -3t48 -91t70 -99t105.5 -88t132.5 -34t176.5 39t191.5 176l14 25q6 16 25 16q33 0 33 -44t28.5 -102.5 t76.5 -121t129.5 -106.5t187.5 -44t194 63.5t128 149.5t66.5 210t19.5 171t5 62.5t35 15.5t37 -27q102 -190 229 -267q128 -77 282 -77t275 130t121 331t-84.5 302t-142.5 130q-33 18 -33 45q0 37 45 37q139 0 237.5 104.5t98.5 247.5t-96.5 229.5t-237.5 86.5t-260 -80 t-137 -80q-27 0 -27 41q0 150 -135 284t-369 134q-125 0 -239.5 -49t-185 -97.5t-84.5 -48.5t-74 39t-137 86t-206 86t-261 39t-254 -47t-191.5 -102.5t-128 -102.5t-80.5 -47t-49 49t-62.5 118t-83 138.5t-124.5 118.5t-175 49t-184 -64.5t-139 -155.5t-92 -183t-66 -156.5 t-41 -64.5q-23 0 -163.5 89t-276.5 89q-135 0 -222 -95.5t-87 -226.5q0 -29 -27 -28q-152 0 -265.5 -108t-113.5 -292q0 -117 41 -212t131 -175.5t189 -112.5l40 -12q20 -8 21 -26l-12 -142q0 -160 87 -233.5t174 -73.5z" glyph-name="glyph81" horiz-adv-x="5668"/><glyph d="M926 1481q92 0 196.5 -38t161.5 -77l57 -39q17 73 74.5 192t115.5 199t156.5 144.5t201.5 64.5t192.5 -46t177 -146t133.5 -207l18 -45q156 129 267 182q176 88 367 88t366.5 -74t267.5 -131l35 -24q229 174 499 174t419 -120t178 -284q193 104 359 104t285.5 -108 t119.5 -286q0 -88 -32 -164t-96.5 -142t-148.5 -104l-33 -12q55 -29 122 -148.5t67 -325.5t-144.5 -361t-349.5 -155q-303 0 -504 277q-18 -164 -67 -271.5t-100.5 -167t-136.5 -99.5t-184 -40t-181 35t-156.5 111.5t-110.5 161.5l-14 34q-162 -180 -391 -180q-63 0 -127 31 t-140.5 101t-113.5 132l-20 31q-324 -324 -725 -323q-98 0 -192.5 41.5t-190 134t-150.5 190.5l-24 43q-225 -254 -533 -254q-98 0 -170 38t-127 128t-55 223l8 105q-96 33 -174 90t-125 115.5t-83 157t-36 212.5q0 211 121 339t293 142q12 154 114.5 252.5t262.5 98.5z" glyph-name="glyph82" horiz-adv-x="5777"/><glyph d="M1196 729q20 0 43 -6l86 -6q-125 143 -125 354q0 37 10.5 52.5t36.5 15.5q150 0 250 -122t100 -276q0 -23 -6 -41q66 -4 195 -8q-84 72 -143.5 171.5t-59.5 172.5q0 12 2 15q19 31 115 31t190.5 -34t168 -109t73.5 -173q0 -45 -23 -80h123q20 0 31.5 -12t11.5 -28 t-11 -29t-32 -13q-174 0 -252 2h-30q-31 2 -88 2q18 -39 18 -86q0 -104 -115 -213.5t-364 -109.5q-111 0 -111 75q0 82 79 181.5t185 167.5q-158 8 -237 14q6 -29 6 -64q0 -88 -121 -212.5t-217 -124.5q-53 0 -53 86q0 215 115 333q-47 4 -134 9q37 -29 37 -72 q0 -111 -109 -177.5t-219 -66.5t-110 82q0 55 38 125t95 121h-49q-16 -63 -88 -99t-146 -36t-197.5 43t-123.5 98q0 72 135 121t209 49t130 -24.5t77 -69.5q166 -4 252 -8q-139 121 -139 233q-1 90 107 90t220.5 -65.5t112.5 -178.5q0 -51 -29 -98q18 0 55 -4q5 2 25 2z M1800 514q0 35 -14 63.5t-47 28.5q-82 0 -223.5 -119.5t-141.5 -201.5q12 -2 60 -2t133.5 21.5t159 77.5t73.5 132zM1966 690q35 0 59.5 22.5t24.5 57.5q0 98 -108.5 163.5t-217.5 65.5q-23 0 -47 -4q25 -92 114 -198.5t175 -106.5zM1241 571q0 61 -35 74q-16 0 -24 2 q-57 -4 -117.5 -88t-60.5 -250q51 0 144 100.5t93 161.5zM514 700q0 76 -134 76q-58 0 -149.5 -30.5t-109.5 -59.5q127 -72 233 -72q51 0 105.5 22t54.5 64zM1516 754q0 111 -71 204t-167 93q0 -109 76 -225.5t137 -116.5q25 0 25 45zM868 592q0 27 -16 50.5t-45 23.5 q-74 0 -142.5 -76t-72.5 -154l35 -2q78 0 159.5 42t81.5 116zM1001 756q27 0 44.5 21.5t17.5 51.5q0 72 -80 115t-162 43l-35 -2q0 -72 71.5 -150.5t143.5 -78.5z" glyph-name="glyph83" horiz-adv-x="2510"/><glyph d="M1196 729q20 0 43 -6l86 -6q-125 143 -125 354q0 37 10.5 52.5t36.5 15.5q150 0 250 -122t100 -276q0 -23 -6 -41q66 -4 195 -8q-84 72 -143.5 171.5t-59.5 172.5q0 12 2 15q19 31 115 31t190.5 -34t168 -109t73.5 -173q0 -45 -23 -80h123q20 0 31.5 -12t11.5 -28 t-11 -29t-32 -13q-174 0 -252 2h-30q-31 2 -88 2q18 -39 18 -86q0 -104 -115 -213.5t-364 -109.5q-111 0 -111 75q0 82 79 181.5t185 167.5q-158 8 -237 14q6 -29 6 -64q0 -88 -121 -212.5t-217 -124.5q-53 0 -53 86q0 215 115 333q-47 4 -134 9q37 -29 37 -72 q0 -111 -109 -177.5t-219 -66.5t-110 82q0 55 38 125t95 121h-49q-16 -63 -88 -99t-146 -36t-197.5 43t-123.5 98q0 72 135 121t209 49t130 -24.5t77 -69.5q166 -4 252 -8q-139 121 -139 233q-1 90 107 90t220.5 -65.5t112.5 -178.5q0 -51 -29 -98q18 0 55 -4q5 2 25 2z" glyph-name="glyph84" horiz-adv-x="2404"/><glyph d="M152 285q-33 0 -33 34q0 27 16 43q129 111 268 218q-176 59 -305 188q-27 27 -26 49q0 35 34 35q20 0 39 -18q119 -119 304 -181q4 125 26 320q6 66 41 65q41 0 41 -47q-18 -121 -27 -334q109 23 265 101l51 26q50 33 69 15.5t19 -39.5t-29 -37q-49 -53 -350 -150 q94 -127 138 -166.5t100 -39.5q16 0 29.5 -10.5t13.5 -29t-13 -30.5t-35 -12t-45.5 5t-41 10t-40 23.5t-33 26.5t-35 38t-32.5 39t-36.5 50t-39.5 53q-132 -99 -215.5 -165t-92.5 -73t-25 -7z" glyph-name="glyph85" horiz-adv-x="989"/></font>
</defs>
</svg>
