<?xml version="1.0" standalone="no"?>
<!DOCTYPE svg PUBLIC "-//W3C//DTD SVG 1.1//EN" "http://www.w3.org/Graphics/SVG/1.1/DTD/svg11.dtd">
<svg xmlns="http://www.w3.org/2000/svg"><metadata>This SVG WebFont was generated by YouWorkForThem.
Copyright (c) 2014 by Paula Nazal &amp; Daniel Hernandez. All rights reserved.</metadata><defs><font horiz-adv-x="835" id="ywftsvg"><font-face ascent="1536" bbox="-111 -346 1860 1178" cap-height="676" descent="-512" font-family="" font-stretch="normal" font-weight="400" panose-1="0 0 0 0 0 0 0 0 0 0" underline-position="0" underline-thickness="0" unicode-range="U+0020-2260" units-per-em="2048" x-height="684"/><missing-glyph horiz-adv-x="1370"/><glyph glyph-name=".notdef" horiz-adv-x="1370"/><glyph glyph-name="glyph1" horiz-adv-x="0"/><glyph glyph-name="glyph2" horiz-adv-x="681"/><glyph glyph-name="space" horiz-adv-x="305" unicode=" "/><glyph d="M144 182q-32 0 -31 47v453q0 43 41 43t41 -45l-7 -182q0 -104 -8 -236l-4 -33q0 -47 -32 -47zM203 45q0 -27 -19.5 -45t-44 -18t-45 18t-20.5 46t19 46.5t45 18.5t45.5 -19.5t19.5 -46.5z" glyph-name="exclam" horiz-adv-x="292" unicode="!"/><glyph d="M111 1073q43 0 43 -57l2 -230q-4 -43 -43 -43t-39 45q-2 45 -2 238q4 47 39 47zM338 1073q43 0 43 -57l2 -230q-2 -43 -42 -43t-40 45q-2 45 -2 238q4 47 39 47z" glyph-name="quotedbl" horiz-adv-x="452" unicode="&quot;"/><glyph d="M545 -18q-41 0 -41 41q0 9 6 34l14 56h-235l-23 -84q-12 -47 -47 -47q-41 0 -41 41q0 10 6 34l15 56h-76q-86 0 -86 45q0 35 57 34t125 -2l64 244h-76q-86 0 -86 45q0 35 57 34t125 -1l35 127q12 47 47 47q23 0 32 -14.5t9 -25.5t-6 -36l-27 -98h236l35 127q12 47 47 47 q23 0 32 -14.5t9 -25.5t-7 -36l-26 -98l119 4q57 0 57 -35q0 -45 -76 -45t-121 -2l-63 -244l119 5q57 0 57 -35q0 -45 -77 -45t-120 -2l-22 -84q-12 -47 -47 -47zM545 190l63 244h-235l-64 -244h236z" glyph-name="numbersign" horiz-adv-x="933" unicode="#"/><glyph d="M492 600q0 -31 -29 -31q-12 -1 -59 17t-112 18t-112 -25.5t-47 -78.5q0 -30 15.5 -44t25.5 -22t28.5 -17t31 -15.5t37 -17t63.5 -28.5q71 -34 136 -75.5t65 -122.5q0 -164 -203 -174q2 -48 2 -68t-12.5 -32.5t-28.5 -12.5q-41 0 -41 45q0 12 -2 68q-78 12 -134 38t-55 60 q0 35 31 35q12 0 66 -27t129 -27q166 0 166 95q0 41 -45.5 70.5t-122.5 61.5q-110 46 -172 84t-62 119t59.5 129t139.5 60q2 61 2 84q0 45 41 45q16 0 28.5 -12.5t12.5 -36.5t-2 -78q160 -21 160 -84z" glyph-name="dollar" horiz-adv-x="583" unicode="$"/><glyph d="M539 444.5q0 -100.5 -74 -174t-174 -73.5t-175 71.5t-75 172.5t71.5 173t176 72t177.5 -70.5t73 -171zM457 445q0 75 -44 117t-123 42t-123 -43t-44 -116.5t44 -119.5t122 -46t123 45.5t45 120.5zM1276 229.5q0 -100.5 -74 -174t-174 -73.5t-175 71.5t-75 172.5t72 173 t176 72t177 -70.5t73 -171zM1194 230q0 75 -44 117t-123 42t-123 -43t-44 -116.5t44 -120t122 -46.5t123 46t45 121zM872.5 676q20.5 0 31.5 -13.5t11 -26.5t-20 -46l-406 -576q-23 -31 -40 -30q-45 0 -46 41q0 12 23 47l403 573q23 31 43.5 31z" glyph-name="percent" horiz-adv-x="1316" unicode="%"/><glyph d="M682 20q0 -38 -44 -38q-24 0 -52 28l-56 49q-112 -77 -230 -77t-174 54t-56 142t145 180q-90 90 -90 162t46 119t139 47t137.5 -47t44.5 -121q0 -100 -142 -176q14 -16 185 -174q52 49 96 123q17 27 39 27t32.5 -11.5t10.5 -24.5t-8 -28q-41 -72 -111 -139q14 -15 51 -47 t37 -48zM305 63q82 0 164 54l-195 184q-123 -72 -122 -131q0 -45 35.5 -76t117.5 -31zM207 518q0 -39 82 -117q121 55 121 117q0 86 -105 86q-47 0 -72.5 -23.5t-25.5 -62.5z" glyph-name="ampersand" horiz-adv-x="737" unicode="&amp;"/><glyph d="M111 1073q43 0 43 -57l2 -230q-4 -43 -43 -43t-39 45q-2 45 -2 238q4 47 39 47z" glyph-name="quotesingle" horiz-adv-x="225" unicode="'"/><glyph d="M424 768q0 -10 -16 -22t-52.5 -35t-58 -39.5t-95 -94t-73.5 -289.5q0 -252 87 -314t129 -86.5t44 -26.5q35 -23 35 -41q0 -27 -36 -27t-108.5 48t-118.5 99.5t-80 139.5t-34 198t34 205t80 150t117.5 108.5t118.5 53.5q27 0 27 -27z" glyph-name="parenleft" horiz-adv-x="456" unicode="("/><glyph d="M33 768q0 27 26 27q47 0 119 -53.5t118 -108.5t80 -150t34 -205t-45 -226.5t-153 -187.5t-144 -71t-35 27q0 18 35 41q2 2 44 26.5t59 37t54 49t70 104.5t33 173t-16.5 173t-37 111t-57.5 81.5t-58.5 55t-58.5 39.5t-52 35t-15 22z" glyph-name="parenright" horiz-adv-x="456" unicode=")"/><glyph d="M520 557q-17 0 -166 94v-159q0 -47 -43 -48q-39 0 -39 44t-1 95.5t-1 67.5l-137 -84q-15 -10 -29 -10t-27.5 12.5t-13.5 29.5t25 36q121 76 143 90q-27 16 -62.5 39.5t-52 34t-18.5 12.5q-35 20 -35 41q0 45 37 45q10 1 64 -33t108 -65v166q0 47 41 47t41 -58v-155 q28 16 94 57t76 41q37 0 37 -45q0 -20 -35 -41l-135 -86l146 -90q44 -32 22 -55t-39 -23z" glyph-name="asterisk" horiz-adv-x="624" unicode="*"/><glyph d="M41 346q0 35 57 35q92 -2 248 -2q2 82 2 258q0 47 41 47t41 -57v-248l246 4q57 0 57 -35q0 -45 -86 -45l-217 -6v-268q0 -47 -41 -47t-41 45l-2 270l-219 4q-86 0 -86 45z" glyph-name="plus" horiz-adv-x="774" unicode="+"/><glyph d="M285 82q0 -72 -103 -197q-45 -55 -69 -55q-39 0 -39 43q0 14 39 58t45 53q-37 8 -62.5 36.5t-25.5 71.5t31.5 74t75.5 31t76 -33t32 -82z" glyph-name="comma" horiz-adv-x="356" unicode=","/><glyph d="M82 354q0 35 57 35q129 -8 240 -8l176 2q57 0 57 -35q0 -45 -86 -45h-147l-211 6q-86 0 -86 45z" glyph-name="hyphen" horiz-adv-x="694" unicode="-"/><glyph d="M285 87q0 -44 -33 -74.5t-74 -30.5t-74.5 30.5t-33.5 76.5t31.5 77t74.5 31t76 -33t33 -77z" glyph-name="period" horiz-adv-x="354" unicode="."/><glyph d="M86 -145q-41 0 -41 41q0 9 6 34l207 797q12 47 47 47q23 0 32 -14.5t9 -25.5t-6 -36l-207 -796q-12 -47 -47 -47z" glyph-name="slash" horiz-adv-x="391" unicode="/"/><glyph d="M419.5 688q145.5 0 255 -107t109.5 -257t-118.5 -246t-247.5 -96q-187 0 -275 118.5t-88 245.5t109.5 234.5t255 107.5zM419.5 606q-106.5 0 -193.5 -84t-87 -202t90.5 -187.5t190.5 -69.5t190 72.5t90 188.5t-87 199t-193.5 83z" glyph-name="zero" horiz-adv-x="839" unicode="0"/><glyph d="M344 29q0 -47 -37 -47q-45 0 -45 47l-2 86q-2 88 -5 206.5t-3 198.5v41q0 16 -1 19.5t-9 1.5l-142 -66q-16 -8 -32 -8q-39 0 -39 41q-1 31 29 41t98 38q83 35 100.5 46.5t36.5 11.5q41 0 41 -47l-2 -117q12 -480 12 -493z" glyph-name="one" horiz-adv-x="444" unicode="1"/><glyph d="M524 31q0 -41 -41 -41q-109 2 -164 2l-196 -2q-61 0 -62 41q1 17 17 31t77.5 58t115 88t101.5 116.5t48 142.5q0 137 -174 137q-53 0 -98 -18t-56 -19q-33 0 -33 37q0 27 33 43q78 39 154 39q127 0 192.5 -59.5t65.5 -159.5q0 -58 -20.5 -101.5t-35 -68.5t-37 -49.5 t-50.5 -56t-95 -76.5l-20 -17q-6 -4 -18.5 -11.5t-12.5 -10.5q0 -4 14 -4l33 2h68l153 -2q41 0 41 -41z" glyph-name="two" horiz-adv-x="577" unicode="2"/><glyph d="M168 283q-16 0 -30.5 16t-14.5 42q1 25 31 53t104 89.5t92 79.5l33 33q0 4 -18 4l-37 -2h-74l-143 2q-53 0 -54 43q0 39 54 39q102 -2 153 -2l197 2q61 0 61 -41q0 -23 -26 -45q-76 -76 -176 -152t-99 -79q23 8 70 8q111 0 165 -53.5t54 -141.5t-64 -142t-172 -54 t-178 36q-35 16 -35 48q0 10 9.5 19t19.5 9t54 -15t110 -16q174 0 174 121q0 51 -38 82t-91 31t-84 -7t-47 -7z" glyph-name="three" horiz-adv-x="579" unicode="3"/><glyph d="M440 -18q-41 0 -41 49l-2 16v100l-284 -6q-74 0 -74 70q0 31 24 100l109 332q16 43 50 43t34 -37q0 -10 -6 -33q-82 -256 -102 -313t-21 -65q0 -14 23 -15l247 6q-4 188 -4 211q0 47 45 47q37 0 37 -47q0 -127 2 -209h19q45 0 45 -40.5t-45 -40.5h-19v-5l4 -116 q0 -47 -41 -47z" glyph-name="four" horiz-adv-x="575" unicode="4"/><glyph d="M94 522q0 67 -4 101v18q0 41 62 41q137 -2 165 -2l113 2q51 0 51 -41t-48 -42t-97 -1h-20l-123 2q-18 0 -19 -18l2 -60v-110q0 -18 17 -19l73 10q123 0 183.5 -57t60.5 -153t-66 -153.5t-174 -57.5t-182 36q-37 18 -37 50t35 32q18 0 64 -18t118 -19q158 0 158 134 q0 59 -44 94t-104 35t-95.5 -8.5t-41.5 -8.5q-47 0 -47 60v153z" glyph-name="five" horiz-adv-x="563" unicode="5"/><glyph d="M403 686q33 0 33 -31q0 -23 -20 -32q-184 -98 -246 -234q58 41 158 41t159.5 -64.5t59.5 -159.5t-66.5 -159.5t-170.5 -64.5t-179.5 66t-75.5 172q0 199 105 298t198 156q20 12 45 12zM310 348q-79 0 -126 -38t-47 -74q0 -84 48 -128.5t112 -44.5q168 0 168 152 q0 55 -38 94t-117 39z" glyph-name="six" horiz-adv-x="587" unicode="6"/><glyph d="M176 20q0 14 12 39l91 199h-107q-55 0 -55 41t47 41q84 -2 137 -2h12l97 227l12 31q0 4 -47 3t-137 -1l-154 2q-51 0 -51 41t51 41q113 -2 164 -2l217 2q59 0 59 -39q0 -23 -20 -59t-60.5 -130t-50.5 -116l43 2q47 0 47 -37q0 -43 -55 -43l-72 -2q-70 -154 -102 -240 q-14 -37 -41 -36q-37 0 -37 38z" glyph-name="seven" horiz-adv-x="559" unicode="7"/><glyph d="M57 180q0 131 125 174q-92 46 -92 142t60.5 143t151.5 47t153.5 -48t62.5 -143t-96 -143q129 -45 129 -172q0 -98 -71.5 -148t-178 -50t-175.5 49t-69 149zM467 180q0 125 -163 125t-163 -125q0 -57 46 -87t115 -30t117 30t48 87zM303 387q47 0 90 27.5t43 81.5t-40 82 t-94 28t-92 -28.5t-38 -82.5t42 -81t89 -27z" glyph-name="eight" horiz-adv-x="608" unicode="8"/><glyph d="M184 -18q-33 0 -32 30q0 23 20 33q186 102 246 234q-61 -41 -160 -41t-158 64.5t-59 159.5t66.5 159.5t170.5 64.5t179 -66t75 -172q0 -201 -105.5 -300t-197.5 -154q-22 -12 -45 -12zM277 319q79 0 126.5 38t47.5 75q0 84 -48.5 128t-111.5 44q-168 0 -168 -151 q0 -55 37.5 -94.5t116.5 -39.5z" glyph-name="nine" horiz-adv-x="587" unicode="9"/><glyph d="M297 87q0 -44 -33 -74.5t-73.5 -30.5t-74.5 30.5t-34 76.5t31.5 77t74.5 31t76 -33t33 -77zM297 577q0 -44 -33 -75t-73.5 -31t-74.5 30.5t-34 76.5t31.5 77t74.5 31t76 -32.5t33 -76.5z" glyph-name="colon" horiz-adv-x="378" unicode=":"/><glyph d="M297 577q0 -44 -33 -75t-73.5 -31t-74.5 30.5t-34 76.5t31.5 77t74.5 31t76 -32.5t33 -76.5zM297 82q0 -72 -102 -197q-45 -55 -70 -55q-39 0 -39 43q0 22 19.5 39.5t23.5 22.5t19.5 22.5t21.5 26.5q-37 8 -62.5 36.5t-25.5 71.5t31.5 74t75.5 31t76 -33t32 -82z" glyph-name="semicolon" horiz-adv-x="378" unicode=";"/><glyph d="M557 591q0 -42 -412 -267q29 -16 165 -90.5t192 -116.5q55 -41 55 -57t-9 -28t-23.5 -12t-50.5 20t-152 85t-148 85t-48.5 31t-26 16t-21.5 12t-17.5 13.5t-14.5 14t-9 27.5t24.5 40.5t88.5 60.5t175 100.5t148 82.5t51.5 21.5t23.5 -12t9 -26.5z" glyph-name="less" horiz-adv-x="620" unicode="&lt;"/><glyph d="M82 541q0 35 57 34q129 -6 240 -6l291 9q57 0 57 -35q0 -45 -86 -45l-262 -6l-211 4q-86 0 -86 45zM82 180q0 35 57 35q129 -6 240 -6l291 8q57 0 57 -35q0 -45 -86 -45l-262 -6l-211 4q-86 0 -86 45z" glyph-name="equal" horiz-adv-x="808" unicode="="/><glyph d="M63 591q0 15 9.5 26.5t24 12t51.5 -21.5t147.5 -82.5t156.5 -90.5t63 -40t43 -30.5t26 -34.5t-2 -21.5t-9.5 -13.5t-12.5 -12.5t-17.5 -13.5t-21.5 -12t-26 -16t-49 -31t-148 -85t-152 -85t-50 -20t-23.5 11.5t-9.5 27.5q1 17 43 49t97 64.5t149 83.5t123 68 q-33 18 -98.5 55t-105.5 59.5t-87 51t-84 57.5t-37 44z" glyph-name="greater" horiz-adv-x="620" unicode=">"/><glyph d="M70 549q-31 0 -31 32q0 33 51 69t140 36t135.5 -40t46.5 -110t-41 -125t-82 -99t-41 -72q0 -51 -39 -52q-43 0 -43 56t82 138.5t82 133.5q0 88 -107 88q-63 0 -98 -28t-55 -27zM272 45q0 -27 -19.5 -45t-44 -18t-45 18t-20.5 46t18.5 46.5t45.5 18.5t46 -19.5t19 -46.5z " glyph-name="question" horiz-adv-x="452" unicode="?"/><glyph d="M1047 63q80 0 155.5 88.5t75.5 306.5t-170 353t-403 135t-357.5 -113.5t-173.5 -235.5t-49 -273q0 -299 262 -455q64 -37 64 -70t-31 -32q-71 0 -188 111t-153 228.5t-36 253.5t56.5 274t199.5 266t409 128q265 0 458.5 -158.5t193.5 -425.5q0 -131 -33 -228t-109 -165.5 t-171 -68.5q-129 0 -164 127q-85 -127 -225 -127t-216.5 91t-76.5 245t87 261t224 107t207.5 -72.5t70.5 -191.5l-2 -180q0 -102 22.5 -140.5t72.5 -38.5zM678 604q-100 0 -166 -83t-66 -201t54.5 -187.5t144.5 -69.5q147 0 227 121q-2 18 -2 58l2 180q0 182 -194 182z" glyph-name="at" horiz-adv-x="1406" unicode="@"/><glyph d="M49 -18q-35 0 -35 32q0 12 21 58l196 460q66 156 127.5 156t126.5 -156l199 -456q21 -46 21 -58q0 -32 -34 -32t-53 45q-12 23 -47 106q-14 -6 -43 -6l-211 -2l-170 2l-45 -104q-18 -45 -53 -45zM361 207q136 0 178 4l-125 289q-45 106 -56 106t-26 -41.5t-27 -64.5 l-125 -291q45 -2 181 -2z" glyph-name="A" horiz-adv-x="716" unicode="A"/><glyph d="M184 676h115q281 0 281 -184q0 -129 -134 -162v-2q90 0 137.5 -48t47.5 -124t-72 -125t-178 -49h-117q-94 0 -128 29.5t-34 92.5l-6 257q-6 257 13.5 286t74.5 29zM184 104q0 -23 16.5 -32t63.5 -9h117q82 0 125 30t43 73q0 117 -242 117l-127 2q4 -53 4 -181zM498 492 q0 102 -199 102h-90q-33 0 -33 -33v-90l4 -111l131 -2q50 0 118.5 25t68.5 109z" glyph-name="B" horiz-adv-x="681" unicode="B"/><glyph d="M403 -18q-124 0 -237 85t-113 249t115 268t237 104t188 -26.5t66 -61.5t-36 -35q-6 0 -56.5 20.5t-149 20.5t-190.5 -82t-92 -206t88.5 -189.5t190.5 -65.5t152 20.5t57 20.5q37 0 36 -36q0 -33 -66 -59.5t-190 -26.5z" glyph-name="C" horiz-adv-x="710" unicode="C"/><glyph d="M184 682h142q190 0 283 -95t93 -259t-111.5 -255t-287.5 -91q-117 0 -159 28.5t-42 91.5l-12 445q0 78 19.5 106.5t74.5 28.5zM303 63q156 0 237 70t81 197q0 270 -295 270h-111q-45 0 -45 -39v-84l14 -344q0 -37 24.5 -53.5t94.5 -16.5z" glyph-name="D" horiz-adv-x="757" unicode="D"/><glyph d="M190 684h154l139 2q23 0 37.5 -11t14.5 -29t-15.5 -30t-32.5 -12q-239 -2 -275 -2t-36 -33l6 -215h84l166 4q47 0 47 -40t-65 -39l-148 -3q-51 0 -82 3v-35l-2 -103q0 -55 24.5 -61t53.5 -6l256 2q18 0 32.5 -12.5t14.5 -30.5q0 -41 -45 -41h-289q-117 0 -123 44t-6 62 v146l-6 356q0 84 96 84z" glyph-name="E" horiz-adv-x="604" unicode="E"/><glyph d="M193 690q18 0 163 2h146q47 0 47 -39q0 -20 -13.5 -31.5t-29.5 -11.5q-254 -2 -283 -2q-45 0 -45 -39l6 -215h70l166 4q47 0 47 -40t-66 -39l-147 -3h-68v-28l-2 -211q0 -45 -49 -45q-35 0 -35 59l4 199l-8 350q0 90 97 90z" glyph-name="F" horiz-adv-x="587" unicode="F"/><glyph d="M561 248h-145q-51 0 -51 43q0 14 15 26.5t38 12.5q125 -2 203 -2q45 0 45 -47l-2 -177q-1 -48 -46 -77q-72 -45 -206 -45t-246.5 85t-112.5 249t115 268t237 104t188 -26.5t66 -61.5t-36 -35q-6 0 -56.5 20.5t-149 20.5t-190.5 -82t-92 -206t87.5 -189.5t189.5 -65.5 t147 19q25 14 25 51l2 82q0 33 -25 33z" glyph-name="G" horiz-adv-x="731" unicode="G"/><glyph d="M633 -18q-41 0 -41 47l4 116l-4 136q-12 -12 -51 -13l-211 -2l-146 2l6 -239q0 -47 -36 -47q-45 0 -45 47l-11 491v117q0 49 41 49t41 -47l-2 -117q0 -57 4 -176l148 -2l229 4q20 0 31 -10q-8 287 -8 301q0 47 36 47q45 0 46 -47l12 -492v-19l-2 -97q0 -49 -41 -49z" glyph-name="H" horiz-adv-x="772" unicode="H"/><glyph d="M88 598q-47 0 -47 35q0 45 63 43l74 -2l78 2q63 2 63 -43q0 -12 -13.5 -23.5t-33.5 -11.5h-47v-86l11 -453h51q47 0 47 -34q0 -43 -64 -43h-151q-63 0 -64 43q0 12 13.5 23t33.5 11h52l-9 451l-2 88h-55z" glyph-name="I" horiz-adv-x="376" unicode="I"/><glyph d="M361 688q42 0 42 -47q-4 -325 -4 -389t-8 -167t-176 -103q-90 0 -141 34q-39 31 -39 64t33 33q10 -1 18 -7t40 -25.5t73 -19.5q82 0 99 50.5t17 115.5l4 414q0 47 42 47z" glyph-name="J" horiz-adv-x="495" unicode="J"/><glyph d="M109 29l-13 418v39l2 151q0 49 41 49t41 -47l-4 -117q0 -20 1 -63t1 -66q338 259 363 277t51 18t26 -29t-32 -53q-307 -229 -328 -248q-23 -16 -22 -26q0 -2 10.5 -9t28.5 -25t72 -59.5t99.5 -75.5t92.5 -68t49 -36q33 -25 33 -47q0 -31 -29 -30q-27 0 -39 9t-152 111 t-219 162q8 -180 8 -231t-36 -51q-45 0 -45 47z" glyph-name="K" horiz-adv-x="657" unicode="K"/><glyph d="M563 29q0 -41 -45 -41h-289q-117 0 -123 44t-6 74v134l-6 401q0 47 42 47t42 -47l6 -401l-2 -103q0 -55 24.5 -61t53.5 -6l256 2q14 0 30.5 -13.5t16.5 -29.5z" glyph-name="L" horiz-adv-x="593" unicode="L"/><glyph d="M756 482q0 28 -7 28t-18 -18q-119 -229 -196 -338q-33 -45 -62 -45t-59 43q-96 133 -203 340q-10 18 -15 18q-6 0 -6 -28t-5 -142.5t-9 -214.5l-6 -100q0 -43 -43 -43q-37 0 -37 45q18 455 19 536q0 129 47 129q37 0 69 -65q109 -211 191 -346q43 -78 58 -78 q29 0 249 424q33 66 68 65q47 0 47 -129l18 -536q0 -45 -37 -45q-43 0 -43 43l-6 100q-4 100 -9 214.5t-5 142.5z" glyph-name="M" horiz-adv-x="946" unicode="M"/><glyph d="M705 31q0 -49 -41 -49q-25 0 -37 14t-35.5 46t-97.5 116t-316 385v-21q12 -480 12 -493q0 -47 -36 -47q-45 0 -45 47l-11 491v117q0 49 41 49q23 0 41 -28t183 -227.5t247 -289.5l15 -16v20l-13 494q0 47 37 47q45 0 45 -47l11 -492v-116z" glyph-name="N" horiz-adv-x="800" unicode="N"/><glyph d="M417.5 688q145.5 0 255 -107t109.5 -257t-118.5 -246t-247.5 -96q-187 0 -275 118.5t-88 245.5t109.5 234.5t255 107.5zM417.5 606q-106.5 0 -193.5 -84t-87 -202t90.5 -187.5t190.5 -69.5t190 72.5t90 188.5t-87 199t-193.5 83z" glyph-name="O" unicode="O"/><glyph d="M143 -18q-41 0 -41 47q-4 233 -4 325l4 258q0 70 80 70h76q373 0 373 -266q0 -260 -346 -260q-39 0 -92 4h-11l2 -131q0 -47 -41 -47zM180 352v-110h15q25 -2 84 -2q108 0 189 31.5t81 144.5q0 184 -295 184h-35q-33 0 -35 -25q-4 -160 -4 -223z" glyph-name="P" horiz-adv-x="675" unicode="P"/><glyph d="M417.5 688q145.5 0 255 -107.5t109.5 -246.5q0 -188 -168 -293l97 -84q41 -41 13 -67t-83 24t-98 92q-138 -55 -252.5 -4t-176 134t-61.5 210t109.5 234.5t255 107.5zM417.5 606q-106.5 0 -193.5 -84t-87 -202t90.5 -187.5t190.5 -69.5t190 72.5t90 188.5t-87 199 t-193.5 83z" glyph-name="Q" unicode="Q"/><glyph d="M143 -18q-41 0 -41 47q-4 233 -4 325l4 258q0 70 80 70h76q373 0 373 -246q0 -172 -174 -221l18 -16q23 -20 49.5 -57.5t46 -59t41.5 -21.5h31q12 0 23.5 -11t11.5 -27q0 -41 -61 -41t-120.5 56.5t-90.5 117.5q-31 43 -68 43l-53 -2q-39 0 -92 4h-13l4 -172 q0 -47 -41 -47zM180 352v-69h15q25 -2 90 -2q264 0 264 155q0 164 -295 164h-35q-33 0 -35 -25q-4 -160 -4 -223z" glyph-name="R" horiz-adv-x="712" unicode="R"/><glyph d="M498 600q0 -31 -29 -31q-12 -1 -59 17t-112 18t-112 -25.5t-47 -78.5q0 -30 15.5 -44t25.5 -22t28.5 -17t31 -15.5t37 -17t63.5 -28.5q71 -34 136 -75.5t65 -122.5q0 -176 -248 -176q-82 0 -180 45q-45 20 -45 55t30 35q12 0 66 -27t129 -27q166 0 166 95q0 41 -45 70.5 t-122 61.5t-97.5 41t-79 45t-58.5 122t77 137t168 51t161 -37q35 -18 35 -49z" glyph-name="S" horiz-adv-x="587" unicode="S"/><glyph d="M27 651q0 41 47 41q129 -8 231 -8l250 8q47 0 47 -37q0 -43 -55 -43q-29 0 -193 -8v-102l11 -473q0 -47 -37 -47q-45 0 -45 47l-11 575l-190 6q-55 0 -55 41z" glyph-name="T" horiz-adv-x="628" unicode="T"/><glyph d="M130 688q42 0 42 -49q4 -150 4 -164v-178q0 -100 50 -167t170 -67t173.5 65t53.5 161v194l-7 152q0 53 41 53t43 -56q5 -140 5 -155v-188q0 -133 -73 -220t-235 -87t-233.5 97t-71.5 218v170l-2 137l-2 25q0 59 42 59z" glyph-name="U" horiz-adv-x="794" unicode="U"/><glyph d="M705 651q0 -12 -21 -57l-199 -457q-66 -156 -127 -155.5t-127 155.5l-196 461q-20 45 -21 57q0 33 35 33t53 -45q12 -27 58 -131l145 -342q13 -26 21 -49t17 -40.5t17 -17.5t54 107l204 469q18 45 52 45t35 -33z" glyph-name="V" horiz-adv-x="716" unicode="V"/><glyph d="M975 655q0 -14 -11 -52t-42 -145.5t-54.5 -189.5t-39.5 -138t-39 -102t-60 -46q-55 0 -111 180q-35 98 -116 385l-117 -385q-55 -180 -111 -180q-61 0 -99 152q-15 60 -81.5 281.5t-66.5 239.5q-1 31 35 31t53 -57q131 -441 140 -489t13 -62.5t6 -14.5t7.5 17.5 t12.5 50.5t51 159t104 331q20 66 53 65q35 0 55 -68t76.5 -240.5t63.5 -194.5t14.5 -53.5t11.5 -49t6.5 -17.5t21.5 82t138 484q16 57 51 57t35 -31z" glyph-name="W" horiz-adv-x="1001" unicode="W"/><glyph d="M645 14q0 -33 -35 -32q-27 0 -71 55l-189 225l-190 -225q-45 -55 -72 -55q-35 0 -35 32q0 18 37 66l207 246l-223 262q-35 45 -35 65q0 33 35 33q27 0 71 -55l203 -242l207 242q45 55 70 55q35 0 34 -33q1 -20 -34 -65l-222 -262q37 -45 88.5 -104.5t80 -94.5t50.5 -63 t23 -50z" glyph-name="X" horiz-adv-x="698" unicode="X"/><glyph d="M621 649q0 -27 -23 -59q-162 -250 -194 -286t-50 -46q4 -209 4 -229q0 -47 -36 -47q-45 0 -46 47q0 12 -4 233q-20 12 -47 45t-188 283q-23 33 -23 59q0 37 39 37q20 0 47 -41q170 -261 192 -289t27 -28q6 0 31 32t189 285q27 41 43 41q39 0 39 -37z" glyph-name="Y" horiz-adv-x="632" unicode="Y"/><glyph d="M612 651q0 -31 -32 -69l-418 -512q57 -2 160 -2l229 4q47 0 47 -40t-66 -40l-210 -2l-236 2q-20 0 -32.5 12t-12.5 31t33 57l420 512q-57 2 -158 2l-230 -4q-47 0 -47 40t66 40l211 2l233 -2q43 0 43 -31z" glyph-name="Z" horiz-adv-x="655" unicode="Z"/><glyph d="M180 330q0 -202 -4 -273t-4 -77q0 -55 49 -56h94q55 0 55.5 -39t-63.5 -39h-86q-74 0 -102.5 32t-28.5 102q0 6 4 67t4 241v371l-2 52q0 77 24 77h208q49 0 49 -43q0 -35 -49 -34h-107q-43 0 -43 -35v-4v-34z" glyph-name="bracketleft" horiz-adv-x="415" unicode="["/><glyph d="M346 -102q0 -8 -6 -25.5t-35 -17.5q-35 0 -47 47l-207 796q-6 25 -6 33t6 25.5t35 17.5q35 0 47 -47l207 -797q6 -24 6 -32z" glyph-name="backslash" horiz-adv-x="391" unicode="\"/><glyph d="M238 676q0 35 -43 35h-107q-49 0 -49 34q0 43 59 43h110q111 0 111 -77v-52q-2 -53 -2 -70v-259q0 -207 4.5 -275.5t4.5 -74.5q0 -70 -29 -102t-102 -32h-86q-63 0 -63.5 39t54.5 39h95q49 0 49 56q0 6 -4 77t-4 208v73v172z" glyph-name="bracketright" horiz-adv-x="415" unicode="]"/><glyph d="M440 811q-20 0 -45 31l-96 114q-8 8 -13 15.5t-8.5 10.5t-6.5 4t-7 1t-8 -2t-6 -5t-20 -20t-97 -118q-25 -31 -45 -31q-41 0 -41 41q-1 16 19 40t63 78t48 60q50 60 72.5 60t30 -1.5t14.5 -5.5t12 -7t12.5 -10t10.5 -10t10 -11.5t12 -14.5t48 -60.5t63 -77.5t19 -40 q0 -41 -41 -41z" glyph-name="asciicircum" horiz-adv-x="526" unicode="^"/><glyph d="M88 43q0 35 57 35h312l248 2q57 0 57 -35q0 -45 -86 -45h-219l-283 -2q-86 0 -86 45z" glyph-name="underscore" horiz-adv-x="841" unicode="_"/><glyph d="M451 811q-15 -1 -95 31t-166 73q-47 20 -47 50q0 20 12.5 35.5t32.5 15.5t44 -14q26 -14 106 -56.5t100 -52.5q49 -23 49 -45q1 -37 -36 -37z" glyph-name="grave" horiz-adv-x="630" unicode="`"/><glyph d="M375 686q147 0 213.5 -96t68.5 -217l7 -328q0 -42 -10.5 -52.5t-28.5 -10.5q-43 0 -44 48t-1 115h-166q-129 0 -244 5l-2 -121q0 -47 -43 -47q-32 0 -35.5 20.5t-3.5 42.5l1 34l5 294q0 111 44 182.5t102.5 101t136.5 29.5zM374 596q-108 0 -154 -64.5t-46 -160.5 l-2 -138q104 -6 230 -6t176 2l-3 142q0 96 -46.5 160.5t-154.5 64.5z" glyph-name="a" horiz-adv-x="751" unicode="a"/><glyph d="M184 676h115q281 0 281 -184q0 -129 -134 -162v-2q90 0 137.5 -48t47.5 -124t-72 -125t-178 -49h-117q-94 0 -128 29.5t-34 92.5l-6 257q-6 257 13.5 286t74.5 29zM184 104q0 -23 16.5 -32t63.5 -9h117q82 0 125 30t43 73q0 117 -242 117l-127 2q4 -53 4 -181zM498 492 q0 102 -199 102h-90q-33 0 -33 -33v-90l4 -111l131 -2q50 0 118.5 25t68.5 109z" glyph-name="b" horiz-adv-x="681" unicode="b"/><glyph d="M403 -18q-124 0 -237 85t-113 249t115 268t237 104t188 -26.5t66 -61.5t-36 -35q-6 0 -56.5 20.5t-149 20.5t-190.5 -82t-92 -206t88.5 -189.5t190.5 -65.5t152 20.5t57 20.5q37 0 36 -36q0 -33 -66 -59.5t-190 -26.5z" glyph-name="c" horiz-adv-x="710" unicode="c"/><glyph d="M184 682h142q190 0 283 -95t93 -259t-111.5 -255t-287.5 -91q-117 0 -159 28.5t-42 91.5l-12 445q0 78 19.5 106.5t74.5 28.5zM303 63q156 0 237 70t81 197q0 270 -295 270h-111q-45 0 -45 -39v-84l14 -344q0 -37 24.5 -53.5t94.5 -16.5z" glyph-name="d" horiz-adv-x="757" unicode="d"/><glyph d="M190 684h154l139 2q23 0 37.5 -11t14.5 -29t-15.5 -30t-32.5 -12q-239 -2 -275 -2t-36 -33l6 -215h84l166 4q47 0 47 -40t-65 -39l-148 -3q-51 0 -82 3v-35l-2 -103q0 -55 24.5 -61t53.5 -6l256 2q14 0 30.5 -13.5t16.5 -29.5q0 -41 -45 -41h-289q-117 0 -123 44t-6 75 v133l-6 356q0 84 96 84z" glyph-name="e" horiz-adv-x="604" unicode="e"/><glyph d="M193 690q18 0 163 2h146q47 0 47 -39q0 -20 -13.5 -31.5t-29.5 -11.5q-254 -2 -283 -2q-45 0 -45 -39l6 -215h70l166 4q47 0 47 -40t-66 -39l-147 -3h-68v-28l-2 -211q0 -45 -49 -45q-35 0 -35 59l4 199l-8 350q0 90 97 90z" glyph-name="f" horiz-adv-x="587" unicode="f"/><glyph d="M561 248h-145q-51 0 -51 43q0 14 15 26.5t38 12.5q125 -2 203 -2q45 0 45 -47l-2 -177q-2 -115 -246 -122q-139 0 -252 85t-113 249t115 268t237 104t188 -26.5t66 -61.5t-36 -35q-6 0 -56.5 20.5t-149 20.5t-190.5 -82t-92 -206t87.5 -189.5t189.5 -65.5t147 19 q25 14 25 51l2 82q0 33 -25 33z" glyph-name="g" horiz-adv-x="731" unicode="g"/><glyph d="M633 -18q-41 0 -41 47l4 116l-4 136q-12 -12 -51 -13l-211 -2l-146 2l6 -239q0 -47 -36 -47q-45 0 -45 47l-11 491v117q0 49 41 49t41 -47l-2 -117q0 -57 4 -176l148 -2l229 4q20 0 31 -10q-8 287 -8 301q0 47 36 47q45 0 46 -47l12 -492v-19l-2 -97q0 -49 -41 -49z" glyph-name="h" horiz-adv-x="772" unicode="h"/><glyph d="M88 598q-47 0 -47 35q0 45 63 43l66 -2l86 2q63 2 63 -43q0 -12 -13.5 -23.5t-33.5 -11.5h-47v-86l11 -453h51q47 0 47 -34q0 -43 -64 -43h-151q-63 0 -64 43q0 12 13.5 23t33.5 11h52l-9 451l-2 88h-55z" glyph-name="i" horiz-adv-x="376" unicode="i"/><glyph d="M361 688q42 0 42 -47q-4 -325 -4 -389t-8 -167t-176 -103q-90 0 -141 34q-39 31 -39 64t33 33q10 -1 18 -7t40 -25.5t73 -19.5q82 0 99 50.5t17 115.5l4 414q0 47 42 47z" glyph-name="j" horiz-adv-x="495" unicode="j"/><glyph d="M109 29l-13 418v39l2 151q0 49 41 49t41 -47l-4 -117q0 -20 1 -63t1 -66q338 259 363 277t51 18t26 -29t-32 -53q-307 -229 -328 -248q-23 -16 -22 -26q0 -2 10.5 -9t26.5 -21t54 -45.5t81 -63t78.5 -59.5t67.5 -50.5t34 -24.5q33 -25 33 -47q0 -31 -29 -30q-27 0 -39 9 t-152 111t-219 162q8 -180 8 -231t-36 -51q-45 0 -45 47z" glyph-name="k" horiz-adv-x="657" unicode="k"/><glyph d="M563 30q0 -42 -45 -42h-289q-117 0 -123 44t-6 74v134l-6 401q0 47 42 47t42 -47v-76q0 -6 6 -325l-2 -103q0 -55 24.5 -61t53.5 -6l256 2q47 0 47 -42z" glyph-name="l" horiz-adv-x="593" unicode="l"/><glyph d="M756 482q0 28 -7 28t-18 -18q-119 -229 -196 -338q-33 -45 -62 -45t-59 43q-96 133 -203 340q-10 18 -15 18q-6 0 -6 -28t-5 -142.5t-9 -214.5l-6 -100q0 -43 -43 -43q-37 0 -37 45q18 455 19 536q0 129 47 129q37 0 69 -65q109 -211 191 -346q43 -78 58 -78 q29 0 249 424q33 66 68 65q47 0 47 -129l18 -536q0 -45 -37 -45q-43 0 -43 43l-6 100q-4 100 -9 214.5t-5 142.5z" glyph-name="m" horiz-adv-x="946" unicode="m"/><glyph d="M705 31q0 -49 -41 -49q-25 0 -37 14t-35.5 46t-97.5 116t-316 385v-21q12 -480 12 -493q0 -47 -36 -47q-45 0 -45 47l-11 491v117q0 49 41 49q23 0 41 -28t183 -227.5t247 -289.5l15 -16v20l-13 494q0 47 37 47q45 0 45 -47l11 -492v-116z" glyph-name="n" horiz-adv-x="800" unicode="n"/><glyph d="M417.5 688q145.5 0 255 -107t109.5 -257t-118.5 -246t-247.5 -96q-187 0 -275 118.5t-88 245.5t109.5 234.5t255 107.5zM417.5 606q-106.5 0 -193.5 -84t-87 -202t90.5 -187.5t190.5 -69.5t190 72.5t90 188.5t-87 199t-193.5 83z" glyph-name="o" unicode="o"/><glyph d="M143 -18q-41 0 -41 47q-4 233 -4 325l4 258q0 70 80 70h76q373 0 373 -266q0 -260 -346 -260q-39 0 -92 4h-11l2 -131q0 -47 -41 -47zM180 352v-110h15q25 -2 84 -2q108 0 189 31.5t81 144.5q0 184 -295 184h-35q-33 0 -35 -25q-4 -160 -4 -223z" glyph-name="p" horiz-adv-x="675" unicode="p"/><glyph d="M417.5 688q145.5 0 255 -107.5t109.5 -246.5q0 -188 -168 -293l97 -84q41 -41 13 -67t-83 24t-98 92q-138 -55 -252.5 -4t-176 134t-61.5 210t109.5 234.5t255 107.5zM417.5 606q-106.5 0 -193.5 -84t-87 -202t90.5 -187.5t190.5 -69.5t190 72.5t90 188.5t-87 199 t-193.5 83z" glyph-name="q" unicode="q"/><glyph d="M143 -18q-41 0 -41 47q-4 233 -4 325l4 258q0 70 80 70h76q373 0 373 -246q0 -172 -174 -221l18 -16q23 -20 49.5 -57.5t46 -59t41.5 -21.5h31q12 0 23.5 -11t11.5 -27q0 -41 -61 -41t-120.5 56.5t-90.5 117.5q-31 43 -68 43l-53 -2q-39 0 -92 4h-13l4 -172 q0 -47 -41 -47zM180 352v-69h15q25 -2 90 -2q264 0 264 155q0 164 -295 164h-35q-33 0 -35 -25q-4 -160 -4 -223z" glyph-name="r" horiz-adv-x="712" unicode="r"/><glyph d="M498 600q0 -31 -29 -31q-12 -1 -59 17t-112 18t-112 -25.5t-47 -78.5q0 -30 15.5 -44t25.5 -22t28.5 -17t31 -15.5t37 -17t63.5 -28.5q71 -34 136 -75.5t65 -122.5q0 -176 -248 -176q-82 0 -180 45q-45 20 -45 55t30 35q12 0 66 -27t129 -27q166 0 166 95q0 41 -45 70.5 t-122 61.5t-97.5 41t-79 45t-58.5 122t77 137t168 51t161 -37q35 -18 35 -49z" glyph-name="s" horiz-adv-x="587" unicode="s"/><glyph d="M27 651q0 41 47 41q129 -8 231 -8l250 8q47 0 47 -37q0 -43 -55 -43q-29 0 -193 -8v-102l11 -473q0 -47 -37 -47q-45 0 -45 47l-11 575l-190 6q-55 0 -55 41z" glyph-name="t" horiz-adv-x="628" unicode="t"/><glyph d="M130 688q42 0 42 -49q4 -133 4 -164v-178q0 -100 50 -167t170 -67t173.5 65t53.5 161v194l-7 152q0 53 41 53t43 -56q5 -140 5 -155v-188q0 -133 -73 -220t-235 -87t-233.5 97t-71.5 218v170l-2 137l-2 25q0 59 42 59z" glyph-name="u" horiz-adv-x="794" unicode="u"/><glyph d="M705 651q0 -12 -21 -57l-199 -457q-66 -156 -127 -155.5t-127 155.5l-196 461q-20 45 -21 57q0 33 35 33t53 -45q12 -27 58 -131l145 -342q13 -26 21 -49t17 -40.5t17 -17.5t54 107l204 469q18 45 52 45t35 -33z" glyph-name="v" horiz-adv-x="716" unicode="v"/><glyph d="M975 655q0 -14 -11 -52t-42 -145.5t-54.5 -189.5t-39.5 -138t-39 -102t-60 -46q-55 0 -111 180q-35 98 -116 385l-117 -385q-55 -180 -111 -180q-61 0 -99 152q-15 60 -81.5 281.5t-66.5 239.5q-1 31 35 31t53 -57q131 -441 140 -489t13 -62.5t6 -14.5t7.5 17.5 t12.5 50.5t51 159t104 331q20 66 53 65q35 0 55 -64t75.5 -236.5t63.5 -198.5t15.5 -57.5t11.5 -49t6.5 -17.5t21.5 82t138 484q16 57 51 57t35 -31z" glyph-name="w" horiz-adv-x="1001" unicode="w"/><glyph d="M645 14q0 -33 -35 -32q-27 0 -71 55l-189 225l-190 -225q-45 -55 -72 -55q-35 0 -35 32q0 18 37 66l207 246l-223 262q-35 45 -35 65q0 33 35 33q27 0 71 -55l203 -242l207 242q45 55 70 55q35 0 34 -33q1 -20 -34 -65l-222 -262q37 -45 88.5 -104.5t80 -94.5t50.5 -63 t23 -50z" glyph-name="x" horiz-adv-x="698" unicode="x"/><glyph d="M43 537v86q0 43 10 53t29 10q43 0 43 -47v-102q0 -225 200.5 -225t200.5 225v102q0 47 43 47q32 0 35.5 -20.5t3.5 -42.5v-86q0 -113 -59.5 -208.5t-190.5 -107.5l4 -192q0 -47 -36 -47q-45 0 -45 47l-5 194q-123 18 -178 111.5t-55 202.5z" glyph-name="y" horiz-adv-x="653" unicode="y"/><glyph d="M612 651q0 -31 -32 -69l-418 -512q57 -2 160 -2l229 4q47 0 47 -40t-66 -40l-210 -2l-236 2q-20 0 -32.5 12t-12.5 31t33 57l420 512q-57 2 -158 2l-230 -4q-47 0 -47 40t66 40l211 2l233 -2q43 0 43 -31z" glyph-name="z" horiz-adv-x="655" unicode="z"/><glyph d="M74 221q-29 0 -41.5 23.5t0 47t41.5 23.5t48 22.5t19 65.5l-14 177q0 111 58.5 162t120.5 51t63 -37q0 -45 -45 -45t-80 -33t-35 -98l14 -177q0 -94 -65 -135q66 -41 65 -135l-14 -176q0 -66 35 -98.5t80 -32.5t45 -45q0 -37 -63 -37t-121 51t-58 162l14 176 q0 43 -19 65.5t-48 22.5z" glyph-name="braceleft" horiz-adv-x="405" unicode="{"/><glyph d="M137 805q41 0 41 -57l2 -220l8 -655q0 -47 -41 -47t-41 45q-6 138 -6 655l-4 232q0 47 41 47z" glyph-name="bar" horiz-adv-x="282" unicode="|"/><glyph d="M332 315q29 0 41 -23.5t0 -47t-41 -23.5t-48.5 -22.5t-19.5 -65.5l15 -176q0 -111 -58.5 -162t-120.5 -51t-63 37q0 45 45 45t80 32.5t35 98.5l-15 176q0 94 66 135q-66 41 -66 135l15 177q0 66 -35 98.5t-80 32.5t-45 45q1 37 63 37t120.5 -51.5t58.5 -161.5l-15 -177 q0 -43 19.5 -65.5t48.5 -22.5z" glyph-name="braceright" horiz-adv-x="405" unicode="}"/><glyph d="M122.5 381q-16.5 0 -28.5 10.5t-12 28.5t18 41q94 109 186 109t164 -44q70 -43 102 -43t58 25t45 24q37 0 37 -38q0 -18 -18 -37q-104 -104 -244 -13q-70 43 -140 43t-124 -73q-27 -33 -43.5 -33z" glyph-name="asciitilde" horiz-adv-x="774" unicode="~"/><glyph glyph-name="uni00A0" horiz-adv-x="303" unicode=" "/><glyph d="M115 438q0 47 29 47t31.5 -15t2.5 -32v-452q0 -43 -41 -43t-41 45l6 182q0 88 9 236zM88 622.5q0 26.5 19.5 45t44 18.5t45 -18t20.5 -46t-18.5 -46.5t-44.5 -18.5t-46 19.5t-20 46z" glyph-name="exclamdown" horiz-adv-x="290" unicode="¡"/><glyph d="M389 754q0 45 41 45t41 -43q-4 -14 -6 -70q90 -6 144.5 -30.5t54.5 -53.5q0 -37 -37 -37q-6 0 -56.5 20.5t-148.5 20.5t-190.5 -82t-92.5 -206t88.5 -189.5t190.5 -65.5t152.5 20.5t56.5 20.5q37 0 37 -36q0 -29 -56.5 -54.5t-150.5 -29.5l6 -101q0 -43 -41 -43t-41 45v3 l-2 98q-131 12 -226.5 96t-95.5 234t100.5 253t229.5 117l1 15z" glyph-name="cent" horiz-adv-x="729" unicode="¢"/><glyph d="M604 49q0 -45 -86 -45l-147 -4h-160q-10 0 -85 1t-75 46q0 33 58 33h63q0 14 4 182h-39q-86 0 -86 45q0 35 58 35q29 -2 67 -2v16q0 186 59.5 258t203.5 72q81 0 147 -33q47 -25 47 -63t-31 -39q-12 1 -62 27t-104 26q-55 0 -102.5 -23t-61.5 -86.5t-14 -138.5v-16l127 4 q57 0 57 -35q0 -45 -86 -45l-98 -2q-4 -168 -4 -182l293 4q57 0 57 -35z" glyph-name="sterling" horiz-adv-x="686" unicode="£"/><glyph d="M72 193q0 35 57 34q90 -6 184 -6v41q-20 12 -47 47h-2q-90 4 -106 4q-86 0 -86 45q0 35 46 34t91 -3l-131 201q-23 33 -23 59q0 37 39 37q20 0 47 -41q169 -261 191 -289t28 -28t31 32t189 285q27 41 43 41q39 0 39 -37q0 -27 -44 -95t-112 -165l102 4q57 0 58 -35 q0 -45 -86 -45l-129 -4q-37 -41 -56 -51v-37l213 6q57 0 58 -34q0 -45 -86 -46l-183 -4q2 -59 2 -110t-37 -51q-45 0 -45 49t-2 112l-157 4q-86 0 -86 46z" glyph-name="yen" horiz-adv-x="729" unicode="¥"/><glyph d="M98 197q0 47 41 47t41 -58v-313q0 -47 -41 -47t-41 45v326zM98 753q0 52 41 52t41 -57v-314q0 -47 -41 -47t-43 46t0 157t2 163z" glyph-name="brokenbar" horiz-adv-x="280" unicode="¦"/><glyph d="M297 -276q-82 0 -180 45q-45 20 -45 55t30 35q12 0 66 -27t129 -27q166 0 166 95q0 57 -111 108l-67 29q-101 41 -147 69.5t-61.5 60.5t-15.5 75q0 76 66 127q-66 51 -66 133t77 133t168 51t161 -37q35 -18 35 -49t-29 -31q-12 -1 -59 17t-112 18t-112 -25.5t-47 -78.5 q0 -28 15.5 -43t26 -23t28.5 -17t30.5 -15.5t37 -17t63.5 -28.5q71 -34 136 -75.5t65 -128.5q0 -86 -64 -132q63 -49 64 -120q0 -176 -248 -176zM463 158q0 41 -45 70.5t-133 66.5l-80 31q-61 -27 -62 -84q0 -28 15.5 -43t26 -23t28.5 -17t30.5 -15.5t37 -16.5t36.5 -16 l76 -37q70 23 70 84z" glyph-name="section" horiz-adv-x="598" unicode="§"/><glyph d="M305 891q0 -33 -24.5 -56.5t-55 -23.5t-56.5 23.5t-26 57.5t23.5 57.5t56.5 23.5t57.5 -24.5t24.5 -57.5zM637 890q0 -32 -24.5 -55.5t-55.5 -23.5t-56.5 23.5t-25.5 57.5t23.5 57.5t55.5 23.5t57.5 -25.5t25.5 -57.5z" glyph-name="dieresis" horiz-adv-x="780" unicode="¨"/><glyph d="M339 188q83 0 144.5 64.5t61.5 151.5t-61.5 153t-144.5 66t-144.5 -65.5t-61.5 -153.5t61.5 -152t144.5 -64zM339 125q-114 0 -195 82.5t-81 198.5t80 198t195 82t195.5 -82t80.5 -199t-80.5 -198.5t-194.5 -81.5zM348 236q-70 0 -118 44t-48 121.5t47 120.5t97 43 q92 0 137 -45q14 -12 14 -33q0 -31 -37 -30q-10 0 -39 15t-61 15t-56 -22.5t-24 -64.5t23.5 -64.5t55.5 -22.5q33 -1 61 15t38 16q37 0 37 -31q0 -16 -12 -28l-2 -4q-43 -45 -113 -45z" glyph-name="copyright" horiz-adv-x="677" unicode="©"/><glyph d="M114.5 701q34.5 73 151.5 73q205 0 205 -209l-2 -205q0 -20 -12.5 -32.5t-28.5 -12.5q-41 0 -41 45v70h-104q-88 0 -123 2l-2 -72q0 -20 -12.5 -32.5t-28.5 -12.5q-41 0 -41 45q4 170 4 219t34.5 122zM162 571v-61q37 -2 96 -2h131v57q0 127 -123 127q-61 0 -82.5 -40 t-21.5 -81z" glyph-name="ordfeminine" horiz-adv-x="546" unicode="ª"/><glyph d="M250 627q41 0 45 -39q0 -16 -21 -49l-129 -195l129 -194q20 -33 21 -50q-4 -39 -45 -39q-23 0 -43 33l-129 199q-20 31 -20.5 51.5t20.5 50.5l129 199q20 33 43 33zM293 344.5q0 20.5 20 50.5l129 199q20 33 43 33q41 0 45 -39q0 -16 -20 -49l-129 -195l129 -194 q20 -33 20 -50q-4 -39 -45 -39q-23 0 -43 33l-129 199q-20 31 -20 51.5z" glyph-name="guillemotleft" horiz-adv-x="600" unicode="«"/><glyph d="M559 274q0 -80 -45 -79q-35 0 -35 57v139h-8l-184 -2h-121q-86 0 -86 45q0 35 48 34t117 -1h23l70 1h74l84 3h18q43 -4 43 -35l2 -41v-121z" glyph-name="logicalnot" horiz-adv-x="643" unicode="¬"/><glyph d="M339 125q-114 0 -195 82.5t-81 198.5t80 198t195 82t195.5 -82t80.5 -199t-80.5 -198.5t-194.5 -81.5zM339 188q83 0 144.5 64.5t61.5 151.5t-61.5 153t-144.5 66t-144.5 -65.5t-61.5 -153.5t61.5 -152t144.5 -64zM264 250q-33 0 -33 33q-4 221 -4 239t9.5 28.5 t48.5 10.5q174 0 174 -98q0 -66 -53 -92l38 -60q28 -35 9 -48t-34 -13t-21 9t-27 44t-29 51h-47l2 -71q0 -33 -33 -33zM295 506v-90h10q80 0 80 45t-76 45h-14z" glyph-name="registered" horiz-adv-x="677" unicode="®"/><glyph d="M72 862q0 35 57 35q80 -8 158 -8l176 2q57 0 57 -35q0 -45 -86 -45h-147l-129 6q-86 0 -86 45z" glyph-name="macron" horiz-adv-x="591" unicode="¯"/><glyph d="M489 800q0 -95 -67.5 -160t-159.5 -65t-159.5 65t-67.5 160t68.5 157.5t157.5 62.5t158.5 -62.5t69.5 -157.5zM262.5 647q61.5 0 103.5 43t42 110t-43 105.5t-105 38.5t-102.5 -37t-40.5 -107t42 -111.5t103.5 -41.5z" glyph-name="degree" horiz-adv-x="524" unicode="°"/><glyph d="M70 465q0 35 57 35q78 -6 162 -8q2 53 2 180q0 47 41 47t41 -57v-170l170 2q57 0 57 -35q0 -45 -86 -45h-141v-183q0 -47 -41 -47t-41 45l-2 185l-133 6q-86 0 -86 45zM70 104q0 35 57 35q129 -8 240 -8l176 2q57 0 57 -35q0 -45 -86 -45h-147l-211 6q-86 0 -86 45z" glyph-name="plusminus" horiz-adv-x="669" unicode="±"/><glyph d="M76 266q0 10 12 23l27 26q115 99 149.5 153t34.5 75q0 61 -78 61q-45 0 -73.5 -12t-32.5 -12q-37 0 -37 38q0 25 24 39q53 29 125 29t113 -37t41 -111t-172 -237l158 2q57 0 57 -35q0 -45 -86 -45l-176 -2q-86 0 -86 45z" glyph-name="uni00B2" horiz-adv-x="485" unicode="²"/><glyph d="M127 442q0 20 15 36t55.5 60t54.5 58h-111q-57 0 -57 35q0 45 86 45h133q68 0 68 -43q0 -8 -11 -23q-45 -49 -96 -114q49 -4 77 -38t30 -65l2 -33q0 -68 -41 -104.5t-113 -36.5t-125 29q-25 14 -24 39q0 39 36 39q4 0 33 -12.5t74 -12.5q78 0 78 61q0 23 -22.5 42.5 t-57.5 19.5l-59 -8q-25 0 -25 26z" glyph-name="uni00B3" horiz-adv-x="446" unicode="³"/><glyph d="M143 848q0 23 50 45q20 10 99.5 53t105.5 56q26 14 45 14t31.5 -15.5t12.5 -35.5q0 -29 -47 -50q-218 -104 -258 -104q-39 0 -39 37z" glyph-name="acute" horiz-adv-x="630" unicode="´"/><glyph d="M471 -18q-41 0 -41 55t2 123h-10q-53 -4 -92 -4q-285 0 -285 260q0 84 32 141t102.5 91t176.5 34l349 -2q57 0 57 -35q0 -45 -84 -45q-4 -98 -4 -291v-286q0 -41 -41 -41t-41 41q4 203 4 256l2 321l-86 -2q4 -61 4 -244l-4 -325q0 -47 -41 -47zM360 600q-233 0 -233 -184 q0 -106 56.5 -141t134.5 -35t102 2h12q2 47 2 110l-4 244q-25 4 -70 4z" glyph-name="paragraph" horiz-adv-x="804" unicode="¶"/><glyph d="M295 378q0 -44 -33 -75t-74 -31t-74.5 31t-33.5 77t31.5 76.5t74.5 30.5t76 -32.5t33 -76.5z" glyph-name="periodcentered" horiz-adv-x="372" unicode="·"/><glyph d="M322 26q0 -26 -19 -65q-14 -41 12 -41q113 0 133.5 -40t20.5 -92t-45.5 -93t-107.5 -41t-117.5 18.5t-55.5 56.5t31 38q12 0 46 -17.5t77 -17.5t68.5 19.5t25.5 45.5q0 47 -88 47h-31q-59 0 -69 28t12 75q34 104 66 104q41 1 41 -25z" glyph-name="cedilla" horiz-adv-x="612" unicode="¸"/><glyph d="M84 539q-43 0 -43 43q0 25 49 51q106 53 131 53q45 0 45 -57v-187l2 -180q-2 -39 -42 -39t-40 45l-2 283q0 25 -4 25t-6 -1l-61 -28q-18 -8 -29 -8z" glyph-name="uni00B9" horiz-adv-x="352" unicode="¹"/><glyph d="M551 532.5q0 -100.5 -74 -174t-174 -73.5t-175 71.5t-75 172.5t72 173t176.5 72t177 -70.5t72.5 -171zM469 533q0 75 -44 117t-123 42t-123 -43t-44 -116.5t44 -119.5t122 -46t123 45.5t45 120.5z" glyph-name="ordmasculine" horiz-adv-x="604" unicode="º"/><glyph d="M350 61q-41 0 -45 39q0 16 21 50l129 194l-129 195q-20 33 -21 49q4 39 45 39q23 0 43 -33l129 -199q20 -31 20 -51t-20 -51l-129 -199q-20 -33 -43 -33zM115 61q-41 0 -45 39q0 16 20 50l129 194l-129 195q-20 33 -20 49q4 39 45 39q23 0 43 -33l129 -199q20 -31 20 -51 t-20 -51l-129 -199q-20 -33 -43 -33z" glyph-name="guillemotright" horiz-adv-x="600" unicode="»"/><glyph d="M706 98q-92 0 -92 43q0 14 7 33l79 236q14 45 46 45t32 -43q0 -24 -8 -46t-28 -86t-35 -102h137v109q0 47 41 47t41 -55v-99q51 -2 51 -36t-51 -42l2 -82q0 -39 -43 -38q-39 0 -39 45l-2 73q-46 -2 -138 -2zM672 676q20 0 31.5 -13.5t11.5 -26.5t-21 -46l-405 -576 q-23 -31 -41 -30q-45 0 -45 41q-1 12 22 47l404 573q23 31 43 31zM215 686q45 0 45 -57q0 -8 2 -187v-180q-2 -39 -42 -39t-41 49q-1 48 -1 176t-4 128t-6 -1l-62 -28q-18 -8 -28 -8q-43 0 -43 43q0 25 49 51q106 53 131 53z" glyph-name="onequarter" horiz-adv-x="1013" unicode="¼"/><glyph d="M659 39q0 18 13 27q39 27 125 117.5t86 135.5q0 61 -78 62q-45 0 -74 -12.5t-33 -12.5q-37 0 -36 39q0 25 24 39q53 29 125 29t113 -37.5t41 -111.5t-172 -236l157 2q57 0 58 -35q0 -45 -86 -45l-177 -2q-86 0 -86 41zM643.5 676q20.5 0 31.5 -13.5t11 -26.5t-20 -46 l-406 -576q-23 -31 -41 -30q-45 0 -45 41q0 12 23 47l403 573q23 31 43.5 31zM215 686q45 0 45 -57q0 -8 2 -187v-180q-2 -39 -42 -39t-41 49q-1 48 -1 176t-4 128t-6 -1l-62 -28q-18 -8 -28 -8q-43 0 -43 43q0 25 49 51q106 53 131 53z" glyph-name="onehalf" horiz-adv-x="1048" unicode="½"/><glyph d="M125 596q-57 0 -57 35q0 45 86 45h133q67 0 67 -43q0 -12 -45 -64.5t-61 -72.5q49 -4 76.5 -38t29.5 -65l2 -33q0 -68 -41 -104.5t-113 -36.5t-124 29q-25 14 -25 39q0 39 37 39q4 0 33 -12.5t74 -12.5q78 0 77 61q0 23 -22.5 42.5t-56.5 19.5l-60 -8q-25 0 -24 26 q0 20 15 36t55 60t55 58h-111zM727.5 676q20.5 0 31.5 -13.5t11 -26.5t-20 -46l-406 -576q-23 -31 -41 -30q-45 0 -45 41q0 12 23 47l403 573q23 31 43.5 31zM762 98q-92 0 -92 43q0 14 6 33l80 236q14 45 46 45t32 -43q0 -24 -8 -46t-25 -77.5t-39 -110.5h137v109 q0 47 41 47t41 -55v-99q51 -2 51 -36t-51 -42l2 -82q0 -39 -43 -38q-39 0 -39 45l-2 73q-45 -2 -137 -2z" glyph-name="threequarters" horiz-adv-x="1067" unicode="¾"/><glyph d="M383 119q31 0 31 -32q0 -33 -51 -69t-141 -36t-135.5 39.5t-45.5 130.5q0 51 41 105t82 99t41 72q0 51 41 51t41 -56t-82 -138t-82 -133q0 -88 106 -89q63 0 99 28t55 28zM180 622.5q0 26.5 19.5 45t44 18.5t45 -18t20.5 -46t-19.5 -46.5t-45.5 -18.5t-45 19.5t-19 46z " glyph-name="questiondown" horiz-adv-x="452" unicode="¿"/><glyph d="M49 -18q-35 0 -35 32q0 12 21 58l196 460q66 156 127.5 156t126.5 -156l199 -456q21 -46 21 -58q0 -32 -34 -32t-53 45q-12 23 -47 106q-14 -6 -43 -6l-211 -2l-170 2l-45 -104q-18 -45 -53 -45zM361 207q136 0 178 4l-125 289q-45 106 -56 106t-26 -41.5t-27 -64.5 l-125 -291q45 -2 181 -2zM477 813q-14 -1 -94 31q-81 32 -147 63t-66 60q0 20 12 35.5t32 15.5t45 -14q179 -97 217 -114q38 -18 38 -40q0 -37 -37 -37z" glyph-name="Agrave" horiz-adv-x="716" unicode="À"/><glyph d="M49 -18q-35 0 -35 32q0 12 21 58l196 460q66 156 127.5 156t126.5 -156l199 -456q21 -46 21 -58q0 -32 -34 -32t-53 45q-12 23 -47 106q-14 -6 -43 -6l-211 -2l-170 2l-45 -104q-18 -45 -53 -45zM361 207q136 0 178 4l-125 289q-45 106 -56 106t-26 -41.5t-27 -64.5 l-125 -291q45 -2 181 -2zM238 813q-37 0 -37 37q0 23 49 45q20 10 100 53t106 56q26 14 44 14q20 0 32.5 -15.5t12.5 -35.5q0 -29 -47 -49q-86 -41 -166 -73t-94 -32z" glyph-name="Aacute" horiz-adv-x="716" unicode="Á"/><glyph d="M49 -18q-35 0 -35 32q0 12 21 58l196 460q66 156 127.5 156t126.5 -156l199 -456q21 -46 21 -58q0 -32 -34 -32t-53 45q-12 23 -47 106q-14 -6 -43 -6l-211 -2l-170 2l-45 -104q-18 -45 -53 -45zM361 207q136 0 178 4l-125 289q-45 106 -56 106t-26 -41.5t-27 -64.5 l-125 -291q45 -2 181 -2zM537 811q-20 0 -45 31l-97 114q-27 31 -36 31t-130 -145q-25 -31 -45 -31q-41 0 -41 41q-1 16 19 40t63 78t48 60q32 39 41.5 44t16.5 9t14 5.5t15.5 1.5t15.5 -1.5t14 -5.5t12.5 -7t15.5 -13t17 -18.5t33 -39.5q109 -131 110 -153q0 -41 -41 -41z " glyph-name="Acircumflex" horiz-adv-x="716" unicode="Â"/><glyph d="M49 -18q-35 0 -35 32q0 12 21 58l196 460q66 156 127.5 156t126.5 -156l199 -456q21 -46 21 -58q0 -32 -34 -32t-53 45q-12 23 -47 106q-14 -6 -43 -6l-211 -2l-170 2l-45 -104q-18 -45 -53 -45zM361 207q136 0 178 4l-125 289q-45 106 -56 106t-26 -41.5t-27 -64.5 l-125 -291q45 -2 181 -2zM108.5 811q-16.5 0 -28.5 10.5t-12 28.5t18 41q94 109 186 109t164 -44q70 -43 102 -43t58 25t45 25q37 0 37 -39q0 -18 -19 -37q-104 -104 -243 -13q-166 102 -264 -30q-27 -33 -43.5 -33z" glyph-name="Atilde" horiz-adv-x="716" unicode="Ã"/><glyph d="M49 -18q-35 0 -35 32q0 12 21 58l196 460q66 156 127.5 156t126.5 -156l199 -456q21 -46 21 -58q0 -32 -34 -32t-53 45q-12 23 -47 106q-14 -6 -43 -6l-211 -2l-170 2l-45 -104q-18 -45 -53 -45zM361 207q136 0 178 4l-125 289q-45 106 -56 106t-26 -41.5t-27 -64.5 l-125 -291q45 -2 181 -2zM274 891q0 -33 -24.5 -56.5t-55 -23.5t-56 23.5t-25.5 57.5t23.5 57.5t56.5 23.5t57 -24.5t24 -57.5zM606 890q0 -32 -24.5 -55.5t-55 -23.5t-56.5 23.5t-26 57.5t24 57.5t56 23.5t57 -25.5t25 -57.5z" glyph-name="Adieresis" horiz-adv-x="716" unicode="Ä"/><glyph d="M49 -18q-35 0 -35 32q0 12 21 58l196 460q66 156 127.5 156t126.5 -156l199 -456q21 -46 21 -58q0 -32 -34 -32t-53 45q-12 23 -47 106q-14 -6 -43 -6l-211 -2l-170 2l-45 -104q-18 -45 -53 -45zM361 207q136 0 178 4l-125 289q-45 106 -56 106t-26 -41.5t-27 -64.5 l-125 -291q45 -2 181 -2zM357 1096q-36 0 -68.5 -27t-32.5 -72q0 -102 106 -102q47 0 75 33t28 76t-36 67.5t-72 24.5zM358 1178q64 0 126.5 -47t62.5 -127t-51.5 -135.5t-136.5 -55.5t-135 48t-50 134t60 134.5t124 48.5z" glyph-name="Aring" horiz-adv-x="716" unicode="Å"/><glyph d="M877 686q51 0 51 -40q0 -18 -15.5 -30t-31.5 -12q-240 -2 -279 -2h-33q0 -14 6 -248h84l166 4q47 0 47 -40t-65 -39l-148 -3q-51 0 -81 3v-35l-3 -103q0 -56 25 -61.5t53 -5.5l256 2q18 0 32.5 -12.5t14.5 -30.5q0 -41 -45 -41h-288q-93 0 -111 33t-18 86v20l-177 -2 l-170 2l-45 -104q-18 -45 -53 -45t-35 32q0 12 21 58l196 460q63 150 164 150l189 2h153zM399 600q-51 0 -94 -100l-125 -291q45 -2 137 -2h177v37l-7 356h-88z" glyph-name="AE" horiz-adv-x="997" unicode="Æ"/><glyph d="M659 68q0 -31 -66.5 -57.5t-172.5 -28.5l-8 -21q-14 -41 12 -41q113 0 133.5 -40t20.5 -92t-46.5 -93t-107.5 -41t-116.5 18.5t-55.5 56.5t31 38q12 0 45.5 -17.5t77.5 -17.5t69 19.5t25 45.5q0 47 -88 47h-31q-107 0 -57 103q8 29 14 43q-119 20 -202 103t-83 235 t115 256t237 104t188 -26.5t66 -61.5t-36 -35q-6 0 -56.5 20.5t-149 20.5t-190.5 -82t-92 -206t88.5 -189.5t190.5 -65.5t152 20.5t57 20.5q36 1 36 -36z" glyph-name="Ccedilla" horiz-adv-x="710" unicode="Ç"/><glyph d="M190 684h154l139 2q23 0 37.5 -11t14.5 -29t-15.5 -30t-32.5 -12q-239 -2 -275 -2t-36 -33l6 -215h84l166 4q47 0 47 -40t-65 -39l-148 -3q-51 0 -82 3v-35l-2 -103q0 -55 24.5 -61t53.5 -6l256 2q18 0 32.5 -12.5t14.5 -30.5q0 -41 -45 -41h-289q-117 0 -123 44t-6 62 v146l-6 356q0 84 96 84zM449 813q-15 -1 -95 31t-146 63t-67 60q0 20 12.5 35.5t32.5 15.5t44 -14q26 -14 106 -56.5t100 -52.5q49 -23 49 -45q1 -37 -36 -37z" glyph-name="Egrave" horiz-adv-x="604" unicode="È"/><glyph d="M190 684h154l139 2q23 0 37.5 -11t14.5 -29t-15.5 -30t-32.5 -12q-239 -2 -275 -2t-36 -33l6 -215h84l166 4q47 0 47 -40t-65 -39l-148 -3q-51 0 -82 3v-35l-2 -103q0 -55 24.5 -61t53.5 -6l256 2q18 0 32.5 -12.5t14.5 -30.5q0 -41 -45 -41h-289q-117 0 -123 44t-6 62 v146l-6 356q0 84 96 84zM156 848q0 23 49 45q20 10 99.5 53t105.5 56q26 14 46 14t32 -15.5t12 -35.5q0 -29 -47 -50q-218 -104 -258 -104q-39 0 -39 37z" glyph-name="Eacute" horiz-adv-x="604" unicode="É"/><glyph d="M190 684h154l139 2q23 0 37.5 -11t14.5 -29t-15.5 -30t-32.5 -12q-239 -2 -275 -2t-36 -33l6 -215h84l166 4q47 0 47 -40t-65 -39l-148 -3q-51 0 -82 3v-35l-2 -103q0 -55 24.5 -61t53.5 -6l256 2q18 0 32.5 -12.5t14.5 -30.5q0 -41 -45 -41h-289q-117 0 -123 44t-6 62 v146l-6 356q0 84 96 84zM489 813q-20 0 -45 31l-96 114q-27 31 -33 31t-10 -2t-6 -5t-9.5 -10.5t-107.5 -127.5q-25 -31 -45 -31q-41 0 -41 41q0 14 20 39q112 143 115 146l27 28q25 25 44.5 25t26.5 -1t14 -5.5t12 -7.5t12.5 -10t10.5 -10t10.5 -11.5t43.5 -52.5 q98 -118 98 -140q0 -41 -41 -41z" glyph-name="Ecircumflex" horiz-adv-x="604" unicode="Ê"/><glyph d="M190 684h154l139 2q23 0 37.5 -11t14.5 -29t-15.5 -30t-32.5 -12q-239 -2 -275 -2t-36 -33l6 -215h84l166 4q47 0 47 -40t-65 -39l-148 -3q-51 0 -82 3v-35l-2 -103q0 -55 24.5 -61t53.5 -6l256 2q18 0 32.5 -12.5t14.5 -30.5q0 -41 -45 -41h-289q-117 0 -123 44t-6 62 v146l-6 356q0 84 96 84zM227 893q0 -33 -24.5 -56.5t-55 -23.5t-56 23.5t-25.5 57.5t24 57.5t56 23.5t56.5 -24.5t24.5 -57.5zM559 893q0 -33 -24.5 -56.5t-55 -23.5t-56.5 23.5t-26 57.5t23.5 57.5t55.5 23.5t57.5 -24.5t25.5 -57.5z" glyph-name="Edieresis" horiz-adv-x="604" unicode="Ë"/><glyph d="M88 598q-47 0 -47 35q0 45 63 43l74 -2l78 2q63 2 63 -43q0 -12 -13.5 -23.5t-33.5 -11.5h-47v-86l11 -453h51q47 0 47 -34q0 -43 -64 -43h-151q-63 0 -64 43q0 12 13.5 23t33.5 11h52l-9 451l-2 88h-55zM219 813q-14 -1 -94 31q-81 32 -147 63t-66 60q0 20 12 35.5 t32 15.5t45 -14q179 -97 217 -114q38 -18 38 -40q0 -37 -37 -37z" glyph-name="Igrave" horiz-adv-x="376" unicode="Ì"/><glyph d="M88 598q-47 0 -47 35q0 45 63 43l74 -2l78 2q63 2 63 -43q0 -12 -13.5 -23.5t-33.5 -11.5h-47v-86l11 -453h51q47 0 47 -34q0 -43 -64 -43h-151q-63 0 -64 43q0 12 13.5 23t33.5 11h52l-9 451l-2 88h-55zM117 813q-37 0 -37 37q0 23 49 45q20 10 100 53t106 56 q26 14 45 14t31.5 -15.5t12.5 -35.5q0 -29 -47 -49q-86 -41 -166 -73t-94 -32z" glyph-name="Iacute" horiz-adv-x="376" unicode="Í"/><glyph d="M88 598q-47 0 -47 35q0 45 63 43l74 -2l78 2q63 2 63 -43q0 -12 -13.5 -23.5t-33.5 -11.5h-47v-86l11 -453h51q47 0 47 -34q0 -43 -64 -43h-151q-63 0 -64 43q0 12 13.5 23t33.5 11h52l-9 451l-2 88h-55zM367 811q-20 0 -45 31l-97 114q-8 8 -13 15.5t-8 10.5t-6 4 t-7.5 1t-8.5 -2t-6 -5t-9.5 -10.5t-107.5 -127.5q-25 -31 -45 -31q-41 0 -41 41q-1 16 19 40t63 78t48 60q32 39 41.5 44t16.5 9t14 5.5t15.5 1.5t15.5 -1.5t14 -5.5t12.5 -7t15.5 -13t17 -18.5t33 -39.5q109 -131 110 -153q0 -41 -41 -41z" glyph-name="Icircumflex" horiz-adv-x="376" unicode="Î"/><glyph d="M88 598q-47 0 -47 35q0 45 63 43l74 -2l78 2q63 2 63 -43q0 -12 -13.5 -23.5t-33.5 -11.5h-47v-86l11 -453h51q47 0 47 -34q0 -43 -64 -43h-151q-63 0 -64 43q0 12 13.5 23t33.5 11h52l-9 451l-2 88h-55zM104 891q0 -33 -24.5 -56.5t-55 -23.5t-56 23.5t-25.5 57.5 t23.5 57.5t56.5 23.5t57 -24.5t24 -57.5zM436 890q0 -32 -24.5 -55.5t-55 -23.5t-56.5 23.5t-26 57.5t24 57.5t56 23.5t57 -25.5t25 -57.5z" glyph-name="Idieresis" horiz-adv-x="376" unicode="Ï"/><glyph d="M-4 340q0 35 57 35q23 -4 68 -4q-4 115 -4 185t19.5 98t74.5 28h141q190 0 283.5 -95t93.5 -259t-111.5 -255t-287.5 -91q-117 0 -159 28t-42 106t-6 177l-41 2q-86 0 -86 45zM330 63q156 0 236.5 70t80.5 197q0 270 -295 270h-110q-45 0 -45 -39v-84q0 -72 2 -106l88 4 q57 0 57 -35q0 -45 -86 -45l-53 -2l6 -160q0 -37 24.5 -53.5t94.5 -16.5z" glyph-name="Eth" horiz-adv-x="784" unicode="Ð"/><glyph d="M705 31q0 -49 -41 -49q-25 0 -37 14t-35.5 46t-97.5 116t-316 385v-21q12 -480 12 -493q0 -47 -36 -47q-45 0 -45 47l-11 491v117q0 49 41 49q23 0 41 -28t183 -227.5t247 -289.5l15 -16v20l-13 494q0 47 37 47q45 0 45 -47l11 -492v-116zM131 811q-29 0 -29 41 q0 16 19 39q94 109 186 109t163 -44q70 -43 102 -43t59 25t45 25q37 0 37 -39q0 -18 -19 -37q-105 -105 -243 -13q-167 102 -265 -30q-26 -33 -55 -33z" glyph-name="Ntilde" horiz-adv-x="802" unicode="Ñ"/><glyph d="M417.5 688q145.5 0 255 -107t109.5 -257t-118.5 -246t-247.5 -96q-187 0 -275 118.5t-88 245.5t109.5 234.5t255 107.5zM417.5 606q-106.5 0 -193.5 -84t-87 -202t90.5 -187.5t190.5 -69.5t190 72.5t90 188.5t-87 199t-193.5 83zM571 811q-14 -1 -94 31t-166 73 q-47 20 -47 50q0 20 12 35.5t32 15.5t46 -14t105.5 -56.5t99.5 -52.5q49 -23 49 -45q0 -37 -37 -37z" glyph-name="Ograve" unicode="Ò"/><glyph d="M417.5 688q145.5 0 255 -107t109.5 -257t-118.5 -246t-247.5 -96q-187 0 -275 118.5t-88 245.5t109.5 234.5t255 107.5zM417.5 606q-106.5 0 -193.5 -84t-87 -202t90.5 -187.5t190.5 -69.5t190 72.5t90 188.5t-87 199t-193.5 83zM270 811q-37 0 -37 37q0 23 50 45 q20 10 99.5 53t105.5 56q26 14 46 14t32 -15.5t12 -35.5q0 -29 -48 -50q-86 -41 -166 -73t-94 -31z" glyph-name="Oacute" unicode="Ó"/><glyph d="M417.5 688q145.5 0 255 -107t109.5 -257t-118.5 -246t-247.5 -96q-187 0 -275 118.5t-88 245.5t109.5 234.5t255 107.5zM417.5 606q-106.5 0 -193.5 -84t-87 -202t90.5 -187.5t190.5 -69.5t190 72.5t90 188.5t-87 199t-193.5 83zM592 813q-20 0 -45 31l-96 114 q-11 11 -15 17t-7 9t-6 4t-7 1t-8.5 -2t-6.5 -5t-22.5 -23.5t-93.5 -114.5q-25 -31 -45 -31q-41 0 -41 41q0 14 19 39t62.5 79t48.5 60t12 14.5t10 11.5t10.5 10t12.5 10t12 7.5t14.5 5.5t28.5 1t45 -27t56 -65q102 -122 103 -146q0 -41 -41 -41z" glyph-name="Ocircumflex" unicode="Ô"/><glyph d="M417.5 688q145.5 0 255 -107t109.5 -257t-118.5 -246t-247.5 -96q-187 0 -275 118.5t-88 245.5t109.5 234.5t255 107.5zM417.5 606q-106.5 0 -193.5 -84t-87 -202t90.5 -187.5t190.5 -69.5t190 72.5t90 188.5t-87 199t-193.5 83zM172 813q-16 0 -28.5 10.5t-12.5 29.5 t19 40q94 109 186 109t162 -44q70 -43 103 -43t59 25t45 25q37 0 36 -39q0 -18 -18 -37q-55 -55 -117 -55t-129 43t-137 43t-125 -74q-27 -33 -43 -33z" glyph-name="Otilde" unicode="Õ"/><glyph d="M417.5 688q145.5 0 255 -107t109.5 -257t-118.5 -246t-247.5 -96q-187 0 -275 118.5t-88 245.5t109.5 234.5t255 107.5zM417.5 606q-106.5 0 -193.5 -84t-87 -202t90.5 -187.5t190.5 -69.5t190 72.5t90 188.5t-87 199t-193.5 83zM330 891q0 -33 -24.5 -56.5t-55.5 -23.5 t-56.5 23.5t-25.5 57.5t23.5 57.5t56.5 23.5t57.5 -24.5t24.5 -57.5zM662 890q0 -32 -25 -55.5t-55.5 -23.5t-56 23.5t-25.5 57.5t23.5 57.5t55.5 23.5t57.5 -25.5t25.5 -57.5z" glyph-name="Odieresis" unicode="Ö"/><glyph d="M518 174q0 -39 -41 -41q-20 -4 -43 19l-137 139l-135 -139q-19 -19 -37 -19h-6q-41 2 -41 41q0 10 28 39l136 137l-119 121q-41 41 -43 64q-4 41 31 40q23 0 55 -34l131 -133l133 133q35 35 55 34q35 0 31 -40q-2 -23 -43 -64l-121 -121l137 -137q29 -29 29 -39z" glyph-name="multiply" horiz-adv-x="595" unicode="×"/><glyph d="M172 -35q-42 -1 -41 43q0 18 23 45l14 21q-115 100 -115 250t110 257t255 107q96 0 174 -47q33 41 51 41q45 0 45 -46q0 -20 -26 -46q120 -106 120 -261t-118.5 -251t-247.5 -96q-88 0 -176 45l-23 -31q-23 -31 -45 -31zM698 322q0 114 -86 200l-323 -430q63 -29 146 -29 t173 72.5t90 186.5zM418 606q-106 0 -193.5 -84t-87.5 -194t82 -187l322 432q-62 33 -123 33z" glyph-name="Oslash" unicode="Ø"/><glyph d="M130 688q42 0 42 -49q4 -150 4 -164v-178q0 -100 50 -167t170 -67t173.5 65t53.5 161v194l-7 152q0 53 41 53t43 -56q5 -140 5 -155v-188q0 -133 -73 -220t-235 -87t-233.5 97t-71.5 218v170l-2 137l-2 25q0 59 42 59zM193 965q0 20 11.5 35.5t31.5 15.5t46 -14 t105.5 -56.5t99.5 -52.5q49 -23 50 -45q0 -37 -39 -37t-258 104q-47 20 -47 50z" glyph-name="Ugrave" horiz-adv-x="794" unicode="Ù"/><glyph d="M130 688q42 0 42 -49q4 -150 4 -164v-178q0 -100 50 -167t170 -67t173.5 65t53.5 161v194l-7 152q0 53 41 53t43 -56q5 -140 5 -155v-188q0 -133 -73 -220t-235 -87t-233.5 97t-71.5 218v170l-2 137l-2 25q0 59 42 59zM229 811q-37 0 -36 37q0 23 49 45q20 10 100 53 t106 56q26 14 44 14q20 0 32.5 -15.5t12.5 -35.5q0 -29 -48 -50q-86 -41 -166 -73t-94 -31z" glyph-name="Uacute" horiz-adv-x="794" unicode="Ú"/><glyph d="M130 688q42 0 42 -49q4 -150 4 -164v-178q0 -100 50 -167t170 -67t173.5 65t53.5 161v194l-7 152q0 53 41 53t43 -56q5 -140 5 -155v-188q0 -133 -73 -220t-235 -87t-233.5 97t-71.5 218v170l-2 137l-2 25q0 59 42 59zM565 811q-20 0 -45 31l-96 114q-8 8 -13 15.5 t-9.5 11.5t-12.5 4q-9 1 -63 -63t-74 -88t-39 -25q-41 0 -41 41q0 16 19 40t62.5 78t48.5 60q50 60 72.5 60t30 -1.5t14.5 -5.5t12 -7t12.5 -10t10.5 -10t10 -11.5t12 -14.5t47.5 -60.5t62.5 -77.5t20 -40q0 -41 -41 -41z" glyph-name="Ucircumflex" horiz-adv-x="794" unicode="Û"/><glyph d="M130 688q42 0 42 -49q4 -150 4 -164v-178q0 -100 50 -167t170 -67t173.5 65t53.5 161v194l-7 152q0 53 41 53t43 -56q5 -140 5 -155v-188q0 -133 -73 -220t-235 -87t-233.5 97t-71.5 218v170l-2 137l-2 25q0 59 42 59zM307 891q0 -33 -24.5 -56.5t-55 -23.5t-56.5 23.5 t-26 57.5t24.5 57.5t56.5 23.5t56.5 -24.5t24.5 -57.5zM639 890q0 -32 -24.5 -55.5t-55.5 -23.5t-56.5 23.5t-25.5 57.5t23.5 57.5t56.5 23.5t57.5 -25.5t24.5 -57.5z" glyph-name="Udieresis" horiz-adv-x="794" unicode="Ü"/><glyph d="M621 649q0 -27 -23 -59q-162 -250 -194 -286t-50 -46q4 -209 4 -229q0 -47 -36 -47q-45 0 -46 47q0 12 -4 233q-20 12 -47 45t-188 283q-23 33 -23 59q0 37 39 37q20 0 47 -41q170 -261 192 -289t27 -28q6 0 31 32t189 285q27 41 43 41q39 0 39 -37zM168 811 q-37 0 -37 37q0 23 49 45q20 10 100 53t106 56q26 14 45 14t31.5 -15.5t12.5 -35.5q0 -29 -47 -50q-86 -41 -166 -73t-94 -31z" glyph-name="Yacute" horiz-adv-x="632" unicode="Ý"/><glyph d="M256 621q373 0 373 -267q0 -260 -346 -260q-40 0 -93 4h-8l2 -69q0 -47 -41 -47t-41 47q-4 217 -4 305l4 305q0 47 41 47t41 -47l-2 -18h74zM180 330v-150h13q25 -2 84 -2q115 0 192.5 32.5t77.5 143.5q0 184 -295 185h-70q-2 -76 -2 -209z" glyph-name="Thorn" horiz-adv-x="673" unicode="Þ"/><glyph d="M444 33q0 31 -11 49t-17 27.5t-20.5 22.5t-20.5 19.5t-62.5 51.5t-56.5 98q0 36 21.5 56t28.5 23.5t18 14.5q72 49 71 117q0 41 -28.5 66.5t-81.5 25.5t-82 -37t-29 -96l4 -438q0 -51 -41 -51t-41 51q-4 338 -4 436t48 157.5t144 59.5t144.5 -48t48.5 -133t-92 -151 q-47 -36 -47 -56t51 -63t69.5 -60t43 -58t24.5 -88t-41 -47t-41 51z" glyph-name="germandbls" horiz-adv-x="567" unicode="ß"/><glyph d="M375 686q147 0 213.5 -96t68.5 -217l7 -328q0 -42 -10.5 -52.5t-28.5 -10.5q-43 0 -44 48t-1 115h-166q-129 0 -244 5l-2 -121q0 -47 -43 -47q-32 0 -35.5 20.5t-3.5 42.5l1 34l5 294q0 111 44 182.5t102.5 101t136.5 29.5zM374 596q-108 0 -154 -64.5t-46 -160.5 l-2 -138q104 -6 230 -6t176 2l-3 142q0 96 -46.5 160.5t-154.5 64.5zM492 811q-16 -1 -96 31t-165 73q-47 20 -47 50q0 20 12 35.5t32 15.5t46 -14t105.5 -56.5t99.5 -52.5q49 -23 49 -45q1 -37 -36 -37z" glyph-name="agrave" horiz-adv-x="751" unicode="à"/><glyph d="M375 686q147 0 213.5 -96t68.5 -217l7 -328q0 -42 -10.5 -52.5t-28.5 -10.5q-43 0 -44 48t-1 115h-166q-129 0 -244 5l-2 -121q0 -47 -43 -47q-32 0 -35.5 20.5t-3.5 42.5l1 34l5 294q0 111 44 182.5t102.5 101t136.5 29.5zM374 596q-108 0 -154 -64.5t-46 -160.5 l-2 -138q104 -6 230 -6t176 2l-3 142q0 96 -46.5 160.5t-154.5 64.5zM184 848q0 23 49 45q20 10 100.5 53t106.5 56q26 14 44 14q19 0 31.5 -15.5t12.5 -35.5q0 -29 -47 -50q-218 -104 -258 -104q-39 0 -39 37z" glyph-name="aacute" horiz-adv-x="751" unicode="á"/><glyph d="M375 686q147 0 213.5 -96t68.5 -217l7 -328q0 -42 -10.5 -52.5t-28.5 -10.5q-43 0 -44 48t-1 115h-166q-129 0 -244 5l-2 -121q0 -47 -43 -47q-32 0 -35.5 20.5t-3.5 42.5l1 34l5 294q0 111 44 182.5t102.5 101t136.5 29.5zM374 596q-108 0 -154 -64.5t-46 -160.5 l-2 -138q104 -6 230 -6t176 2l-3 142q0 96 -46.5 160.5t-154.5 64.5zM532 811q-20 0 -45 31l-96 114q-27 31 -36 31t-130 -145q-25 -31 -45 -31q-41 0 -41 41q-1 16 19 40t63 78t48 60q50 60 73 60t30 -1.5t14 -5.5t12 -7t12.5 -10t10.5 -10t10 -11.5t33 -39.5 q110 -131 109 -153q0 -41 -41 -41z" glyph-name="acircumflex" horiz-adv-x="751" unicode="â"/><glyph d="M377 686q147 0 213.5 -96t68.5 -217l7 -328q0 -43 -10.5 -53t-28.5 -10q-43 0 -44 48t-1 115h-166q-129 0 -244 5l-2 -121q0 -47 -43 -47q-32 0 -35.5 20.5t-3.5 42.5v17l6 311q0 111 44 182.5t102.5 101t136.5 29.5zM376.5 596q-106.5 0 -153.5 -64.5t-47 -160.5 l-2 -138q104 -6 230 -6t176 2l-2 142q0 96 -47.5 160.5t-154 64.5zM94.5 813q-16.5 0 -29 10.5t-12.5 29.5t19 40q94 109 186 109t162 -44q70 -43 103 -43t59 25t45 25q37 0 37 -39q0 -18 -19 -37q-55 -55 -117 -55t-129 43t-137 43t-125 -74q-26 -33 -42.5 -33z" glyph-name="atilde" horiz-adv-x="753" unicode="ã"/><glyph d="M375 686q147 0 213.5 -96t68.5 -217l7 -328q0 -42 -10.5 -52.5t-28.5 -10.5q-43 0 -44 48t-1 115h-166q-129 0 -244 5l-2 -121q0 -47 -43 -47q-32 0 -35.5 20.5t-3.5 42.5l1 34l5 294q0 111 44 182.5t102.5 101t136.5 29.5zM374 596q-108 0 -154 -64.5t-46 -160.5 l-2 -138q104 -6 230 -6t176 2l-3 142q0 96 -46.5 160.5t-154.5 64.5zM272 891q0 -33 -24.5 -56.5t-55 -23.5t-56 23.5t-25.5 57.5t23.5 57.5t56.5 23.5t57 -24.5t24 -57.5zM604 890q0 -32 -24.5 -55.5t-55 -23.5t-56.5 23.5t-26 57.5t23.5 57.5t55.5 23.5t57.5 -25.5 t25.5 -57.5z" glyph-name="adieresis" horiz-adv-x="751" unicode="ä"/><glyph d="M375 686q147 0 213.5 -96t68.5 -217l7 -328q0 -42 -10.5 -52.5t-28.5 -10.5q-43 0 -44 48t-1 115h-166q-129 0 -244 5l-2 -121q0 -47 -43 -47q-32 0 -35.5 20.5t-3.5 42.5l1 34l5 294q0 111 44 182.5t102.5 101t136.5 29.5zM374 596q-108 0 -154 -64.5t-46 -160.5 l-2 -138q104 -6 230 -6t176 2l-3 142q0 96 -46.5 160.5t-154.5 64.5zM353 1094q-36 0 -68.5 -27t-32.5 -72q0 -102 106 -102q47 0 75 32.5t28 76.5t-36 68t-72 24zM354 1176q64 0 126.5 -47t62.5 -127t-51.5 -135.5t-136.5 -55.5t-135 48t-50 134t60 134.5t124 48.5z" glyph-name="aring" horiz-adv-x="751" unicode="å"/><glyph d="M375 686q121 0 196 -76q6 74 97 74h155l138 2q23 0 37 -11t14 -28q0 -43 -47 -43q-240 -2 -276 -2t-36 -33l6 -215h84l166 4q47 0 47 -40t-65 -39l-148 -3q-51 0 -81 3q0 -70 -3 -119v-47q0 -39 78 -39l256 2q47 0 47 -42t-45 -42h-288q-93 0 -111 33t-18 86v34h-164 q-129 0 -244 5l-2 -121q0 -47 -43 -47q-32 0 -35.5 20.5t-3.5 42.5l1 34l5 292q0 111 44 182.5t102.5 102t136.5 30.5zM402 227q126 0 176 2q-2 25 -2 131t-46.5 171t-155 65t-154.5 -64.5t-46 -160.5l-2 -138q104 -6 230 -6z" glyph-name="ae" horiz-adv-x="1081" unicode="æ"/><glyph d="M659 68q0 -31 -66.5 -57.5t-172.5 -28.5l-8 -21q-14 -41 12 -41q113 0 133.5 -40t20.5 -92t-46.5 -93t-107.5 -41t-116.5 18.5t-55.5 56.5t31 38q12 0 45.5 -17.5t77.5 -17.5t69 19.5t25 45.5q0 47 -88 47h-31q-107 0 -57 103q8 29 14 43q-119 20 -202 103t-83 235 t115 256t237 104t188 -26.5t66 -61.5t-36 -35q-6 0 -56.5 20.5t-149 20.5t-190.5 -82t-92 -206t88.5 -189.5t190.5 -65.5t152 20.5t57 20.5q36 1 36 -36z" glyph-name="ccedilla" horiz-adv-x="710" unicode="ç"/><glyph d="M190 684h154l139 2q23 0 37.5 -11t14.5 -29t-15.5 -30t-32.5 -12q-239 -2 -275 -2t-36 -33l6 -215h84l166 4q47 0 47 -40t-65 -39l-148 -3q-51 0 -82 3v-35l-2 -103q0 -55 24.5 -61t53.5 -6l256 2q14 0 30.5 -13.5t16.5 -29.5q0 -41 -45 -41h-289q-117 0 -123 44t-6 75 v133l-6 356q0 84 96 84zM449 811q-15 -1 -95 31t-166 73q-47 20 -47 50q0 20 12.5 35.5t32.5 15.5t44 -14q26 -14 106 -56.5t100 -52.5q49 -23 49 -45q1 -37 -36 -37z" glyph-name="egrave" horiz-adv-x="604" unicode="è"/><glyph d="M190 684h154l139 2q23 0 37.5 -11t14.5 -29t-15.5 -30t-32.5 -12q-239 -2 -275 -2t-36 -33l6 -215h84l166 4q47 0 47 -40t-65 -39l-148 -3q-51 0 -82 3v-35l-2 -103q0 -55 24.5 -61t53.5 -6l256 2q14 0 30.5 -13.5t16.5 -29.5q0 -41 -45 -41h-289q-117 0 -123 44t-6 75 v133l-6 356q0 84 96 84zM178 811q-37 0 -37 37q0 23 49 45q20 10 100 53t106 56q26 14 45 14t31.5 -15.5t12.5 -35.5q0 -29 -47 -50q-86 -41 -166 -73t-94 -31z" glyph-name="eacute" horiz-adv-x="604" unicode="é"/><glyph d="M190 684h154l139 2q23 0 37.5 -11t14.5 -29t-15.5 -30t-32.5 -12q-239 -2 -275 -2t-36 -33l6 -215h84l166 4q47 0 47 -40t-65 -39l-148 -3q-51 0 -82 3v-35l-2 -103q0 -55 24.5 -61t53.5 -6l256 2q14 0 30.5 -13.5t16.5 -29.5q0 -41 -45 -41h-289q-117 0 -123 44t-6 75 v133l-6 356q0 84 96 84zM489 811q-20 0 -45 31l-96 114q-27 31 -33 31t-10 -2t-6 -5t-9.5 -10.5t-107.5 -127.5q-25 -31 -45 -31q-41 0 -41 41q0 16 20 40t62.5 78t47.5 60q50 60 73 60t30 -1.5t14 -5.5t12 -7t12.5 -10t10.5 -10t9.5 -11.5t32.5 -39.5q110 -131 110 -153 q0 -41 -41 -41z" glyph-name="ecircumflex" horiz-adv-x="604" unicode="ê"/><glyph d="M190 684h154l139 2q23 0 37.5 -11t14.5 -29t-15.5 -30t-32.5 -12q-239 -2 -275 -2t-36 -33l6 -215h84l166 4q47 0 47 -40t-65 -39l-148 -3q-51 0 -82 3v-35l-2 -103q0 -55 24.5 -61t53.5 -6l256 2q14 0 30.5 -13.5t16.5 -29.5q0 -41 -45 -41h-289q-117 0 -123 44t-6 75 v133l-6 356q0 84 96 84zM227 891q0 -33 -24.5 -56.5t-55 -23.5t-56 23.5t-25.5 57.5t24 57.5t56 23.5t56.5 -24.5t24.5 -57.5zM559 890q0 -32 -24.5 -55.5t-55 -23.5t-56.5 23.5t-26 57.5t23.5 57.5t55.5 23.5t57.5 -25.5t25.5 -57.5z" glyph-name="edieresis" horiz-adv-x="604" unicode="ë"/><glyph d="M88 598q-47 0 -47 35q0 43 63 43h152q63 0 63 -43q0 -12 -13.5 -23.5t-33.5 -11.5h-47v-86l11 -453h51q47 0 47 -34q0 -43 -64 -43h-151q-63 0 -64 43q0 12 13.5 23t33.5 11h52l-9 451l-2 88h-55zM-44 904q-66 30 -67 61q0 20 12.5 35.5t32.5 15.5t44 -14 q26 -14 106 -56.5t100 -52.5q49 -23 49 -45q1 -37 -37 -37q-38 -1 -240 93z" glyph-name="igrave" horiz-adv-x="376" unicode="ì"/><glyph d="M88 598q-47 0 -47 35q0 43 63 43h152q63 0 63 -43q0 -12 -13.5 -23.5t-33.5 -11.5h-47v-86l11 -453h51q47 0 47 -34q0 -43 -64 -43h-151q-63 0 -64 43q0 12 13.5 23t33.5 11h52l-9 451l-2 88h-55zM106 811q-37 0 -36 37q0 23 49 45q20 10 99.5 53t105.5 56q26 14 46 14 t32 -15.5t12 -35.5q0 -29 -47 -50q-87 -41 -167 -73t-94 -31z" glyph-name="iacute" horiz-adv-x="376" unicode="í"/><glyph d="M88 598q-47 0 -47 35q0 43 63 43h152q63 0 63 -43q0 -12 -13.5 -23.5t-33.5 -11.5h-47v-86l11 -453h51q47 0 47 -34q0 -43 -64 -43h-151q-63 0 -64 43q0 12 13.5 23t33.5 11h52l-9 451l-2 88h-55zM360 811q-20 0 -45 31l-96 114q-27 31 -36 31t-130 -145q-25 -31 -45 -31 q-41 0 -41 41q-1 16 19 40t63 78t48 60q50 60 73 60t30 -1.5t14 -5.5t12 -7t12.5 -10t10.5 -10t10 -11.5t12 -14.5t48 -60.5t63 -77.5t19 -40q0 -41 -41 -41z" glyph-name="icircumflex" horiz-adv-x="376" unicode="î"/><glyph d="M88 598q-47 0 -47 35q0 43 63 43h152q63 0 63 -43q0 -12 -13.5 -23.5t-33.5 -11.5h-47v-86l11 -453h51q47 0 47 -34q0 -43 -64 -43h-151q-63 0 -64 43q0 12 13.5 23t33.5 11h52l-9 451l-2 88h-55zM104 891q0 -33 -24.5 -56.5t-55 -23.5t-56 23.5t-25.5 57.5t23.5 57.5 t56.5 23.5t57 -24.5t24 -57.5zM436 890q0 -32 -24.5 -55.5t-55 -23.5t-56.5 23.5t-26 57.5t24 57.5t56 23.5t57 -25.5t25 -57.5z" glyph-name="idieresis" horiz-adv-x="376" unicode="ï"/><glyph d="M-4 340q0 35 57 35q23 -4 68 -4q-4 115 -4 185t19.5 98t74.5 28h141q190 0 283.5 -95t93.5 -259t-111.5 -255t-287.5 -91q-117 0 -159 28t-42 106t-6 177l-41 2q-86 0 -86 45zM330 63q156 0 236.5 70t80.5 197q0 270 -295 270h-110q-45 0 -45 -39v-84q0 -72 2 -106l88 4 q57 0 57 -35q0 -45 -86 -45l-53 -2l6 -160q0 -37 24.5 -53.5t94.5 -16.5z" glyph-name="eth" horiz-adv-x="784" unicode="ð"/><glyph d="M705 31q0 -49 -41 -49q-25 0 -37 14t-35.5 46t-97.5 116t-316 385v-21q12 -480 12 -493q0 -47 -36 -47q-45 0 -45 47l-11 491v117q0 49 41 49q23 0 41 -28t183 -227.5t247 -289.5l15 -16v20l-13 494q0 47 37 47q45 0 45 -47l11 -492v-116zM143.5 813q-16.5 0 -29 10.5 t-12.5 29.5t19 40q94 109 186 109t163 -44q70 -43 102 -43t59 25t45 25q37 0 37 -39q0 -18 -19 -37q-54 -55 -116 -55t-130 43t-137 43q-70 0 -125 -74q-26 -33 -42.5 -33z" glyph-name="ntilde" horiz-adv-x="802" unicode="ñ"/><glyph d="M417.5 688q145.5 0 255 -107t109.5 -257t-118.5 -246t-247.5 -96q-187 0 -275 118.5t-88 245.5t109.5 234.5t255 107.5zM417.5 606q-106.5 0 -193.5 -84t-87 -202t90.5 -187.5t190.5 -69.5t190 72.5t90 188.5t-87 199t-193.5 83zM571 811q-14 -1 -94 31t-166 73 q-47 20 -47 50q0 20 12 35.5t32 15.5t46 -14t105.5 -56.5t99.5 -52.5q49 -23 49 -45q0 -37 -37 -37z" glyph-name="ograve" unicode="ò"/><glyph d="M417.5 688q145.5 0 255 -107t109.5 -257t-118.5 -246t-247.5 -96q-187 0 -275 118.5t-88 245.5t109.5 234.5t255 107.5zM417.5 606q-106.5 0 -193.5 -84t-87 -202t90.5 -187.5t190.5 -69.5t190 72.5t90 188.5t-87 199t-193.5 83zM301 811q-37 0 -37 37q0 23 49 45 q20 10 100.5 53t106.5 56q26 14 44 14q19 0 31.5 -15.5t12.5 -35.5q0 -29 -47 -50q-86 -41 -166 -73t-94 -31z" glyph-name="oacute" unicode="ó"/><glyph d="M417.5 688q145.5 0 255 -107t109.5 -257t-118.5 -246t-247.5 -96q-187 0 -275 118.5t-88 245.5t109.5 234.5t255 107.5zM417.5 606q-106.5 0 -193.5 -84t-87 -202t90.5 -187.5t190.5 -69.5t190 72.5t90 188.5t-87 199t-193.5 83zM612 811q-20 0 -45 31l-96 114 q-8 8 -13 15.5t-8.5 10.5t-6.5 4t-7 1t-8 -2t-6 -5t-24.5 -25.5t-92.5 -112.5q-25 -31 -45 -31q-41 0 -41 41q-1 16 19 40t63 78t48 60q50 60 72.5 60t30 -1.5t14.5 -5.5t12 -7t12.5 -10t10.5 -10t10 -11.5t12 -14.5t48 -60.5t63 -77.5t19 -40q0 -41 -41 -41z" glyph-name="ocircumflex" unicode="ô"/><glyph d="M417.5 688q145.5 0 255 -107t109.5 -257t-118.5 -246t-247.5 -96q-187 0 -275 118.5t-88 245.5t109.5 234.5t255 107.5zM417.5 606q-106.5 0 -193.5 -84t-87 -202t90.5 -187.5t190.5 -69.5t190 72.5t90 188.5t-87 199t-193.5 83zM172 813q-16 0 -28.5 10.5t-12.5 29.5 t19 40q94 109 186 109t162 -44q70 -43 103 -43t59 25t45 25q37 0 36 -39q0 -18 -18 -37q-55 -55 -117 -55t-129 43t-137 43t-125 -74q-27 -33 -43 -33z" glyph-name="otilde" unicode="õ"/><glyph d="M417.5 688q145.5 0 255 -107t109.5 -257t-118.5 -246t-247.5 -96q-187 0 -275 118.5t-88 245.5t109.5 234.5t255 107.5zM417.5 606q-106.5 0 -193.5 -84t-87 -202t90.5 -187.5t190.5 -69.5t190 72.5t90 188.5t-87 199t-193.5 83zM352 891q0 -33 -24.5 -56.5t-55 -23.5 t-56.5 23.5t-26 57.5t24 57.5t56 23.5t57 -24.5t25 -57.5zM684 890q0 -32 -24.5 -55.5t-55.5 -23.5t-56.5 23.5t-25.5 57.5t23.5 57.5t56.5 23.5t57.5 -25.5t24.5 -57.5z" glyph-name="odieresis" unicode="ö"/><glyph d="M135 299q-86 0 -86 45q0 35 57 35q111 -2 209 -2l220 4q57 0 57 -35q0 -45 -86 -45l-191 -2h-180zM424 577q0 -44 -33 -75t-74 -31t-74.5 30.5t-33.5 76.5t31.5 77t74.5 31t76 -32.5t33 -76.5zM424 105q0 -44 -33 -74.5t-74 -30.5t-74.5 30.5t-33.5 76.5t31.5 77t74.5 31 t76 -33t33 -77z" glyph-name="divide" horiz-adv-x="641" unicode="÷"/><glyph d="M172 -35q-42 -1 -41 43q0 18 23 45l14 21q-115 100 -115 250t110 257t255 107q96 0 174 -47q33 41 51 41q45 0 45 -46q0 -20 -26 -46q120 -106 120 -261t-118.5 -251t-247.5 -96q-88 0 -176 45l-23 -31q-23 -31 -45 -31zM698 322q0 114 -86 200l-323 -430q63 -29 146 -29 t173 72.5t90 186.5zM418 606q-106 0 -193.5 -84t-87.5 -194t82 -187l322 432q-62 33 -123 33z" glyph-name="oslash" unicode="ø"/><glyph d="M130 688q42 0 42 -49q4 -133 4 -164v-178q0 -100 50 -167t170 -67t173.5 65t53.5 161v194l-7 152q0 53 41 53t43 -56q5 -140 5 -155v-188q0 -133 -73 -220t-235 -87t-233.5 97t-71.5 218v170l-2 137l-2 25q0 59 42 59zM193 965q0 20 11.5 35.5t31.5 15.5t46 -14 t105.5 -56.5t99.5 -52.5q49 -23 50 -45q0 -37 -39 -37t-258 104q-47 20 -47 50z" glyph-name="ugrave" horiz-adv-x="794" unicode="ù"/><glyph d="M130 688q42 0 42 -49q4 -133 4 -164v-178q0 -100 50 -167t170 -67t173.5 65t53.5 161v194l-7 152q0 53 41 53t43 -56q5 -140 5 -155v-188q0 -133 -73 -220t-235 -87t-233.5 97t-71.5 218v170l-2 137l-2 25q0 59 42 59zM229 811q-37 0 -36 37q0 23 49 45q20 10 100 53 t106 56q26 14 44 14q20 0 32.5 -15.5t12.5 -35.5q0 -29 -48 -50q-86 -41 -166 -73t-94 -31z" glyph-name="uacute" horiz-adv-x="794" unicode="ú"/><glyph d="M130 688q42 0 42 -49q4 -133 4 -164v-178q0 -100 50 -167t170 -67t173.5 65t53.5 161v194l-7 152q0 53 41 53t43 -56q5 -140 5 -155v-188q0 -133 -73 -220t-235 -87t-233.5 97t-71.5 218v170l-2 137l-2 25q0 59 42 59zM565 811q-20 0 -45 31l-96 114q-8 8 -13 15.5 t-9.5 11.5t-12.5 4q-9 1 -63 -63t-74 -88t-39 -25q-41 0 -41 41q0 16 19 40t62.5 78t48.5 60q50 60 72.5 60t30 -1.5t14.5 -5.5t12 -7t12.5 -10t10.5 -10t10 -11.5t12 -14.5t47.5 -60.5t62.5 -77.5t20 -40q0 -41 -41 -41z" glyph-name="ucircumflex" horiz-adv-x="794" unicode="û"/><glyph d="M130 688q42 0 42 -49q4 -133 4 -164v-178q0 -100 50 -167t170 -67t173.5 65t53.5 161v194l-7 152q0 53 41 53t43 -56q5 -140 5 -155v-188q0 -133 -73 -220t-235 -87t-233.5 97t-71.5 218v170l-2 137l-2 25q0 59 42 59zM313 891q0 -33 -24.5 -56.5t-55 -23.5t-56 23.5 t-25.5 57.5t24 57.5t56 23.5t56.5 -24.5t24.5 -57.5zM645 890q0 -32 -24.5 -55.5t-55 -23.5t-56.5 23.5t-26 57.5t23.5 57.5t55.5 23.5t57.5 -25.5t25.5 -57.5z" glyph-name="udieresis" horiz-adv-x="794" unicode="ü"/><glyph d="M43 537v86q0 43 10 53t29 10q43 0 43 -47v-102q0 -225 200.5 -225t200.5 225v102q0 47 43 47q32 0 35.5 -20.5t3.5 -42.5v-86q0 -113 -59.5 -208.5t-190.5 -107.5l4 -192q0 -47 -36 -47q-45 0 -45 47l-5 194q-123 18 -178 111.5t-55 202.5zM186 811q-37 0 -36 37 q0 23 49 45q20 10 99.5 53t105.5 56q26 14 46 14t32 -15.5t12 -35.5q0 -29 -48 -50q-86 -41 -166 -73t-94 -31z" glyph-name="yacute" horiz-adv-x="653" unicode="ý"/><glyph d="M143 686q41 0 41 -47q-2 -12 -2 -18h74q373 0 373 -267q0 -260 -346 -260q-40 0 -93 4h-8l2 -69q0 -47 -41 -47t-41 47q-4 217 -4 305l4 305q0 47 41 47zM180 330v-150h13q25 -2 84 -2q115 0 192.5 32.5t77.5 143.5q0 184 -295 185h-70q-2 -76 -2 -209z" glyph-name="thorn" horiz-adv-x="673" unicode="þ"/><glyph d="M43 537v86q0 43 10 53t29 10q43 0 43 -47v-102q0 -225 200.5 -225t200.5 225v102q0 47 43 47q32 0 35.5 -20.5t3.5 -42.5v-86q0 -113 -59.5 -208.5t-190.5 -107.5l4 -192q0 -47 -36 -47q-45 0 -45 47l-5 194q-123 18 -178 111.5t-55 202.5zM244 891q0 -33 -24.5 -56.5 t-55.5 -23.5t-56.5 23.5t-25.5 57.5t23.5 57.5t56.5 23.5t57.5 -24.5t24.5 -57.5zM575 890q0 -32 -24.5 -55.5t-55 -23.5t-56 23.5t-25.5 57.5t23.5 57.5t55.5 23.5t57 -25.5t25 -57.5z" glyph-name="ydieresis" horiz-adv-x="653" unicode="ÿ"/><glyph d="M88 598q-47 0 -47 35q0 43 63 43h152q63 0 63 -43q0 -12 -13.5 -23.5t-33.5 -11.5h-47v-86l11 -453h51q47 0 47 -34q0 -43 -64 -43h-151q-63 0 -64 43q0 12 13.5 23t33.5 11h52l-9 451l-2 88h-55z" glyph-name="dotlessi" horiz-adv-x="376" unicode="ı"/><glyph d="M582 29q0 -41 -45 -41h-289q-93 0 -111 33t-18 85v160l-41 -18q-29 -12 -47 -12q-33 0 -33 30t43 49l76 37q-4 188 -4 289q0 47 42 47t42 -47q0 -94 4 -250l94 47q33 18 59 19q31 0 31 -31t-41 -49q-74 -37 -141 -70v-67l-2 -103q0 -56 24.5 -61.5t53.5 -5.5l256 2 q14 0 30.5 -13.5t16.5 -29.5z" glyph-name="Lslash" horiz-adv-x="612" unicode="Ł"/><glyph d="M582 29q0 -41 -45 -41h-289q-93 0 -111 33t-18 85v160l-41 -18q-29 -12 -47 -12q-33 0 -33 30t43 49l76 37q-4 188 -4 289q0 47 42 47t42 -47q0 -94 4 -250l94 47q33 18 59 19q31 0 31 -31t-41 -49q-74 -37 -141 -70v-67l-2 -103q0 -56 24.5 -61.5t53.5 -5.5l256 2 q14 0 30.5 -13.5t16.5 -29.5z" glyph-name="lslash" horiz-adv-x="612" unicode="ł"/><glyph d="M1163 33q0 -41 -45 -41h-289q-92 0 -110.5 34t-18.5 85v4q-55 -63 -133.5 -98t-154.5 -35t-156 35.5t-141.5 118.5t-61.5 210t109.5 234.5t264.5 107.5t267 -129v41q0 84 97 84h155l137 2q23 0 37.5 -11t14.5 -29t-15.5 -30t-32.5 -12q-239 -2 -275 -2t-36 -33l6 -215h84 l166 4q47 0 47 -40t-65 -39l-148 -3q-51 0 -82 3v-35l-2 -103q0 -55 24.5 -61t53.5 -6l256 2q18 0 32.5 -12.5t14.5 -30.5zM417.5 606q-106.5 0 -193.5 -84t-87 -202t90.5 -187.5t190.5 -69.5t190 72.5t90 188.5t-87 199t-193.5 83z" glyph-name="OE" horiz-adv-x="1204" unicode="Œ"/><glyph d="M1163 33q0 -41 -45 -41h-289q-92 0 -110.5 34t-18.5 85v4q-55 -63 -133.5 -98t-154.5 -35t-156 35.5t-141.5 118.5t-61.5 210t109.5 234.5t264.5 107.5t267 -129v41q0 84 97 84h155l137 2q23 0 37.5 -11t14.5 -29t-15.5 -30t-32.5 -12q-239 -2 -275 -2t-36 -33l6 -215h84 l166 4q47 0 47 -40t-65 -39l-148 -3q-51 0 -82 3v-35l-2 -103q0 -55 24.5 -61t53.5 -6l256 2q18 0 32.5 -12.5t14.5 -30.5zM417.5 606q-106.5 0 -193.5 -84t-87 -202t90.5 -187.5t190.5 -69.5t190 72.5t90 188.5t-87 199t-193.5 83z" glyph-name="oe" horiz-adv-x="1204" unicode="œ"/><glyph d="M498 600q0 -31 -29 -31q-12 -1 -59 17t-112 18t-112 -25.5t-47 -78.5q0 -30 15.5 -44t25.5 -22t28.5 -17t31 -15.5t37 -17t63.5 -28.5q71 -34 136 -75.5t65 -122.5q0 -176 -248 -176q-82 0 -180 45q-45 20 -45 55t30 35q12 0 66 -27t129 -27q166 0 166 95q0 41 -45 70.5 t-122 61.5t-97.5 41t-79 45t-58.5 122t77 137t168 51t161 -37q35 -18 35 -49zM479 1090q41 0 41 -41q0 -14 -19 -39t-62.5 -79.5t-48.5 -60.5q-42 -55 -60.5 -57t-26.5 -2t-15 1t-14.5 5t-12.5 7t-12 10.5t-15 15.5t-18 20q-130 156 -130 179q0 41 41 41q20 0 45 -31 l96 -115q27 -31 35.5 -31.5t62.5 63.5t74 89t39 25z" glyph-name="Scaron" horiz-adv-x="587" unicode="Š"/><glyph d="M498 600q0 -31 -29 -31q-12 -1 -59 17t-112 18t-112 -25.5t-47 -78.5q0 -30 15.5 -44t25.5 -22t28.5 -17t31 -15.5t37 -17t63.5 -28.5q71 -34 136 -75.5t65 -122.5q0 -176 -248 -176q-82 0 -180 45q-45 20 -45 55t30 35q12 0 66 -27t129 -27q166 0 166 95q0 41 -45 70.5 t-122 61.5t-97.5 41t-79 45t-58.5 122t77 137t168 51t161 -37q35 -18 35 -49zM479 1090q41 0 41 -41q0 -14 -19 -39t-62.5 -79.5t-48.5 -60.5q-42 -55 -60.5 -57t-26.5 -2t-15 1t-14.5 5t-12.5 7t-12 10.5t-15 15.5t-18 20q-130 156 -130 179q0 41 41 41q20 0 45 -31 l96 -115q27 -31 35.5 -31.5t62.5 63.5t74 89t39 25z" glyph-name="scaron" horiz-adv-x="587" unicode="š"/><glyph d="M621 649q0 -27 -23 -59q-162 -250 -194 -286t-50 -46q4 -209 4 -229q0 -47 -36 -47q-45 0 -46 47q0 12 -4 233q-20 12 -47 45t-188 283q-23 33 -23 59q0 37 39 37q20 0 47 -41q170 -261 192 -289t27 -28q6 0 31 32t189 285q27 41 43 41q39 0 39 -37zM233 891 q0 -33 -24.5 -56.5t-55 -23.5t-56 23.5t-25.5 57.5t23.5 57.5t56.5 23.5t57 -24.5t24 -57.5zM565 890q0 -32 -24.5 -55.5t-55 -23.5t-56.5 23.5t-26 57.5t24.5 57.5t56.5 23.5t56.5 -25.5t24.5 -57.5z" glyph-name="Ydieresis" horiz-adv-x="632" unicode="Ÿ"/><glyph d="M612 651q0 -31 -32 -69l-418 -512q57 -2 160 -2l229 4q47 0 47 -40t-66 -40l-210 -2l-236 2q-20 0 -32.5 12t-12.5 31t33 57l420 512q-57 2 -158 2l-230 -4q-47 0 -47 40t66 40l211 2l233 -2q43 0 43 -31zM526 1090q41 0 41 -41q0 -14 -19 -39t-62.5 -79.5t-48.5 -60.5 q-42 -55 -60.5 -57t-26.5 -2t-15 1t-14.5 5t-12.5 7t-12 10.5t-15 15.5t-18 20q-128 154 -130 179q0 41 41 41q20 0 45 -31l96 -115q27 -31 33 -31t10 2.5t6.5 5.5t9.5 10t50 58q42 51 62 76t40 25z" glyph-name="Zcaron" horiz-adv-x="655" unicode="Ž"/><glyph d="M612 651q0 -31 -32 -69l-418 -512q57 -2 160 -2l229 4q47 0 47 -40t-66 -40l-210 -2l-236 2q-20 0 -32.5 12t-12.5 31t33 57l420 512q-57 2 -158 2l-230 -4q-47 0 -47 40t66 40l211 2l233 -2q43 0 43 -31zM526 1090q41 0 41 -41q0 -14 -19 -39t-62.5 -79.5t-48.5 -60.5 q-42 -55 -60.5 -57t-26.5 -2t-15 1t-14.5 5t-12.5 7t-12 10.5t-15 15.5t-18 20q-128 154 -130 179q0 41 41 41q20 0 45 -31l96 -115q27 -31 33 -31t10 2.5t6.5 5.5t9.5 10t50 58q42 51 62 76t40 25z" glyph-name="zcaron" horiz-adv-x="655" unicode="ž"/><glyph d="M158 360q0 43 53 43q20 -4 88 -4l10 72q21 156 79 185.5t115.5 29.5t91.5 -22t34 -50q0 -39 -37 -39q-6 -1 -37 15t-61 16q-86 0 -101 -135q-8 -59 -10 -72l127 4q43 0 43 -34q0 -45 -72 -45l-108 -2l-15 -125q-14 -155 -75.5 -185t-119 -30t-91.5 22t-35 49q0 39 37 39 q6 0 37 -15t61 -16q88 0 102 136l15 125l-70 2q-61 0 -61 36z" glyph-name="florin" horiz-adv-x="667" unicode="ƒ"/><glyph d="M537 811q-20 0 -45 31l-97 114q-27 31 -36 31t-130 -145q-25 -31 -45 -31q-41 0 -41 41q-1 16 19 40t63 78t48 60q32 39 41.5 44t16.5 9t14 5.5t15.5 1.5t15.5 -1.5t14 -5.5t12.5 -7t15.5 -13t17 -18.5t33 -39.5q109 -131 110 -153q0 -41 -41 -41z" glyph-name="circumflex" horiz-adv-x="720" unicode="ˆ"/><glyph d="M537 1090q41 0 41 -41q0 -14 -20 -39q-112 -143 -124 -155.5t-19 -20t-12.5 -10.5t-12.5 -7t-14 -5t-15.5 -1t-15.5 1t-14 5t-12.5 7t-12.5 10.5t-10 10.5t-10 11t-26 29t-68 85q-48 65 -49 79q0 41 41 41q20 0 45 -31l97 -115q10 -10 14 -16t8 -10.5t12 -4.5q8 -1 62 63 t75 89q20 25 40 25z" glyph-name="caron" horiz-adv-x="720" unicode="ˇ"/><glyph d="M143 993q0 41 41 41t41 -41q0 -35 28 -67.5t91 -32.5q117 0 117 100q0 41 41 41t41 -41q0 -76 -44.5 -129t-152.5 -53t-155.5 60.5t-47.5 121.5z" glyph-name="breve" horiz-adv-x="686" unicode="˘"/><glyph d="M358 933q0 -44 -32.5 -75t-73.5 -31t-75 31t-34 77t32 76.5t75 30.5t75.5 -32.5t32.5 -76.5z" glyph-name="dotaccent" horiz-adv-x="501" unicode="˙"/><glyph d="M327 1094q-36 0 -69 -27t-33 -72q0 -102 107 -102q47 0 74.5 32.5t27.5 76.5t-35.5 68t-71.5 24zM328 1176q64 0 126 -47t62 -127t-51 -135.5t-136 -55.5t-135.5 48t-50.5 134t60.5 134.5t124.5 48.5z" glyph-name="ring" horiz-adv-x="659" unicode="˚"/><glyph d="M320 70q16 0 27 -10.5t11 -27.5t-18 -32q-39 -23 -77 -66t-38 -84q0 -77 62 -77q37 0 67 22t43 23q35 0 35 -43q0 -18 -39 -51t-102 -33t-105.5 38t-42.5 98t29 107.5t48.5 65.5t51.5 44t48 26z" glyph-name="ogonek" horiz-adv-x="575" unicode="˛"/><glyph d="M184.5 813q-16.5 0 -29 10.5t-12.5 29.5t19 40q94 109 186 109t162 -44q70 -43 103 -43q32 0 59 25t45 25q37 0 37 -39q0 -18 -19 -37q-55 -55 -117 -55t-128 43q-68 43 -138 43t-125 -74q-26 -33 -42.5 -33z" glyph-name="tilde" horiz-adv-x="897" unicode="˜"/><glyph d="M176 809q-10 0 -21.5 10.5t-11.5 24.5t24 47t83 136t92 103q18 0 34.5 -14t16.5 -40t-92.5 -139.5t-112.5 -125.5q-2 -2 -12 -2zM430 809q-10 0 -21.5 10.5t-11.5 24.5t24 47t61.5 98.5t64.5 103t47 37.5t36.5 -14t16.5 -40t-92.5 -139.5t-112.5 -125.5q-2 -2 -12 -2z " glyph-name="hungarumlaut" horiz-adv-x="790" unicode="˝"/><glyph d="M166 354q-86 0 -86 45q0 35 57 35q129 -2 240 -2l291 4q57 0 57 -35q0 -45 -86 -45l-262 -2h-211z" glyph-name="endash" horiz-adv-x="841" unicode="–"/><glyph d="M80 403q0 35 57 35q158 -8 420 -8l485 10q57 0 58 -34q0 -45 -86 -46l-457 -8l-391 6q-86 0 -86 45z" glyph-name="emdash" horiz-adv-x="1216" unicode="—"/><glyph d="M72 586q0 72 102 196q45 55 70 56q39 0 39 -43q0 -15 -39 -59t-45 -52q37 -8 62.5 -37t25.5 -71t-32 -73.5t-76 -31.5t-75.5 33t-31.5 82z" glyph-name="quoteleft" horiz-adv-x="358" unicode="‘"/><glyph d="M293 723q0 -72 -103 -197q-45 -55 -69 -55q-39 0 -39 43q0 14 39 58t45 53q-37 8 -62.5 36.5t-25.5 71.5t31.5 74t75.5 31t76 -33t32 -82z" glyph-name="quoteright" horiz-adv-x="335" unicode="’"/><glyph d="M285 82q0 -72 -103 -197q-45 -55 -69 -55q-39 0 -39 43q0 14 39 58t45 53q-37 8 -62.5 36.5t-25.5 71.5t31.5 74t75.5 31t76 -33t32 -82z" glyph-name="quotesinglbase" horiz-adv-x="356" unicode="‚"/><glyph d="M72 586q0 72 102 196q45 55 70 56q39 0 39 -43q0 -15 -39 -59t-45 -52q37 -8 62.5 -37t25.5 -71t-32 -73.5t-76 -31.5t-75.5 33t-31.5 82zM354 586q0 72 103 196q45 55 69 56q39 0 39 -43q0 -15 -39 -59t-45 -52q37 -8 62.5 -37t25.5 -71t-31.5 -73.5t-75.5 -31.5t-76 33 t-32 82z" glyph-name="quotedblleft" horiz-adv-x="641" unicode="“"/><glyph d="M293 723q0 -72 -103 -197q-45 -55 -69 -55q-39 0 -39 43q0 14 39 58t45 53q-37 8 -62.5 36.5t-25.5 71.5t31.5 74t75.5 31t76 -33t32 -82zM575 723q0 -72 -102 -197q-45 -55 -70 -55q-39 0 -38 43q0 12 38.5 57t45.5 54q-37 8 -63 36.5t-26 71.5t32 74t76 31t75.5 -33 t31.5 -82z" glyph-name="quotedblright" horiz-adv-x="618" unicode="”"/><glyph d="M285 82q0 -72 -103 -197q-45 -55 -69 -55q-39 0 -39 43q0 14 39 58t45 53q-37 8 -62.5 36.5t-25.5 71.5t31.5 74t75.5 31t76 -33t32 -82zM567 82q0 -72 -102 -197q-45 -55 -70 -55q-39 0 -39 43q0 14 39 58t45 53q-37 8 -62.5 36.5t-25.5 71.5t32 74t76 31t75.5 -33 t31.5 -82z" glyph-name="quotedblbase" horiz-adv-x="638" unicode="„"/><glyph d="M270 774q43 0 43 -57l4 -144l150 5q57 0 57 -35q0 -45 -86 -45l-121 -2l13 -461q0 -47 -41 -47t-41 45q-4 102 -10 463h-117q-86 0 -86 45q1 35 63 33t138 -1l-5 154q4 47 39 47z" glyph-name="dagger" horiz-adv-x="559" unicode="†"/><glyph d="M145 440q-86 0 -86 45q1 35 58 35h5l105 -2v123q0 47 41 47t41 -57v-115q109 0 129 2q57 6 58 -31q0 -29 -16.5 -38t-51.5 -9h-117v-170q106 0 127 2q57 6 58 -30q0 -29 -16.5 -38t-51.5 -9h-113l11 -160q0 -47 -43 -47q-35 0 -39 45l-8 162h-91q-86 0 -86 45q0 35 58 34 h5l109 -2v47l-2 121h-84z" glyph-name="daggerdbl" horiz-adv-x="555" unicode="‡"/><glyph d="M426 380q0 -67 -49 -114t-109 -47t-111 47.5t-51 109.5t49.5 113.5t111.5 51.5t110.5 -47t48.5 -114z" glyph-name="bullet" horiz-adv-x="534" unicode="•"/><glyph d="M285 87q0 -44 -33 -74.5t-74 -30.5t-74.5 30.5t-33.5 76.5t31.5 77t74.5 31t76 -33t33 -77zM836 87q0 -44 -33 -74.5t-74 -30.5t-74.5 30.5t-33.5 76.5t31.5 77t74.5 31t76 -33t33 -77zM1376 87q0 -44 -32.5 -74.5t-73.5 -30.5t-75 30.5t-34 76.5t32 77t75 31t75.5 -33 t32.5 -77z" glyph-name="ellipsis" horiz-adv-x="1445" unicode="…"/><glyph d="M539 444.5q0 -100.5 -74 -174t-174 -73.5t-175 71.5t-75 172.5t71.5 173t176 72t177.5 -70.5t73 -171zM457 445q0 75 -44 117t-123 42t-123 -43t-44 -116.5t44 -119.5t122 -46t123 45.5t45 120.5zM1276 229.5q0 -100.5 -74 -174t-174 -73.5t-175 71.5t-75 172.5t72 173 t176 72t177 -70.5t73 -171zM1194 230q0 75 -44 117t-123 42t-123 -43t-44 -116.5t44 -120t122 -46.5t123 46t45 121zM872.5 676q20.5 0 31.5 -13.5t11 -26.5t-20 -46l-406 -576q-23 -31 -40 -30q-45 0 -46 41q0 12 23 47l403 573q23 31 43.5 31zM1860 229.5 q0 -100.5 -74 -174t-174 -73.5t-175 71.5t-75 172.5t71.5 173t176 72t177.5 -70.5t73 -171zM1778 230q0 75 -44 117t-123 42t-123 -43t-44 -116.5t44 -120t122 -46.5t123 46t45 121z" glyph-name="perthousand" horiz-adv-x="1900" unicode="‰"/><glyph d="M250 627q41 0 45 -39q0 -16 -21 -49l-129 -195l129 -194q20 -33 21 -50q-4 -39 -45 -39q-23 0 -43 33l-129 199q-20 31 -20.5 51.5t20.5 50.5l129 199q20 33 43 33z" glyph-name="guilsinglleft" horiz-adv-x="364" unicode="‹"/><glyph d="M115 61q-41 0 -45 39q0 16 20 50l129 194l-129 195q-20 33 -20 49q4 39 45 39q23 0 43 -33l129 -199q20 -31 20 -51t-20 -51l-129 -199q-20 -33 -43 -33z" glyph-name="guilsinglright" horiz-adv-x="364" unicode="›"/><glyph d="M623 649q0 -18 -25 -47l-498 -590q-23 -29 -43 -28.5t-31.5 12.5t-11.5 30t25 46l496 590q23 29 47 28q41 0 41 -41z" glyph-name="fraction" horiz-adv-x="638" unicode="⁄"/><glyph d="M252 320q0 -16 4 -46h27l243 7q57 0 58 -35q0 -45 -86 -45q-20 0 -84 -2t-131 -2q37 -66 107.5 -100t156.5 -34t136 20.5t56 20.5q37 0 37 -34t-66.5 -61t-175 -27t-207 54t-137.5 161l-51 2q-86 0 -86 45q0 35 58 35q25 -2 61 -5q-2 14 -2 46t2 47h-33q-86 0 -86 45 q0 35 58 34q31 -2 79 -4q41 111 140.5 178.5t206.5 67.5t173 -26.5t66 -61.5t-37 -35q-6 0 -56 20.5t-134 20.5t-157 -45t-111 -119h2l243 7q57 0 58 -35q0 -45 -86 -45l-215 -4h-27q-4 -29 -4 -45z" glyph-name="Euro" horiz-adv-x="839" unicode="€"/><glyph d="M877 647v-86q2 -86 2 -127l6 -117q0 -41 -41 -41t-41 41q-6 150 -6 185v20l-95 -184q-14 -27 -36 -27t-35 27q-51 94 -90 176v-12l-6 -185q0 -41 -41 -41t-41 41q6 70 6 114v130l2 86q0 43 43 43q29 0 40 -20t74 -133l50 -107q8 16 25.5 54t25.5 53l74 131q10 23 41 22 q43 0 43 -43zM123 610q-86 0 -86 45q0 35 57 35q121 -4 150 -4l90 4q57 0 57 -35q0 -45 -86 -45h-49v-108l2 -185q0 -41 -41 -41t-41 41q-2 70 -2 117l2 176h-53z" glyph-name="trademark" horiz-adv-x="964" unicode="™"/><glyph d="M143 0q-86 0 -86 45q0 35 58 35q6 -2 67 -2h54q-168 111 -168 287q0 127 94 224t271 97t271.5 -97t94.5 -224q0 -174 -170 -287h55l68 2q57 0 57 -35q0 -45 -86 -45h-39l-135 2q-86 0 -86 45q0 23 33 33q68 23 144.5 97.5t76.5 176.5t-73 176t-210 74t-210.5 -73 t-73.5 -175t74.5 -177t144.5 -99q35 -12 34 -33q0 -45 -86 -45l-135 -2h-39z" glyph-name="uni2126" horiz-adv-x="866" unicode="Ω"/><glyph d="M248 686q20 0 39 -12q252 -162 252 -393q0 -145 -85.5 -222t-191.5 -77t-164.5 56t-58.5 150t68.5 168t189.5 74q78 0 139 -39q-49 139 -215 232q-16 10 -16 26t11.5 26.5t31.5 10.5zM272 63q61 0 115.5 44.5t67.5 130.5q6 35 -38 72.5t-126 37.5t-126 -46t-44 -109 q-1 -130 151 -130z" glyph-name="partialdiff" horiz-adv-x="591" unicode="∂"/><glyph d="M33 22q-1 14 55 148q56 133 207 426q53 98 67.5 116.5t35.5 18.5t36 -27.5t38 -86.5t41 -105t112 -256q94 -208 94 -233q0 -41 -41 -41l-338 -9q-176 0 -244 7l-28 2q-14 0 -24.5 13t-10.5 27zM326 51q166 0 292 8q-45 88 -81 191q-35 88 -117 283q-18 44 -28.5 44.5 t-23.5 -30.5t-104.5 -207t-132.5 -285v-2q29 -2 195 -2z" glyph-name="uni2206" horiz-adv-x="751" unicode="∆"/><glyph d="M199 24q0 -17 -12.5 -29.5t-28.5 -12.5q-41 0 -41 45l-4 34q-17 157 -17 223v156l4 189q0 47 37 47q127 4 287 4h297q39 0 39 -43l14 -467l-4 -141q0 -47 -43 -47q-18 0 -28.5 14t-10.5 33l6 141q-2 227 -14 422l-256 6l-244 -4q-9 -200 -0.5 -344t14 -176.5t5.5 -49.5z " glyph-name="product" horiz-adv-x="872" unicode="∏"/><glyph d="M178 4q-112 0 -112 102q0 55 51 95l174 133l-174 141q-51 39 -51 93t31.5 79t70.5 25t188 2l150 2q49 0 49 -41q0 -20 -14.5 -30.5t-28.5 -10.5q-266 -4 -311 -4t-45 -31q0 -8 20 -24l193 -152q27 -18 27 -45t-27 -45l-193 -152q-20 -16 -20 -24q0 -31 43 -31l313 -4 q14 0 28.5 -10.5t14.5 -30.5q0 -41 -49 -41l-150 2q-150 2 -178 2z" glyph-name="summation" horiz-adv-x="616" unicode="∑"/><glyph d="M82 354q0 35 57 35q129 -8 240 -8l176 2q57 0 57 -35q0 -45 -86 -45h-147l-211 6q-86 0 -86 45z" glyph-name="minus" horiz-adv-x="694" unicode="−"/><glyph d="M193 0q-18 0 -35 41l-123 328q-6 14 -8 34q0 45 43 46q33 0 47 -41l88 -242l237 622q16 41 47 41l316 2q57 0 57 -34q0 -45 -86 -45l-254 -2l-270 -709q-2 -4 -7.5 -22.5t-27.5 -18.5h-24z" glyph-name="radical" horiz-adv-x="874" unicode="√"/><glyph d="M1018 353q0 -110 -76 -182.5t-182 -72.5q-145 0 -221 119q-33 -55 -92.5 -87t-127.5 -32q-106 0 -182 73t-76 183t79 180t162 70q161 0 237 -121q76 121 221 121q100 0 179 -70.5t79 -180.5zM578 353q0 -85 53 -134t128 -49t126 51t51 131t-51 128t-126 48t-128 -45 t-53 -130zM319.5 170q75.5 0 129 51t53.5 131t-54.5 128t-129.5 48t-125 -45t-50 -129t50.5 -134t126 -50z" glyph-name="infinity" horiz-adv-x="1079" unicode="∞"/><glyph d="M229 453q0 76 7.5 118.5t41.5 78.5t100 36t103 -24t37 -60q0 -35 -39 -35q-16 1 -40 19q-25 18 -57 18t-47.5 -20.5t-18.5 -48t-3 -82.5v-238q0 -76 -7 -119t-42 -78.5t-99 -35.5t-102 24t-38 60q0 34 38 34q16 0 40 -18t57 -18t48 20t18 48t3 83v238z" glyph-name="integral" horiz-adv-x="542" unicode="∫"/><glyph d="M110.5 408q-28.5 0 -28.5 40q0 20 18 39q94 109 186 109t164 -43q70 -43 102 -43t58 24t45 25q37 0 37 -39q0 -18 -18 -37q-54 -55 -116 -55t-130 43t-138 43t-124 -74q-27 -32 -55.5 -32zM129 88q-16 0 -28.5 10.5t-12.5 29.5t18 40q94 108 186 108t164 -43 q70 -43 102 -43t58 25t46 25q37 0 36 -39q0 -18 -18 -37q-54 -55 -116 -55t-130 43t-138 43t-124 -74q-27 -33 -43 -33z" glyph-name="approxequal" horiz-adv-x="782" unicode="≈"/><glyph d="M68 541q0 35 57 34q129 -6 240 -6h43l18 70q12 47 47 47q23 0 32 -14.5t9 -25.5t-6 -36l-10 -39l157 7q57 0 58 -35q0 -45 -86 -45l-152 -6l-76 -283l256 8q57 0 58 -35q0 -45 -86 -45l-250 -6l-27 -102q-12 -47 -47 -47q-41 0 -41 41q0 10 6 34l21 74l-135 4 q-86 0 -86 45q0 35 57 35q90 -6 184 -6l76 283h-20l-211 4q-86 0 -86 45z" glyph-name="notequal" horiz-adv-x="780" unicode="≠"/></font>
</defs>
</svg>
